<svg width="25" height="25" viewBox="0 0 25 25" fill="none" xmlns="http://www.w3.org/2000/svg">
<g clip-path="url(#clip0_93_1495)">
<path d="M19.873 25H5.12695C2.29995 25 0 22.7 0 19.873V5.12695C0 2.29995 2.29995 0 5.12695 0H19.873C22.7 0 25 2.29995 25 5.12695V19.873C25 22.7 22.7 25 19.873 25Z" fill="#87E694"/>
<path d="M19.873 0H12.5V25H19.873C22.7 25 25 22.7 25 19.873V5.12695C25 2.29995 22.7 0 19.873 0Z" fill="#66CC70"/>
<path d="M17.1354 15.4187C16.6432 15.1234 16.0132 15.201 15.6074 15.6068C15.0354 16.1789 14.1079 16.1789 13.5358 15.6068L9.39263 11.4636C8.82056 10.8915 8.82056 9.96401 9.39263 9.39199C9.79844 8.98618 9.87602 8.3562 9.58071 7.86406L8.65508 6.32129C8.29966 5.72896 7.5314 5.53691 6.93906 5.89229L6.28525 6.28457C4.75977 7.81006 6.30557 11.8292 9.73794 15.2615C13.1703 18.6939 17.1894 20.2397 18.7149 18.7142L19.1072 18.0604C19.4625 17.4681 19.2705 16.6998 18.6782 16.3444L17.1354 15.4187Z" fill="white"/>
<path d="M18.6781 16.3457L17.1353 15.42C16.6432 15.1247 16.0132 15.2022 15.6074 15.6081C15.0353 16.1802 14.1078 16.1802 13.5358 15.6081L12.5 14.5723V17.5498C15.1043 19.2939 17.5888 19.8415 18.7148 18.7155L19.1071 18.0617C19.4625 17.4693 19.2704 16.701 18.6781 16.3457Z" fill="#F2F2F2"/>
</g>
<defs>
<clipPath id="clip0_93_1495">
<rect width="25" height="25" fill="white"/>
</clipPath>
</defs>
</svg>
