<svg width="41" height="42" viewBox="0 0 41 42" fill="none" xmlns="http://www.w3.org/2000/svg">
<path d="M4.72669 2.55762H28.6257C31.228 2.55762 33.3524 4.73378 33.3524 7.39959V32.5887C33.3524 35.2545 31.228 37.4307 28.6257 37.4307H4.72669C2.12435 37.4307 0 35.2545 0 32.5887V7.34518C0 4.73378 2.12435 2.55762 4.72669 2.55762Z" fill="#4A566E"/>
<path d="M15.4547 25.3527L8.44431 18.1713L0 26.8216V28.6169V32.534C0 35.1998 2.12435 37.376 4.72669 37.376H28.6257C31.228 37.376 33.3524 35.1998 33.3524 32.534V28.6169V23.2309L25.4391 15.0703L15.4547 25.3527Z" fill="#00B594"/>
<path d="M15.2424 17.1382C16.8849 17.1382 18.2165 15.7742 18.2165 14.0916C18.2165 12.4089 16.8849 11.0449 15.2424 11.0449C13.5998 11.0449 12.2683 12.4089 12.2683 14.0916C12.2683 15.7742 13.5998 17.1382 15.2424 17.1382Z" fill="#FFCC03"/>
<path d="M33.3523 39.4438C37.576 39.4438 41 35.9363 41 31.6096C41 27.2829 37.576 23.7754 33.3523 23.7754C29.1286 23.7754 25.7046 27.2829 25.7046 31.6096C25.7046 35.9363 29.1286 39.4438 33.3523 39.4438Z" fill="white"/>
<path d="M32.2371 27.9638C32.2371 27.3109 32.7151 26.8213 33.3524 26.8213C33.9366 26.8213 34.4677 27.3109 34.4677 27.9638V35.3628C34.4677 36.0156 33.9897 36.5053 33.3524 36.5053C32.7151 36.5053 32.2371 36.0156 32.2371 35.3628V27.9638Z" fill="#00B594"/>
<path d="M32.5558 28.7254C32.1309 28.2902 32.1309 27.583 32.5558 27.1477C32.9806 26.7125 33.671 26.7125 34.0959 27.1477L36.6451 29.7591C37.07 30.1944 37.07 30.9016 36.6451 31.3369C36.2203 31.7721 35.5298 31.7721 35.105 31.3369L32.5558 28.7254Z" fill="#00B594"/>
<path d="M32.5558 27.1477C32.9807 26.7125 33.6711 26.7125 34.0959 27.1477C34.5208 27.583 34.5208 28.2902 34.0959 28.7254L31.5998 31.3369C31.1749 31.7721 30.4845 31.7721 30.0597 31.3369C29.6348 30.9016 29.6348 30.1944 30.0597 29.7591L32.5558 27.1477Z" fill="#00B594"/>
</svg>
