<svg width="208" height="208" viewBox="0 0 208 208" fill="none" xmlns="http://www.w3.org/2000/svg">
<path d="M104 184.117C148.546 184.117 184.658 182.009 184.658 179.408C184.658 176.808 148.546 174.699 104 174.699C59.4536 174.699 23.3417 176.808 23.3417 179.408C23.3417 182.009 59.4536 184.117 104 184.117Z" fill="#F5F5F5"/>
<path d="M99.1744 142.076H18.849C18.2193 142.075 17.6158 141.825 17.1706 141.379C16.7253 140.934 16.4747 140.331 16.4736 139.701V26.7862C16.4802 26.1602 16.7332 25.5619 17.1779 25.1212C17.6225 24.6805 18.2229 24.4327 18.849 24.4316H99.1744C99.8037 24.4327 100.407 24.6835 100.851 25.1288C101.296 25.5742 101.546 26.1777 101.546 26.807V139.701C101.546 140.33 101.296 140.934 100.851 141.379C100.407 141.825 99.8037 142.075 99.1744 142.076ZM18.849 24.5148C18.2469 24.5159 17.6698 24.7556 17.2441 25.1813C16.8184 25.607 16.5787 26.1841 16.5776 26.7862V139.701C16.5787 140.303 16.8184 140.88 17.2441 141.306C17.6698 141.732 18.2469 141.971 18.849 141.972H99.1744C99.7761 141.971 100.353 141.732 100.778 141.306C101.203 140.88 101.442 140.303 101.442 139.701V26.7862C101.442 26.1845 101.203 25.6074 100.778 25.1816C100.353 24.7557 99.7761 24.5159 99.1744 24.5148H18.849Z" fill="#E6E6E6"/>
<path d="M189.155 142.076H108.826C108.196 142.075 107.593 141.825 107.149 141.379C106.704 140.934 106.454 140.33 106.454 139.701V26.7862C106.46 26.1605 106.712 25.5623 107.156 25.1215C107.6 24.6806 108.2 24.4327 108.826 24.4316H189.155C189.781 24.4327 190.381 24.6806 190.825 25.1215C191.269 25.5623 191.521 26.1605 191.526 26.7862V139.701C191.526 140.33 191.277 140.934 190.832 141.379C190.387 141.825 189.784 142.075 189.155 142.076ZM108.826 24.5148C108.224 24.5159 107.647 24.7557 107.222 25.1816C106.797 25.6074 106.558 26.1845 106.558 26.7862V139.701C106.558 140.303 106.797 140.88 107.222 141.306C107.647 141.732 108.224 141.971 108.826 141.972H189.155C189.758 141.971 190.335 141.732 190.761 141.306C191.188 140.881 191.428 140.304 191.431 139.701V26.7862C191.428 26.1838 191.188 25.6067 190.761 25.1811C190.335 24.7555 189.758 24.5159 189.155 24.5148H108.826Z" fill="#E6E6E6"/>
<path d="M35.751 163.159H18.6077V163.263H35.751V163.159Z" fill="#E0E0E0"/>
<path d="M70.695 162.327H53.5017V162.431H70.695V162.327Z" fill="#E0E0E0"/>
<path d="M93.0675 162.327H88.9075V162.431H93.0675V162.327Z" fill="#E0E0E0"/>
<path d="M51.4883 165.88H32.2483V165.984H51.4883V165.88Z" fill="#E0E0E0"/>
<path d="M118.036 163.105H109.05V163.209H118.036V163.105Z" fill="#E0E0E0"/>
<path d="M133.357 163.105H121.738V163.209H133.357V163.105Z" fill="#E0E0E0"/>
<path d="M189.392 164.865H163.417V164.969H189.392V164.865Z" fill="#E0E0E0"/>
<path d="M208 159.078H0V159.182H208V159.078Z" fill="#EBEBEB"/>
<path opacity="0.8" d="M139.289 33.0635L138.253 47.324C138.218 47.8073 138.013 48.2625 137.675 48.6095C137.482 48.815 137.25 48.9793 136.992 49.0923C136.734 49.2053 136.455 49.2646 136.173 49.2667H124.738C124.488 49.2693 124.24 49.2197 124.011 49.1212C123.781 49.0227 123.575 48.8774 123.404 48.6946C123.234 48.5118 123.104 48.2955 123.022 48.0595C122.94 47.8235 122.908 47.573 122.928 47.324L123.968 33.0635C124.01 32.5388 124.247 32.0489 124.632 31.6895C125.017 31.3302 125.522 31.1274 126.048 31.1208H137.484C137.734 31.1169 137.982 31.1656 138.212 31.2637C138.442 31.3618 138.649 31.5072 138.819 31.6904C138.989 31.8735 139.119 32.0904 139.2 32.327C139.281 32.5635 139.311 32.8145 139.289 33.0635Z" fill="#E0E0E0"/>
<path d="M134.248 40.1551C134.682 38.0817 133.672 36.1159 131.992 35.7644C130.312 35.4128 128.598 36.8087 128.165 38.882C127.731 40.9554 128.741 42.9212 130.421 43.2728C132.1 43.6243 133.814 42.2285 134.248 40.1551Z" fill="white"/>
<path d="M135.774 48.2851H125.307C124.642 48.2851 124.184 47.9648 124.168 47.5196C124.143 46.8707 127.537 44.0627 130.757 44.3081H130.832C132.81 44.3782 134.707 45.1107 136.219 46.3881C137.775 47.6112 136.306 48.2851 135.774 48.2851Z" fill="white"/>
<path d="M80.288 48.7469C79.1943 48.7426 78.1412 48.332 77.3332 47.5947C76.5252 46.8575 76.0201 45.8463 75.9159 44.7575C75.8674 44.2404 75.927 43.7189 76.091 43.2261C76.2549 42.7333 76.5196 42.28 76.8682 41.895C77.2168 41.51 77.6417 41.2018 78.1159 40.9898C78.59 40.7779 79.1031 40.667 79.6224 40.6641C80.7162 40.6684 81.7693 41.079 82.5773 41.8163C83.3853 42.5535 83.8904 43.5647 83.9946 44.6535C84.0431 45.1706 83.9834 45.6921 83.8195 46.1849C83.6555 46.6777 83.3909 47.131 83.0423 47.516C82.6937 47.901 82.2688 48.2092 81.7946 48.4212C81.3205 48.6331 80.8074 48.744 80.288 48.7469ZM79.8013 42.8106C79.5575 42.8106 79.3164 42.8617 79.0934 42.9604C78.8705 43.0592 78.6707 43.2036 78.507 43.3842C78.3432 43.5648 78.219 43.7778 78.1424 44.0093C78.0659 44.2408 78.0386 44.4857 78.0624 44.7284C78.1137 45.2382 78.3513 45.7113 78.7298 46.0567C79.1082 46.4022 79.6009 46.5958 80.1133 46.6004C80.3568 46.5998 80.5975 46.5483 80.8199 46.4493C81.0423 46.3503 81.2416 46.2058 81.4049 46.0253C81.5683 45.8447 81.6921 45.632 81.7684 45.4008C81.8447 45.1695 81.8718 44.9249 81.848 44.6826C81.7971 44.1749 81.5612 43.7036 81.1854 43.3584C80.8095 43.0132 80.3199 42.8183 79.8096 42.8106H79.8013Z" fill="#E0E0E0"/>
<path d="M80.4959 42.4986L78.965 42.5194L78.1497 32.6519L79.6847 32.6353L80.4959 42.4986Z" fill="#E0E0E0"/>
<path d="M81.1367 33.0761L78.258 33.1135L78.1332 31.5785L81.0119 31.541L81.1367 33.0761Z" fill="#E0E0E0"/>
<path d="M81.303 35.0477L78.5949 35.081L78.4701 33.546L81.1741 33.5127L81.303 35.0477Z" fill="#E0E0E0"/>
<path d="M81.536 37.8268L79.1732 37.8559L79.0442 36.325L81.4071 36.2959L81.536 37.8268Z" fill="#E0E0E0"/>
<path d="M32.9929 132.608C33.0018 132.732 33.017 132.856 33.0387 132.978C33.182 133.776 33.5806 134.506 34.1744 135.058C34.8489 135.698 35.7406 136.06 36.6704 136.069H71.8182C72.6511 136.083 73.4556 135.767 74.057 135.19C74.6583 134.614 75.0079 133.823 75.0297 132.991C75.0391 132.497 74.9508 132.007 74.77 131.548C74.5891 131.089 74.3193 130.67 73.976 130.315C73.6327 129.961 73.2227 129.678 72.7695 129.482C72.3164 129.287 71.8291 129.183 71.3356 129.176H36.192C35.7502 129.17 35.3122 129.257 34.906 129.431C34.4998 129.605 34.1344 129.861 33.8332 130.184C33.532 130.507 33.3016 130.89 33.1569 131.307C33.0122 131.725 32.9564 132.168 32.9929 132.608Z" fill="#F0F0F0"/>
<path d="M75.0422 132.979C75.0395 133.09 75.0284 133.202 75.0089 133.312C74.9075 132.404 74.4776 131.564 73.8003 130.951C73.123 130.338 72.2449 129.994 71.3315 129.984L33.9539 130.042C34.5577 129.463 35.3639 129.144 36.2003 129.152H71.3481C71.8445 129.148 72.3366 129.245 72.7944 129.437C73.2523 129.629 73.6664 129.911 74.0118 130.268C74.3571 130.625 74.6265 131.048 74.8036 131.512C74.9807 131.975 75.0619 132.47 75.0422 132.966V132.979Z" fill="#E0E0E0"/>
<path d="M69.0268 130.824L69.1433 132.488L70.72 131.901L71.0777 132.733L69.472 133.282L70.5952 134.693L69.888 135.225L68.7939 133.761L67.9203 135.225L67.1424 134.693L68.0534 133.282L66.3894 132.754L66.6265 131.922L68.2905 132.488L68.174 130.824H69.0268Z" fill="white"/>
<path d="M59.4131 130.824L59.5338 132.488L61.1062 131.901L61.464 132.733L59.8541 133.261L60.9814 134.672L60.2534 135.204L59.1594 133.74L58.2858 135.204L57.5078 134.672L58.4189 133.261L56.7549 132.733L56.9962 131.901L58.6602 132.467L58.5437 130.803L59.4131 130.824Z" fill="white"/>
<path d="M49.8035 130.824L49.92 132.488L51.4966 131.901L51.8544 132.733L50.2445 133.261L51.3677 134.672L50.6397 135.204L49.5456 133.74L48.672 135.204L47.8941 134.672L48.8051 133.261L47.1411 132.733L47.3824 131.901L49.0464 132.467L48.9299 130.803L49.8035 130.824Z" fill="white"/>
<path d="M40.1898 130.824L40.3062 132.488L41.8829 131.901L42.2406 132.733L40.6307 133.261L41.7539 134.672L41.0301 135.204L39.936 133.761L39.0582 135.225L38.272 134.693L39.1872 133.282L37.5232 132.754L37.7645 131.922L39.4285 132.488L39.312 130.824H40.1898Z" fill="white"/>
<path d="M63.5398 127.949H61.9008L61.9049 127.533H63.544L63.5398 127.949Z" fill="#E0E0E0"/>
<path d="M70.5828 127.949H65.2372L65.2455 127.533H70.5911L70.5828 127.949Z" fill="#E0E0E0"/>
<g opacity="0.8">
<path opacity="0.8" d="M112.062 125.852L118.693 136.057L140.558 114.192C140.58 114.173 140.597 114.15 140.609 114.125C140.622 114.099 140.629 114.071 140.631 114.043C140.633 114.014 140.629 113.986 140.62 113.959C140.61 113.932 140.596 113.907 140.577 113.886C140.558 113.865 140.535 113.847 140.51 113.835C140.484 113.822 140.456 113.815 140.428 113.813C140.4 113.812 140.371 113.816 140.344 113.825C140.317 113.834 140.293 113.849 140.271 113.867L119.434 130.208L115.498 123.864L112.062 125.852Z" fill="#E0E0E0"/>
</g>
<path opacity="0.1" d="M108.102 53.2271L92.4019 111.95H97.6809L113.206 53.2271H108.102Z" fill="white"/>
<path opacity="0.1" d="M116.251 53.2271L100.551 111.95H111.026L126.551 53.2271H116.251Z" fill="white"/>
<path d="M172.769 106.209L176.097 59.076C176.128 58.7139 176.082 58.3493 175.963 58.0058C175.845 57.6624 175.655 57.3477 175.407 57.0822C175.158 56.8167 174.857 56.6063 174.522 56.4647C174.188 56.323 173.827 56.2531 173.464 56.2597L91.2037 56.3304C90.4386 56.341 89.7046 56.6354 89.1442 57.1566C88.5838 57.6777 88.237 58.3885 88.1711 59.1509L84.8639 106.288C84.8336 106.65 84.8796 107.015 84.999 107.358C85.1184 107.702 85.3086 108.016 85.5571 108.282C85.8057 108.547 86.1071 108.758 86.442 108.899C86.7769 109.041 87.1378 109.111 87.5013 109.104L169.728 109.033C170.495 109.026 171.233 108.732 171.795 108.21C172.357 107.687 172.705 106.974 172.769 106.209Z" fill="#263238"/>
<path d="M171.712 105.181L175.04 58.0483C175.072 57.686 175.027 57.3211 174.908 56.9774C174.79 56.6336 174.6 56.3187 174.351 56.0531C174.103 55.7875 173.802 55.5771 173.467 55.4356C173.132 55.2941 172.771 55.2247 172.407 55.232L90.1471 55.3027C89.3821 55.3124 88.6481 55.6066 88.0882 56.1281C87.5284 56.6495 87.1827 57.3607 87.1187 58.1232L83.7907 105.26C83.7597 105.622 83.8052 105.987 83.9241 106.33C84.043 106.674 84.2327 106.988 84.481 107.254C84.7292 107.519 85.0304 107.73 85.3651 107.871C85.6998 108.013 86.0605 108.083 86.4239 108.076L168.68 108.006C169.446 107.996 170.181 107.701 170.741 107.179C171.302 106.657 171.648 105.945 171.712 105.181Z" fill="#2FB8A6"/>
<path opacity="0.6" d="M169.532 105.88C169.363 106.036 169.142 106.122 168.913 106.122L86.6528 106.192C86.5208 106.191 86.3904 106.163 86.2696 106.109C86.1488 106.056 86.04 105.979 85.9498 105.883C85.8597 105.786 85.7899 105.672 85.7449 105.548C85.6998 105.424 85.6803 105.292 85.6877 105.161L89.0157 58.0277C89.0285 57.7989 89.13 57.584 89.2985 57.4287C89.4665 57.2716 89.6884 57.1852 89.9184 57.1874L172.178 57.1167C172.31 57.1182 172.441 57.1464 172.561 57.1996C172.682 57.2528 172.791 57.33 172.881 57.4264C172.971 57.5228 173.041 57.6365 173.086 57.7605C173.131 57.8846 173.151 58.0166 173.143 58.1484L169.815 105.281C169.8 105.509 169.699 105.724 169.532 105.88Z" fill="white"/>
<path d="M142.172 79.9673H113.298C113.043 79.9715 112.799 80.0679 112.61 80.2384C112.421 80.409 112.3 80.6423 112.27 80.895L111.825 85.1174C111.811 85.2347 111.822 85.3537 111.857 85.4665C111.892 85.5793 111.952 85.6832 112.03 85.7714C112.109 85.8595 112.206 85.9299 112.314 85.9778C112.422 86.0257 112.539 86.0501 112.657 86.0492H141.531C141.787 86.0441 142.032 85.947 142.221 85.7759C142.411 85.6047 142.532 85.3709 142.563 85.1174L143.004 80.895C143.018 80.778 143.006 80.6594 142.97 80.5471C142.935 80.4349 142.876 80.3315 142.797 80.2438C142.718 80.1561 142.622 80.0861 142.514 80.0384C142.406 79.9908 142.29 79.9665 142.172 79.9673Z" fill="white"/>
<path d="M116.734 97.211H112.228C111.973 97.2161 111.728 97.3131 111.539 97.4843C111.349 97.6555 111.228 97.8893 111.197 98.1428L110.756 102.365C110.742 102.482 110.754 102.601 110.789 102.713C110.825 102.825 110.884 102.929 110.963 103.016C111.042 103.104 111.138 103.174 111.246 103.222C111.353 103.269 111.47 103.294 111.588 103.293H116.093C116.348 103.288 116.592 103.191 116.782 103.021C116.971 102.851 117.093 102.618 117.125 102.365L117.566 98.1428C117.58 98.0255 117.569 97.9064 117.533 97.7937C117.498 97.6809 117.439 97.577 117.36 97.4888C117.282 97.4006 117.185 97.3303 117.077 97.2824C116.969 97.2344 116.852 97.2101 116.734 97.211Z" fill="white"/>
<path d="M124.513 97.211H120.008C119.752 97.2161 119.507 97.3131 119.318 97.4843C119.128 97.6555 119.007 97.8893 118.976 98.1428L118.535 102.365C118.522 102.482 118.533 102.601 118.569 102.713C118.604 102.825 118.663 102.929 118.742 103.016C118.821 103.104 118.917 103.174 119.025 103.222C119.133 103.269 119.249 103.294 119.367 103.293H123.872C124.127 103.288 124.371 103.191 124.561 103.021C124.75 102.851 124.872 102.618 124.904 102.365L125.345 98.1428C125.359 98.0255 125.348 97.9064 125.313 97.7937C125.277 97.6809 125.218 97.577 125.14 97.4888C125.061 97.4006 124.964 97.3303 124.856 97.2824C124.748 97.2344 124.631 97.2101 124.513 97.211Z" fill="white"/>
<path d="M132.288 97.211H127.787C127.531 97.2161 127.287 97.3131 127.097 97.4843C126.907 97.6555 126.786 97.8893 126.755 98.1428L126.314 102.365C126.301 102.482 126.312 102.601 126.348 102.713C126.383 102.825 126.443 102.929 126.521 103.016C126.6 103.104 126.696 103.174 126.804 103.222C126.912 103.269 127.028 103.294 127.146 103.293H131.651C131.906 103.288 132.15 103.191 132.34 103.021C132.529 102.851 132.651 102.618 132.683 102.365L133.12 98.1428C133.134 98.0255 133.123 97.9064 133.088 97.7937C133.052 97.6809 132.993 97.577 132.915 97.4888C132.836 97.4006 132.739 97.3303 132.631 97.2824C132.523 97.2344 132.406 97.2101 132.288 97.211Z" fill="white"/>
<path d="M140.071 97.211H135.566C135.311 97.2161 135.066 97.3131 134.876 97.4843C134.687 97.6555 134.565 97.8893 134.534 98.1428L134.093 102.365C134.08 102.482 134.091 102.601 134.127 102.713C134.163 102.825 134.222 102.929 134.301 103.016C134.379 103.104 134.476 103.174 134.583 103.222C134.691 103.269 134.808 103.294 134.925 103.293H139.431C139.685 103.288 139.93 103.191 140.119 103.021C140.309 102.851 140.43 102.618 140.462 102.365L140.903 98.1428C140.918 98.0255 140.907 97.9064 140.871 97.7937C140.836 97.6809 140.777 97.577 140.698 97.4888C140.619 97.4006 140.523 97.3303 140.415 97.2824C140.307 97.2344 140.19 97.2101 140.071 97.211Z" fill="white"/>
<path d="M134.979 94.5442H116.921C116.69 94.5497 116.46 94.5051 116.247 94.4136C116.035 94.322 115.845 94.1857 115.69 94.0138C115.535 93.842 115.419 93.6387 115.35 93.4179C115.281 93.1971 115.261 92.964 115.29 92.7346L115.506 90.6546C115.566 90.173 115.798 89.7292 116.159 89.4045C116.519 89.0797 116.985 88.8959 117.47 88.8866H135.529C135.76 88.8817 135.99 88.9268 136.202 89.0189C136.415 89.1109 136.605 89.2476 136.76 89.4198C136.914 89.5919 137.03 89.7955 137.099 90.0164C137.168 90.2374 137.189 90.4707 137.159 90.7003L136.943 92.7804C136.882 93.2612 136.65 93.704 136.29 94.0279C135.929 94.3518 135.464 94.535 134.979 94.5442ZM117.47 89.3067C117.087 89.3156 116.72 89.4615 116.435 89.7179C116.15 89.9744 115.967 90.3244 115.918 90.7045L115.702 92.7845C115.679 92.9562 115.694 93.1308 115.745 93.2962C115.796 93.4616 115.883 93.6139 115.999 93.7426C116.115 93.8712 116.257 93.9731 116.416 94.0411C116.576 94.1091 116.748 94.1417 116.921 94.1365H134.979C135.362 94.1287 135.729 93.9837 136.014 93.7279C136.299 93.4721 136.482 93.1226 136.531 92.7429L136.747 90.6629C136.77 90.4913 136.756 90.3167 136.705 90.1512C136.653 89.9858 136.567 89.8335 136.451 89.7049C136.335 89.5762 136.192 89.4744 136.033 89.4063C135.874 89.3383 135.702 89.3058 135.529 89.3109L117.47 89.3067Z" fill="#2FB8A6"/>
<path d="M143.212 71.1733H114.338C114.083 71.1795 113.839 71.277 113.65 71.448C113.462 71.6191 113.341 71.8524 113.31 72.1052L112.865 76.3276C112.851 76.4446 112.863 76.5632 112.899 76.6754C112.934 76.7877 112.993 76.8911 113.072 76.9788C113.151 77.0665 113.247 77.1365 113.355 77.1841C113.462 77.2318 113.579 77.2561 113.697 77.2553H142.567C142.822 77.2503 143.066 77.1538 143.256 76.9835C143.445 76.8131 143.567 76.5803 143.599 76.3276L144.04 72.1052C144.054 71.9882 144.043 71.8695 144.008 71.7571C143.973 71.6446 143.914 71.5409 143.836 71.4528C143.758 71.3647 143.662 71.2942 143.554 71.246C143.446 71.1979 143.33 71.1731 143.212 71.1733Z" fill="white"/>
<path d="M116.809 83.0085C116.826 82.8781 116.815 82.7454 116.776 82.6196C116.738 82.4939 116.672 82.378 116.584 82.28C116.497 82.1819 116.389 82.1041 116.268 82.0517C116.147 81.9994 116.017 81.9738 115.885 81.9768C115.603 81.9835 115.332 82.0913 115.122 82.2805C114.912 82.4698 114.777 82.7281 114.741 83.0085C114.725 83.1388 114.737 83.2711 114.777 83.3963C114.816 83.5216 114.882 83.6368 114.97 83.7343C115.058 83.8318 115.166 83.9092 115.287 83.9612C115.407 84.0133 115.537 84.0388 115.669 84.036C115.95 84.0302 116.221 83.9231 116.43 83.7345C116.639 83.5458 116.774 83.2881 116.809 83.0085Z" fill="#263238"/>
<path d="M119.987 83.0085C120.004 82.8778 119.992 82.7451 119.953 82.6193C119.914 82.4936 119.848 82.3778 119.76 82.2798C119.672 82.1819 119.563 82.1041 119.443 82.0518C119.322 81.9995 119.191 81.9739 119.059 81.9768C118.777 81.9827 118.506 82.0904 118.297 82.2799C118.087 82.4694 117.953 82.7281 117.919 83.0085C117.903 83.1386 117.914 83.2708 117.953 83.396C117.992 83.5213 118.058 83.6366 118.145 83.7342C118.233 83.8317 118.341 83.9092 118.461 83.9613C118.582 84.0134 118.712 84.0389 118.843 84.036C119.125 84.0303 119.396 83.9234 119.606 83.7348C119.816 83.5462 119.951 83.2884 119.987 83.0085Z" fill="#263238"/>
<path d="M123.161 83.0085C123.178 82.8778 123.166 82.7451 123.127 82.6193C123.088 82.4936 123.022 82.3778 122.934 82.2798C122.846 82.1819 122.737 82.1041 122.617 82.0518C122.496 81.9995 122.365 81.9739 122.233 81.9768C121.951 81.9827 121.68 82.0904 121.471 82.2799C121.261 82.4694 121.127 82.7281 121.093 83.0085C121.077 83.1388 121.089 83.2711 121.129 83.3963C121.168 83.5215 121.234 83.6368 121.322 83.7343C121.41 83.8318 121.518 83.9091 121.639 83.9612C121.759 84.0133 121.89 84.0388 122.021 84.036C122.303 84.0301 122.573 83.9231 122.782 83.7344C122.992 83.5458 123.126 83.2881 123.161 83.0085Z" fill="#263238"/>
<path d="M126.335 83.0085C126.352 82.8781 126.341 82.7454 126.303 82.6196C126.264 82.4939 126.199 82.378 126.111 82.28C126.023 82.1819 125.915 82.1041 125.794 82.0517C125.674 81.9994 125.543 81.9738 125.411 81.9768C125.129 81.9828 124.858 82.0904 124.649 82.2799C124.44 82.4694 124.306 82.7281 124.272 83.0085C124.254 83.1402 124.266 83.2741 124.306 83.4007C124.347 83.5273 124.414 83.6435 124.504 83.7411C124.594 83.8387 124.705 83.9153 124.828 83.9656C124.951 84.0158 125.083 84.0384 125.216 84.0318C125.493 84.0213 125.758 83.9127 125.963 83.7253C126.168 83.5379 126.3 83.2839 126.335 83.0085Z" fill="#263238"/>
<path d="M129.576 83.0085C129.592 82.8778 129.581 82.7451 129.541 82.6193C129.502 82.4936 129.436 82.3778 129.348 82.2798C129.26 82.1819 129.152 82.1041 129.031 82.0518C128.91 81.9995 128.78 81.9739 128.648 81.9768C128.365 81.9827 128.095 82.0904 127.885 82.2799C127.676 82.4694 127.542 82.7281 127.508 83.0085C127.491 83.1386 127.503 83.2708 127.542 83.396C127.581 83.5213 127.646 83.6366 127.734 83.7342C127.822 83.8317 127.929 83.9092 128.05 83.9613C128.17 84.0134 128.3 84.0389 128.432 84.036C128.714 84.0303 128.984 83.9234 129.194 83.7348C129.404 83.5462 129.54 83.2884 129.576 83.0085Z" fill="#263238"/>
<path d="M117.849 74.2144C117.866 74.0842 117.855 73.9517 117.816 73.8261C117.778 73.7006 117.712 73.5849 117.624 73.4872C117.536 73.3895 117.428 73.312 117.308 73.2601C117.187 73.2083 117.056 73.1833 116.925 73.1869C116.643 73.1927 116.373 73.2997 116.164 73.4884C115.955 73.6771 115.82 73.9348 115.785 74.2144C115.768 74.3446 115.779 74.4771 115.817 74.6026C115.856 74.7282 115.922 74.8439 116.009 74.9416C116.097 75.0393 116.205 75.1168 116.326 75.1686C116.447 75.2205 116.577 75.2455 116.709 75.2419C116.991 75.2369 117.261 75.1302 117.471 74.9414C117.68 74.7525 117.815 74.4943 117.849 74.2144Z" fill="#263238"/>
<path d="M121.027 74.2143C121.043 74.0839 121.031 73.9517 120.991 73.8264C120.952 73.7012 120.886 73.5859 120.798 73.4884C120.71 73.391 120.602 73.3136 120.481 73.2615C120.361 73.2094 120.231 73.1839 120.099 73.1867C119.82 73.1965 119.554 73.3053 119.348 73.4936C119.142 73.6819 119.01 73.9374 118.976 74.2143C118.959 74.3444 118.971 74.4765 119.01 74.6018C119.049 74.727 119.114 74.8424 119.202 74.94C119.29 75.0375 119.397 75.115 119.518 75.1671C119.638 75.2192 119.768 75.2447 119.9 75.2418C120.179 75.233 120.446 75.1247 120.653 74.9363C120.86 74.7479 120.992 74.4918 121.027 74.2143Z" fill="#263238"/>
<path d="M124.201 74.2143C124.218 74.0842 124.206 73.952 124.167 73.8267C124.128 73.7015 124.063 73.5861 123.975 73.4886C123.887 73.391 123.78 73.3135 123.659 73.2614C123.539 73.2093 123.409 73.1839 123.277 73.1867C122.995 73.1924 122.725 73.2993 122.515 73.4879C122.305 73.6765 122.169 73.9343 122.133 74.2143C122.117 74.3447 122.128 74.4773 122.167 74.6028C122.207 74.7284 122.273 74.8439 122.361 74.9416C122.449 75.0392 122.557 75.1166 122.678 75.1684C122.799 75.2203 122.93 75.2453 123.061 75.2418C123.343 75.2368 123.614 75.1301 123.823 74.9413C124.033 74.7524 124.167 74.4942 124.201 74.2143Z" fill="#263238"/>
<path d="M127.375 74.2144C127.392 74.0842 127.381 73.9517 127.343 73.8261C127.304 73.7006 127.238 73.5849 127.151 73.4872C127.063 73.3895 126.955 73.312 126.834 73.2601C126.713 73.2083 126.583 73.1833 126.451 73.1869C126.17 73.1927 125.899 73.2997 125.69 73.4884C125.481 73.6771 125.346 73.9348 125.312 74.2144C125.294 74.3446 125.305 74.4771 125.344 74.6026C125.382 74.7282 125.448 74.8439 125.536 74.9416C125.624 75.0393 125.732 75.1168 125.852 75.1686C125.973 75.2205 126.104 75.2455 126.235 75.2419C126.517 75.2369 126.788 75.1302 126.997 74.9414C127.207 74.7525 127.341 74.4943 127.375 74.2144Z" fill="#263238"/>
<path d="M130.553 74.2143C130.569 74.0839 130.557 73.9517 130.518 73.8264C130.478 73.7012 130.412 73.5859 130.324 73.4884C130.236 73.391 130.128 73.3136 130.008 73.2615C129.887 73.2094 129.757 73.1839 129.626 73.1867C129.344 73.1926 129.074 73.2996 128.864 73.4883C128.655 73.6769 128.521 73.9346 128.486 74.2143C128.469 74.3447 128.481 74.4773 128.52 74.6028C128.559 74.7284 128.625 74.8439 128.713 74.9416C128.801 75.0392 128.909 75.1166 129.03 75.1684C129.151 75.2202 129.282 75.2453 129.413 75.2418C129.695 75.2368 129.966 75.1301 130.176 74.9412C130.385 74.7524 130.519 74.4942 130.553 74.2143Z" fill="#263238"/>
<path d="M133.727 74.2143C133.744 74.0842 133.733 73.952 133.694 73.8267C133.655 73.7015 133.589 73.5861 133.501 73.4886C133.414 73.391 133.306 73.3135 133.186 73.2614C133.065 73.2093 132.935 73.1839 132.804 73.1867C132.522 73.1924 132.251 73.2993 132.041 73.4879C131.831 73.6765 131.696 73.9343 131.66 74.2143C131.643 74.3447 131.655 74.4773 131.694 74.6028C131.733 74.7284 131.799 74.8439 131.887 74.9416C131.975 75.0392 132.084 75.1166 132.204 75.1684C132.325 75.2203 132.456 75.2453 132.588 75.2418C132.87 75.2368 133.14 75.1301 133.35 74.9413C133.559 74.7524 133.693 74.4942 133.727 74.2143Z" fill="#263238"/>
<path d="M131.04 61.8632L130.815 63.9973C130.8 64.0901 130.753 64.1749 130.682 64.2376C130.612 64.3003 130.523 64.3373 130.429 64.3426C130.384 64.3442 130.34 64.3361 130.299 64.3189C130.258 64.3016 130.222 64.2756 130.192 64.2427C130.162 64.2098 130.14 64.1707 130.127 64.1284C130.114 64.086 130.11 64.0412 130.117 63.9973L130.341 61.8632C130.361 61.7052 130.346 61.5448 130.299 61.3928C130.251 61.2409 130.171 61.101 130.065 60.9827C129.958 60.8643 129.827 60.7702 129.681 60.7068C129.535 60.6434 129.377 60.6122 129.218 60.6152H128.448C128.106 60.6233 127.779 60.7537 127.525 60.9826C127.27 61.2116 127.107 61.524 127.063 61.8632L126.868 63.8434H126.169L126.364 61.8632C126.43 61.3338 126.685 60.846 127.081 60.4891C127.478 60.1323 127.99 59.9304 128.523 59.9205H129.289C129.537 59.9142 129.784 59.9618 130.012 60.0599C130.241 60.1581 130.445 60.3044 130.611 60.489C130.778 60.6736 130.902 60.8919 130.976 61.1291C131.05 61.3663 131.072 61.6168 131.04 61.8632Z" fill="#2FB8A6"/>
<path d="M131.04 63.9184L130.603 68.0784C130.586 68.2075 130.524 68.3263 130.427 68.4133C130.33 68.5003 130.205 68.5497 130.075 68.5526H125.915C125.855 68.5532 125.796 68.5409 125.741 68.5164C125.686 68.492 125.637 68.456 125.598 68.411C125.558 68.3659 125.529 68.3129 125.512 68.2555C125.495 68.1981 125.49 68.1377 125.499 68.0784L125.936 63.9184C125.944 63.8329 125.972 63.7506 126.018 63.6782C126.065 63.6059 126.128 63.5456 126.202 63.5024C126.281 63.4558 126.372 63.4314 126.464 63.4317H130.624C130.709 63.4308 130.793 63.4538 130.865 63.4982C130.932 63.5437 130.984 63.6077 131.015 63.6823C131.046 63.7569 131.055 63.8389 131.04 63.9184Z" fill="#2FB8A6"/>
<path d="M153.45 55.2238C153.395 55.2238 153.342 55.2018 153.303 55.1628C153.264 55.1238 153.242 55.0709 153.242 55.0158C153.242 54.9606 153.264 54.9077 153.303 54.8687C153.342 54.8297 153.395 54.8078 153.45 54.8078L163.617 54.7495C163.672 54.7495 163.725 54.7714 163.764 54.8104C163.803 54.8494 163.825 54.9023 163.825 54.9575C163.825 55.0127 163.803 55.0656 163.764 55.1046C163.725 55.1436 163.672 55.1655 163.617 55.1655L153.454 55.2238H153.45Z" fill="#263238"/>
<path d="M165.568 55.1533C165.513 55.1533 165.46 55.1314 165.421 55.0924C165.382 55.0534 165.36 55.0005 165.36 54.9453C165.36 54.8901 165.382 54.8372 165.421 54.7982C165.46 54.7592 165.513 54.7373 165.568 54.7373H169.162C169.217 54.7373 169.27 54.7592 169.309 54.7982C169.348 54.8372 169.37 54.8901 169.37 54.9453C169.37 55.0005 169.348 55.0534 169.309 55.0924C169.27 55.1314 169.217 55.1533 169.162 55.1533H165.568Z" fill="#263238"/>
<g opacity="0.3">
<path opacity="0.3" d="M97.8016 57.1748H109.45L97.6061 106.192H88.217C87.9461 106.187 87.6799 106.12 87.4384 105.997C87.1968 105.875 86.9861 105.699 86.8221 105.483C86.6581 105.268 86.5449 105.018 86.4911 104.752C86.4373 104.487 86.4442 104.212 86.5114 103.95L97.8016 57.1748Z" fill="white"/>
<path opacity="0.3" d="M114.608 57.1748H119.546L107.715 106.192H102.777L114.608 57.1748Z" fill="white"/>
</g>
<path d="M36.0465 41.8746H38.4094C37.8558 41.8667 37.3068 41.975 36.7976 42.1924C36.2885 42.4099 35.8306 42.7316 35.4535 43.1369C35.0764 43.5423 34.7885 44.0221 34.6083 44.5456C34.4281 45.0691 34.3597 45.6245 34.4075 46.1761L39.4203 117.853C39.5153 119.013 40.0392 120.097 40.8898 120.892C41.7405 121.688 42.8569 122.138 44.0212 122.154H41.6625C40.4977 122.138 39.3808 121.688 38.5295 120.893C37.6782 120.097 37.1534 119.014 37.0574 117.853L32.0321 46.1761C31.9842 45.6234 32.053 45.0669 32.2339 44.5426C32.4148 44.0183 32.7039 43.5378 33.0823 43.1322C33.4608 42.7267 33.9202 42.4052 34.4308 42.1886C34.9415 41.9719 35.4919 41.865 36.0465 41.8746Z" fill="#2FB8A6"/>
<path d="M36.0464 41.8744H38.4093C37.8557 41.8665 37.3067 41.9748 36.7975 42.1922C36.2884 42.4097 35.8305 42.7314 35.4534 43.1367C35.0763 43.5421 34.7884 44.0219 34.6082 44.5454C34.428 45.0689 34.3596 45.6243 34.4074 46.1759L39.4202 117.853C39.5152 119.013 40.0391 120.097 40.8897 120.892C41.7404 121.687 42.8567 122.137 44.0211 122.154H41.6624C39.287 122.154 36.8909 120.228 36.7245 117.853L31.7117 46.1759C31.5453 43.8005 33.671 41.8744 36.0464 41.8744Z" fill="#263238"/>
<path d="M42.3654 122.158H71.2774C71.8324 122.168 72.3833 122.062 72.8944 121.845C73.4055 121.629 73.8655 121.308 74.2444 120.902C74.6233 120.496 74.9127 120.016 75.0939 119.491C75.275 118.966 75.3439 118.41 75.296 117.857L70.2666 46.1756C70.1725 45.0136 69.6484 43.9284 68.7968 43.1322C67.9451 42.3359 66.8272 41.8859 65.6614 41.87H36.7536C36.1997 41.8621 35.6502 41.9705 35.1408 42.1882C34.6314 42.4058 34.1733 42.728 33.7961 43.1337C33.4189 43.5395 33.1311 44.0199 32.9512 44.5439C32.7713 45.0679 32.7033 45.6238 32.7517 46.1756L37.7437 117.852C37.839 119.017 38.3657 120.104 39.2206 120.9C40.0756 121.697 41.1971 122.145 42.3654 122.158Z" fill="#2FB8A6"/>
<g opacity="0.6">
<path opacity="0.6" d="M65.5866 43.2639C66.3966 43.2767 67.1728 43.5904 67.7642 44.1441C68.3555 44.6978 68.7196 45.4517 68.7857 46.2591L73.7985 117.936C73.8325 118.302 73.7889 118.671 73.6705 119.018C73.5521 119.366 73.3616 119.685 73.1114 119.954C72.8613 120.223 72.5571 120.436 72.2188 120.579C71.8806 120.723 71.5158 120.793 71.1485 120.785H42.2407C41.4303 120.773 40.6536 120.459 40.0615 119.906C39.4695 119.352 39.1045 118.598 39.0375 117.79L34.0455 46.1135C34.0117 45.7495 34.0547 45.3824 34.1719 45.0361C34.289 44.6898 34.4777 44.372 34.7256 44.1033C34.9735 43.8346 35.2751 43.621 35.6109 43.4764C35.9467 43.3318 36.3091 43.2594 36.6746 43.2639H65.5866Z" fill="white"/>
</g>
<g opacity="0.3">
<path opacity="0.3" d="M57.4081 120.777H45.889L55.3988 43.2637H64.6798C65.0805 43.2622 65.4773 43.3435 65.8452 43.5024C66.2132 43.6613 66.5443 43.8944 66.818 44.1872L57.4081 120.777Z" fill="white"/>
<path opacity="0.3" d="M43.8215 120.777H41.2257L50.7355 43.2554H53.3313L43.8215 120.777Z" fill="white"/>
</g>
<path d="M63.8644 77.3344H42.923C42.8678 77.3344 42.8149 77.3125 42.7759 77.2735C42.7369 77.2345 42.715 77.1816 42.715 77.1265C42.715 77.0713 42.7369 77.0184 42.7759 76.9794C42.8149 76.9404 42.8678 76.9185 42.923 76.9185H63.8644C63.9192 76.9195 63.9715 76.9418 64.0103 76.9806C64.0491 77.0193 64.0713 77.0716 64.0724 77.1265C64.0724 77.1816 64.0505 77.2345 64.0115 77.2735C63.9725 77.3125 63.9196 77.3344 63.8644 77.3344Z" fill="white"/>
<path d="M62.0257 80.4336H45.6228C45.5676 80.4336 45.5147 80.4117 45.4757 80.3727C45.4367 80.3336 45.4148 80.2807 45.4148 80.2256C45.4148 80.1704 45.4367 80.1175 45.4757 80.0785C45.5147 80.0395 45.5676 80.0176 45.6228 80.0176H62.0257C62.0808 80.0176 62.1337 80.0395 62.1728 80.0785C62.2118 80.1175 62.2337 80.1704 62.2337 80.2256C62.2337 80.2807 62.2118 80.3336 62.1728 80.3727C62.1337 80.4117 62.0808 80.4336 62.0257 80.4336Z" fill="white"/>
<path d="M43.547 62.8489L43.5761 63.6809H43.0395L43.0104 62.8489L42.0577 61.3555H42.6277L43.2849 62.3871L43.8673 61.3555H44.3957L43.547 62.8489Z" fill="#2FB8A6"/>
<path d="M44.4164 62.5078C44.4093 62.3443 44.4371 62.1811 44.498 62.0292C44.5589 61.8773 44.6515 61.7401 44.7696 61.6267C44.8877 61.5134 45.0285 61.4265 45.1828 61.3718C45.3371 61.3172 45.5013 61.296 45.6644 61.3097C45.8293 61.3014 45.9943 61.3258 46.1497 61.3816C46.3051 61.4375 46.4479 61.5236 46.5698 61.6351C46.6917 61.7465 46.7903 61.881 46.8598 62.0308C46.9293 62.1807 46.9684 62.3428 46.9748 62.5078C46.9824 62.6717 46.9551 62.8353 46.8944 62.9877C46.8338 63.1402 46.7413 63.2779 46.6232 63.3917C46.505 63.5055 46.3639 63.5928 46.2093 63.6477C46.0548 63.7026 45.8902 63.7239 45.7268 63.7101C45.5615 63.7184 45.3962 63.6939 45.2405 63.6378C45.0848 63.5817 44.9418 63.4951 44.8199 63.3833C44.6979 63.2714 44.5995 63.1364 44.5302 62.9861C44.4609 62.8358 44.4222 62.6732 44.4164 62.5078ZM46.4132 62.5078C46.4137 62.4094 46.3946 62.3118 46.3568 62.2209C46.319 62.1299 46.2633 62.0475 46.1931 61.9785C46.1229 61.9094 46.0396 61.8552 45.9481 61.8189C45.8565 61.7826 45.7586 61.7651 45.6602 61.7673C45.5637 61.7633 45.4675 61.78 45.3781 61.8164C45.2886 61.8527 45.2081 61.9079 45.1418 61.9781C45.0755 62.0483 45.0251 62.1319 44.994 62.2233C44.9628 62.3147 44.9517 62.4117 44.9613 62.5078C44.9602 62.6066 44.9789 62.7047 45.0165 62.7961C45.054 62.8875 45.1096 62.9704 45.1798 63.0399C45.2501 63.1094 45.3336 63.164 45.4254 63.2005C45.5173 63.237 45.6155 63.2547 45.7143 63.2525C45.8108 63.2552 45.9067 63.2375 45.9959 63.2004C46.085 63.1633 46.1652 63.1078 46.2313 63.0374C46.2973 62.967 46.3477 62.8834 46.379 62.7921C46.4104 62.7008 46.422 62.6039 46.4132 62.5078Z" fill="#2FB8A6"/>
<path d="M47.3449 62.6492L47.3033 61.3472H47.84L47.8816 62.6284C47.8816 63.0694 48.0979 63.2524 48.4224 63.2524C48.7469 63.2524 48.9299 63.0694 48.9174 62.6284L48.8717 61.3472H49.4L49.4457 62.6492C49.4676 62.7892 49.457 62.9323 49.4147 63.0675C49.3724 63.2027 49.2996 63.3263 49.2019 63.4289C49.1041 63.5314 48.9841 63.6101 48.8511 63.6589C48.7181 63.7076 48.5757 63.7251 48.4349 63.71C48.291 63.7229 48.1461 63.7045 48.01 63.6562C47.8739 63.6078 47.7498 63.5307 47.6463 63.4299C47.5428 63.3292 47.4623 63.2073 47.4103 63.0725C47.3583 62.9378 47.336 62.7934 47.3449 62.6492Z" fill="#2FB8A6"/>
<path d="M51.4926 63.6726L51.0225 63.0236H50.5275L50.5525 63.6726H50.0158L49.9326 61.3472H50.9393C51.5592 61.3472 51.9585 61.6716 51.9752 62.1792C51.9887 62.3338 51.9518 62.4886 51.8701 62.6206C51.7883 62.7525 51.6662 62.8545 51.5217 62.9113L52.0709 63.6601L51.4926 63.6726ZM50.9227 61.7881H50.5067L50.5358 62.5952H50.9518C51.2805 62.5952 51.4385 62.4454 51.4302 62.1792C51.4219 61.9129 51.2513 61.7881 50.9227 61.7881Z" fill="#2FB8A6"/>
<path d="M53.2065 62.5078C53.1979 62.3467 53.2235 62.1857 53.2817 62.0354C53.34 61.885 53.4295 61.7487 53.5443 61.6354C53.6591 61.5222 53.7966 61.4346 53.9478 61.3785C54.0989 61.3223 54.2603 61.2989 54.4212 61.3097C54.6033 61.3041 54.7845 61.3384 54.9519 61.4103C55.1194 61.4821 55.2691 61.5898 55.3904 61.7257L55.0577 62.0419C54.984 61.9563 54.8927 61.8879 54.79 61.8412C54.6873 61.7945 54.5756 61.7707 54.4628 61.7715C54.3653 61.7663 54.2679 61.7822 54.177 61.8179C54.0862 61.8537 54.0041 61.9085 53.9363 61.9787C53.8685 62.0489 53.8165 62.1328 53.7839 62.2248C53.7513 62.3168 53.7388 62.4147 53.7473 62.5119C53.7466 62.612 53.7663 62.7112 53.805 62.8035C53.8438 62.8958 53.9009 62.9792 53.9728 63.0488C54.0448 63.1184 54.13 63.1727 54.2236 63.2084C54.3171 63.2441 54.4168 63.2605 54.5169 63.2566C54.6273 63.2589 54.7368 63.2352 54.8365 63.1875C54.9362 63.1398 55.0233 63.0695 55.0909 62.982L55.4445 63.2982C55.3314 63.4363 55.1873 63.5459 55.024 63.6182C54.8607 63.6905 54.6827 63.7233 54.5044 63.7142C54.3398 63.7209 54.1755 63.6949 54.021 63.6377C53.8665 63.5806 53.7248 63.4935 53.6041 63.3813C53.4835 63.2692 53.3862 63.1342 53.318 62.9843C53.2497 62.8344 53.2118 62.6724 53.2065 62.5078Z" fill="#2FB8A6"/>
<path d="M55.586 62.5082C55.5792 62.3466 55.6065 62.1853 55.6662 62.0349C55.7259 61.8845 55.8165 61.7484 55.9323 61.6354C56.0481 61.5224 56.1863 61.435 56.3381 61.379C56.4899 61.3229 56.6517 61.2995 56.8132 61.3101C56.9781 61.3017 57.1431 61.3262 57.2985 61.382C57.4539 61.4379 57.5967 61.524 57.7186 61.6354C57.8405 61.7469 57.9391 61.8814 58.0086 62.0312C58.0781 62.181 58.1172 62.3432 58.1236 62.5082C58.131 62.6702 58.1041 62.8319 58.0447 62.9828C57.9853 63.1337 57.8947 63.2703 57.7789 63.3838C57.663 63.4972 57.5245 63.585 57.3725 63.6413C57.2204 63.6976 57.0582 63.7211 56.8964 63.7104C56.7311 63.7188 56.5658 63.6942 56.4101 63.6381C56.2544 63.582 56.1114 63.4955 55.9895 63.3836C55.8675 63.2718 55.7691 63.1367 55.6998 62.9865C55.6305 62.8362 55.5918 62.6736 55.586 62.5082ZM57.5786 62.5082C57.5798 62.4099 57.5611 62.3125 57.5238 62.2215C57.4864 62.1306 57.4312 62.0482 57.3613 61.9791C57.2914 61.91 57.2084 61.8557 57.1171 61.8194C57.0257 61.783 56.9281 61.7655 56.8298 61.7677C56.7334 61.7637 56.6371 61.7804 56.5477 61.8167C56.4583 61.8531 56.3777 61.9083 56.3114 61.9785C56.2451 62.0487 56.1947 62.1323 56.1636 62.2237C56.1324 62.3151 56.1213 62.4121 56.1309 62.5082C56.1292 62.6068 56.1475 62.7047 56.1845 62.7961C56.2216 62.8875 56.2768 62.9705 56.3467 63.04C56.4166 63.1096 56.4999 63.1643 56.5915 63.2008C56.6831 63.2374 56.7811 63.2551 56.8797 63.2528C56.9764 63.2563 57.0727 63.239 57.1621 63.2022C57.2516 63.1653 57.3321 63.1098 57.3983 63.0392C57.4645 62.9687 57.5148 62.8848 57.5459 62.7932C57.577 62.7016 57.5882 62.6045 57.5786 62.5082Z" fill="#2FB8A6"/>
<path d="M58.4896 61.3475H59.5421C59.706 61.3315 59.8715 61.3493 60.0283 61.3999C60.1851 61.4505 60.3298 61.5327 60.4534 61.6416C60.5771 61.7504 60.677 61.8835 60.7471 62.0325C60.8172 62.1816 60.8559 62.3435 60.8608 62.5081C60.87 62.6708 60.8434 62.8335 60.7827 62.9846C60.722 63.1358 60.6288 63.2718 60.5097 63.383C60.3906 63.4941 60.2486 63.5777 60.0936 63.6278C59.9386 63.6779 59.7744 63.6933 59.6128 63.6729H58.5562L58.4896 61.3475ZM59.5837 63.232C59.6818 63.2422 59.781 63.2305 59.8741 63.1979C59.9672 63.1653 60.0519 63.1126 60.1223 63.0434C60.1926 62.9743 60.2468 62.8904 60.281 62.7979C60.3152 62.7054 60.3285 62.6064 60.32 62.5081C60.3198 62.4079 60.2988 62.3089 60.2583 62.2172C60.2179 62.1256 60.1588 62.0433 60.0849 61.9757C60.011 61.908 59.9239 61.8565 59.829 61.8242C59.7341 61.792 59.6336 61.7798 59.5338 61.7885H59.0429L59.0928 63.232H59.5837Z" fill="#2FB8A6"/>
<path d="M63.0906 63.2317V63.6477H61.2935L61.2103 61.3223H62.9658V61.7383H61.7761V62.2416H62.8535V62.6576H61.7761V63.1943L63.0906 63.2317Z" fill="#2FB8A6"/>
<path d="M47.5821 72.305V73.2368H43.2182V72.5005L45.5395 70.2583C46.1053 69.705 46.201 69.3597 46.1968 69.0103C46.1968 68.4695 45.8058 68.1533 45.0778 68.1533C44.8149 68.1401 44.5527 68.1893 44.3126 68.2971C44.0725 68.4048 43.8614 68.568 43.6966 68.7732L42.9146 68.1783C43.1834 67.8494 43.5265 67.5889 43.9155 67.4183C44.3046 67.2476 44.7285 67.1716 45.1526 67.1965C46.4422 67.1965 47.2867 67.8496 47.3034 68.9021C47.3034 69.4762 47.1619 70.0045 46.3549 70.7783L44.7949 72.2884L47.5821 72.305Z" fill="#263238"/>
<path d="M52.4161 71.4561C52.4161 72.4545 51.6922 73.3198 50.0989 73.3198C49.2964 73.3341 48.51 73.0938 47.8525 72.6334L48.3143 71.7765C48.8156 72.1633 49.4325 72.3699 50.0657 72.363C50.8519 72.363 51.3137 72.0136 51.3137 71.4645C51.3137 70.9153 50.8977 70.5784 50.0074 70.5784H49.4666V69.8254L50.7521 68.2238H48.0522V67.3003H52.1041V68.0408L50.6897 69.7547C51.8253 69.8878 52.4161 70.5617 52.4161 71.4561Z" fill="#263238"/>
<path d="M57.9655 71.5517C57.9655 72.6541 57.0378 73.3405 55.561 73.3405C54.0842 73.3405 53.1274 72.6541 53.1107 71.5517C53.0982 71.2487 53.1805 70.9492 53.346 70.695C53.5115 70.4408 53.752 70.2444 54.0343 70.1332C53.8039 70.0165 53.6107 69.8378 53.4762 69.6174C53.3417 69.397 53.2714 69.1434 53.273 68.8852C53.273 67.866 54.1383 67.2212 55.4528 67.2212C56.7674 67.2212 57.6867 67.8577 57.7034 68.8852C57.7163 69.1419 57.6538 69.3968 57.5237 69.6186C57.3937 69.8403 57.2016 70.0192 56.9712 70.1332C57.2605 70.2421 57.5102 70.4357 57.6876 70.6888C57.865 70.9419 57.9618 71.2427 57.9655 71.5517ZM56.8506 71.5185C56.8506 70.9319 56.3264 70.5658 55.5111 70.5658C54.6957 70.5658 54.209 70.9319 54.2215 71.5185C54.2339 72.105 54.729 72.4753 55.5443 72.4753C56.3597 72.4753 56.8631 72.1009 56.8506 71.4977V71.5185ZM54.3546 68.9393C54.3546 69.4468 54.7706 69.7713 55.4903 69.7713C56.2099 69.7713 56.6218 69.4468 56.6093 68.9393C56.5968 68.4318 56.1392 68.1073 55.457 68.1073C54.7747 68.1073 54.3546 68.3818 54.3629 68.9185L54.3546 68.9393Z" fill="#263238"/>
<path d="M63.4983 71.5517C63.4983 72.6541 62.5706 73.3405 61.0938 73.3405C59.617 73.3405 58.656 72.6333 58.656 71.5517C58.6442 71.2488 58.7266 70.9496 58.8921 70.6955C59.0575 70.4414 59.2977 70.2449 59.5796 70.1332C59.3491 70.017 59.1559 69.8384 59.022 69.6178C58.8881 69.3971 58.819 69.1433 58.8224 68.8852C58.8016 67.866 59.6836 67.2212 60.9981 67.2212C62.3127 67.2212 63.232 67.8577 63.2487 68.8852C63.2615 69.1419 63.1991 69.3968 63.069 69.6186C62.939 69.8403 62.7469 70.0192 62.5165 70.1332C62.8034 70.244 63.0505 70.4386 63.2255 70.6915C63.4006 70.9444 63.4956 71.2441 63.4983 71.5517ZM62.3834 71.5185C62.3834 70.9319 61.8592 70.5658 61.0439 70.5658C60.2285 70.5658 59.7418 70.9319 59.7543 71.5185C59.7667 72.105 60.2618 72.4753 61.0772 72.4753C61.8925 72.4753 62.4 72.1009 62.4 71.4977L62.3834 71.5185ZM59.8874 68.9393C59.8874 69.4468 60.3242 69.7713 61.0231 69.7713C61.7219 69.7713 62.1546 69.4468 62.1463 68.9393C62.1379 68.4318 61.672 68.1073 60.9939 68.1073C60.3159 68.1073 59.904 68.3818 59.904 68.9185L59.8874 68.9393Z" fill="#263238"/>
<path d="M32.6519 62.5288C32.5988 62.5289 32.5477 62.5087 32.5091 62.4723C32.4704 62.436 32.4471 62.3862 32.4439 62.3332L31.7076 52.2785C31.7041 52.224 31.7223 52.1703 31.7581 52.1291C31.7939 52.0878 31.8445 52.0623 31.8989 52.058C31.9539 52.0546 32.008 52.0726 32.05 52.1083C32.0919 52.144 32.1183 52.1946 32.1236 52.2494L32.864 62.3041C32.8663 62.3315 32.8632 62.359 32.8548 62.3851C32.8464 62.4112 32.8329 62.4354 32.8151 62.4563C32.7973 62.4771 32.7756 62.4943 32.7511 62.5067C32.7267 62.5192 32.7 62.5267 32.6727 62.5288H32.6519Z" fill="#2FB8A6"/>
<path d="M31.7741 50.5436C31.7217 50.5438 31.6712 50.5242 31.6327 50.4887C31.5941 50.4532 31.5703 50.4045 31.5661 50.3522L31.3706 47.6982C31.3687 47.6709 31.3722 47.6434 31.3809 47.6175C31.3896 47.5915 31.4033 47.5675 31.4213 47.5468C31.4575 47.5051 31.5089 47.4795 31.5641 47.4756C31.6192 47.4717 31.6737 47.49 31.7154 47.5262C31.7571 47.5625 31.7828 47.6139 31.7866 47.669L31.9821 50.3231C31.9856 50.3776 31.9674 50.4313 31.9316 50.4726C31.8958 50.5138 31.8452 50.5393 31.7908 50.5436H31.7741Z" fill="#2FB8A6"/>
<path d="M51.322 37.8933C51.2668 37.8933 51.2139 37.8714 51.1749 37.8323C51.1359 37.7933 51.114 37.7404 51.114 37.6853V31.5659C51.114 31.5107 51.1359 31.4578 51.1749 31.4188C51.2139 31.3798 51.2668 31.3579 51.322 31.3579C51.3772 31.3579 51.4301 31.3798 51.4691 31.4188C51.5081 31.4578 51.53 31.5107 51.53 31.5659V37.6853C51.53 37.7404 51.5081 37.7933 51.4691 37.8323C51.4301 37.8714 51.3772 37.8933 51.322 37.8933Z" fill="#2FB8A6"/>
<path d="M46.4755 39.1912C46.4392 39.1909 46.4036 39.1812 46.3723 39.163C46.3409 39.1447 46.3148 39.1186 46.2967 39.0872L43.2349 33.7873C43.2073 33.7393 43.1999 33.6823 43.2144 33.6289C43.2288 33.5755 43.2639 33.5299 43.3119 33.5024C43.3599 33.4748 43.4168 33.4674 43.4703 33.4818C43.5237 33.4963 43.5692 33.5313 43.5968 33.5793L46.6544 38.8792C46.6685 38.9025 46.6777 38.9285 46.6816 38.9555C46.6854 38.9826 46.6838 39.0101 46.6768 39.0364C46.6699 39.0628 46.6576 39.0875 46.6409 39.1091C46.6242 39.1307 46.6033 39.1487 46.5795 39.162C46.5477 39.1799 46.512 39.1899 46.4755 39.1912Z" fill="#2FB8A6"/>
<path d="M56.1601 39.1912C56.1239 39.1913 56.0882 39.1828 56.0561 39.1662C56.0086 39.1376 55.9741 39.0916 55.9601 39.0379C55.9461 38.9843 55.9537 38.9273 55.9812 38.8792L59.0388 33.5793C59.0664 33.5313 59.1119 33.4963 59.1653 33.4818C59.2188 33.4674 59.2757 33.4748 59.3237 33.5024C59.3717 33.5299 59.4068 33.5755 59.4212 33.6289C59.4357 33.6823 59.4283 33.7393 59.4007 33.7873L56.3473 39.1038C56.3264 39.1334 56.2981 39.157 56.2653 39.1724C56.2324 39.1877 56.1962 39.1942 56.1601 39.1912Z" fill="#2FB8A6"/>
<path d="M127.849 172.17C127.413 163.463 128.265 154.74 130.378 146.282L130.794 146.382C128.692 154.8 127.843 163.483 128.274 172.149L127.849 172.17Z" fill="#2FB8A6"/>
<path d="M128.635 145.975C128.635 146.748 129.351 149.498 130.129 149.477C130.907 149.457 131.468 146.682 131.448 145.904C131.443 145.719 131.402 145.537 131.327 145.368C131.252 145.2 131.145 145.047 131.011 144.92C130.877 144.793 130.719 144.693 130.547 144.627C130.375 144.56 130.191 144.529 130.006 144.533C129.822 144.538 129.64 144.579 129.471 144.654C129.302 144.729 129.15 144.836 129.022 144.97C128.895 145.104 128.795 145.261 128.729 145.434C128.663 145.606 128.631 145.79 128.635 145.975Z" fill="#2FB8A6"/>
<path d="M131.66 154.707C131.66 153.929 130.944 151.183 130.171 151.2C129.397 151.216 128.831 153.995 128.848 154.773C128.852 154.958 128.893 155.14 128.968 155.309C129.042 155.478 129.149 155.63 129.283 155.758C129.417 155.885 129.574 155.985 129.747 156.052C129.919 156.118 130.102 156.15 130.287 156.146C130.472 156.142 130.654 156.101 130.823 156.026C130.992 155.952 131.144 155.844 131.272 155.711C131.399 155.577 131.499 155.42 131.566 155.247C131.632 155.075 131.664 154.891 131.66 154.707Z" fill="#2FB8A6"/>
<path d="M125.782 151.84C126.56 151.84 129.305 151.125 129.285 150.347C129.264 149.569 126.493 149.007 125.715 149.028C125.531 149.032 125.349 149.073 125.18 149.148C125.011 149.222 124.858 149.33 124.731 149.463C124.603 149.597 124.503 149.754 124.437 149.927C124.37 150.099 124.338 150.283 124.342 150.467C124.347 150.652 124.388 150.834 124.462 151.003C124.537 151.172 124.644 151.324 124.778 151.452C124.911 151.579 125.069 151.679 125.241 151.746C125.413 151.812 125.597 151.844 125.782 151.84Z" fill="#2FB8A6"/>
<path d="M134.514 148.829C133.74 148.829 130.99 149.544 131.011 150.318C131.032 151.092 133.806 151.657 134.584 151.641C134.769 151.636 134.951 151.595 135.12 151.52C135.289 151.445 135.441 151.338 135.568 151.204C135.695 151.07 135.795 150.912 135.862 150.74C135.928 150.568 135.96 150.384 135.955 150.199C135.95 150.015 135.909 149.833 135.834 149.664C135.76 149.495 135.652 149.343 135.518 149.215C135.384 149.088 135.227 148.988 135.054 148.922C134.882 148.856 134.698 148.824 134.514 148.829Z" fill="#2FB8A6"/>
<path d="M125.99 148.321C126.556 148.858 128.989 150.309 129.526 149.744C130.062 149.178 128.494 146.832 127.932 146.287C127.663 146.029 127.302 145.889 126.929 145.898C126.556 145.906 126.202 146.063 125.944 146.333C125.686 146.602 125.546 146.963 125.555 147.336C125.564 147.709 125.72 148.063 125.99 148.321Z" fill="#2FB8A6"/>
<path d="M134.306 152.356C133.744 151.819 131.31 150.372 130.774 150.933C130.237 151.495 131.801 153.845 132.363 154.395C132.497 154.522 132.654 154.622 132.827 154.689C132.999 154.755 133.183 154.787 133.368 154.783C133.553 154.778 133.735 154.738 133.904 154.663C134.073 154.588 134.226 154.481 134.353 154.347C134.481 154.213 134.581 154.055 134.648 153.883C134.714 153.71 134.746 153.526 134.742 153.341C134.737 153.157 134.697 152.974 134.622 152.805C134.547 152.636 134.439 152.484 134.306 152.356Z" fill="#2FB8A6"/>
<path d="M128.128 154.498C128.665 153.932 130.112 151.499 129.551 150.962C128.989 150.426 126.639 151.994 126.09 152.556C125.832 152.826 125.692 153.187 125.701 153.561C125.71 153.934 125.867 154.288 126.138 154.546C126.408 154.804 126.769 154.943 127.143 154.934C127.516 154.925 127.87 154.769 128.128 154.498Z" fill="#2FB8A6"/>
<path d="M132.167 146.183C131.631 146.744 130.179 149.178 130.745 149.714C131.31 150.251 133.657 148.687 134.202 148.125C134.329 147.992 134.429 147.834 134.496 147.662C134.563 147.49 134.595 147.306 134.591 147.122C134.586 146.937 134.546 146.755 134.471 146.586C134.397 146.417 134.289 146.264 134.156 146.137C134.022 146.009 133.865 145.909 133.693 145.843C133.52 145.776 133.337 145.744 133.152 145.748C132.967 145.752 132.785 145.793 132.616 145.867C132.448 145.942 132.295 146.049 132.167 146.183Z" fill="#2FB8A6"/>
<path d="M128.481 150.38C128.49 150.709 128.595 151.028 128.785 151.296C128.974 151.565 129.239 151.772 129.546 151.89C129.853 152.009 130.188 152.033 130.509 151.962C130.83 151.89 131.122 151.724 131.349 151.486C131.576 151.248 131.727 150.948 131.784 150.624C131.841 150.3 131.8 149.967 131.667 149.666C131.534 149.365 131.315 149.11 131.038 148.934C130.76 148.757 130.437 148.667 130.108 148.674C129.889 148.679 129.673 148.727 129.473 148.815C129.273 148.904 129.092 149.031 128.941 149.189C128.79 149.348 128.671 149.535 128.592 149.739C128.514 149.943 128.476 150.161 128.481 150.38Z" fill="white"/>
<path d="M128.244 162.76C128.244 162.76 128.531 158.513 130.865 157.843C133.199 157.173 134.052 156.258 134.052 156.258C134.052 156.258 133.815 162.844 128.244 162.76Z" fill="#2FB8A6"/>
<path opacity="0.5" d="M128.244 162.76C128.244 162.76 128.531 158.513 130.865 157.843C133.199 157.173 134.052 156.258 134.052 156.258C134.052 156.258 133.815 162.844 128.244 162.76Z" fill="white"/>
<path d="M127.937 166.013C127.937 166.013 127.65 161.766 125.316 161.092C122.982 160.418 122.129 159.511 122.129 159.511C122.129 159.511 122.367 166.097 127.937 166.013Z" fill="#2FB8A6"/>
<path opacity="0.5" d="M127.937 166.013C127.937 166.013 127.65 161.766 125.316 161.092C122.982 160.418 122.129 159.511 122.129 159.511C122.129 159.511 122.367 166.097 127.937 166.013Z" fill="white"/>
<path d="M136.739 174.862C136.739 178.19 132.791 180.86 127.924 180.86C123.057 180.86 119.109 178.177 119.109 174.862C119.109 173.198 120.12 171.667 121.755 170.581C122.785 169.909 123.93 169.432 125.133 169.175H130.716C131.949 169.44 133.122 169.936 134.172 170.635C135.762 171.721 136.739 173.21 136.739 174.862Z" fill="#2FB8A6"/>
<path opacity="0.8" d="M130.716 169.175C131.949 169.44 133.122 169.936 134.172 170.635C135.762 171.721 136.739 173.21 136.739 174.862C136.739 178.19 132.791 180.86 127.924 180.86C123.057 180.86 119.109 178.177 119.109 174.862C119.109 173.198 120.12 171.667 121.755 170.581C122.785 169.909 123.93 169.432 125.133 169.175H130.716Z" fill="white"/>
<path d="M128.157 169.716H127.741V172.682H128.157V169.716Z" fill="#2FB8A6"/>
<path d="M134.559 169.083L134.094 170.539L134.085 170.556H121.759L121.734 170.477L121.289 169.083H134.559Z" fill="#2FB8A6"/>
<path d="M135.699 176.068C134.816 177.292 133.656 178.29 132.313 178.98C130.196 180.103 121.289 180.39 120.27 175.34C120.27 175.269 120.232 175.199 120.22 175.128C120.175 174.815 120.202 174.496 120.299 174.196C120.396 173.895 120.561 173.621 120.779 173.393C120.998 173.165 121.266 172.99 121.563 172.881C121.859 172.773 122.177 172.733 122.491 172.765C123.336 172.822 124.184 172.774 125.016 172.624C128.214 172.139 131.477 172.313 134.605 173.135C134.901 173.214 135.175 173.362 135.402 173.568C135.629 173.774 135.803 174.032 135.911 174.319C136.018 174.606 136.054 174.915 136.018 175.219C135.981 175.524 135.872 175.815 135.699 176.068Z" fill="#263238"/>
<path d="M71.7641 174.387C71.842 174.357 71.911 174.307 71.9647 174.244C72.0185 174.18 72.0554 174.103 72.072 174.021C72.0878 173.972 72.09 173.919 72.0783 173.869C72.0666 173.818 72.0414 173.772 72.0054 173.734C71.6851 173.401 70.383 173.639 70.2374 173.668C70.2205 173.669 70.2044 173.676 70.1917 173.687C70.179 173.698 70.1702 173.713 70.1667 173.73C70.1634 173.746 70.1647 173.763 70.1706 173.779C70.1765 173.794 70.1867 173.807 70.1999 173.817C70.4596 174.007 70.7384 174.169 71.032 174.3C71.2582 174.414 71.5174 174.445 71.7641 174.387ZM71.8806 173.851C71.8959 173.868 71.9063 173.889 71.9107 173.912C71.9151 173.934 71.9133 173.958 71.9056 173.98C71.896 174.034 71.8726 174.085 71.8377 174.128C71.8027 174.171 71.7573 174.205 71.7059 174.225C71.4688 174.312 71.0153 174.15 70.4579 173.809C70.9987 173.718 71.71 173.672 71.8806 173.851Z" fill="#2FB8A6"/>
<path d="M70.2623 173.834C70.6783 173.784 71.5769 173.314 71.656 172.906C71.6698 172.84 71.6599 172.77 71.628 172.71C71.596 172.65 71.5441 172.603 71.4812 172.578C71.4226 172.545 71.3577 172.526 71.291 172.521C71.2242 172.516 71.1571 172.525 71.0943 172.548C70.5951 172.719 70.1875 173.676 70.1708 173.717C70.1648 173.73 70.1617 173.745 70.1617 173.759C70.1617 173.773 70.1648 173.788 70.1708 173.801C70.1805 173.813 70.1934 173.823 70.2083 173.83L70.2623 173.834ZM71.3939 172.727C71.4937 172.781 71.4979 172.836 71.4896 172.873C71.4396 173.123 70.8281 173.509 70.3996 173.63C70.5535 173.318 70.8531 172.798 71.1526 172.707C71.2192 172.679 71.2939 172.679 71.3606 172.707L71.3939 172.727Z" fill="#2FB8A6"/>
<path d="M66.3146 172.157L69.7008 173.526L72.6586 165.701L69.2682 164.333L66.3146 172.157Z" fill="#FFB573"/>
<path d="M70.1293 173.247L66.327 171.712C66.2623 171.684 66.1894 171.68 66.1221 171.702C66.0547 171.723 65.9974 171.768 65.961 171.829L64.297 174.616C64.2576 174.688 64.2341 174.767 64.2279 174.848C64.2216 174.93 64.2329 175.012 64.2608 175.089C64.2888 175.165 64.3328 175.235 64.39 175.294C64.4472 175.352 64.5161 175.398 64.5923 175.427C65.9318 175.943 66.6016 176.122 68.2739 176.8C69.3056 177.216 70.7699 177.927 72.1843 178.506C73.5987 179.084 74.2643 177.728 73.7194 177.362C71.3024 175.727 71.2234 174.782 70.6202 173.684C70.5127 173.486 70.339 173.331 70.1293 173.247Z" fill="#263238"/>
<path d="M72.6128 169.541L66.7306 167.161L67.2714 165.006L73.5821 167.315L72.6128 169.541Z" fill="#2FB8A6"/>
<path d="M78.5034 78.9691C77.3094 82.4261 73.7776 90.5631 71.0528 87.1727C70.5623 86.5738 70.1615 85.9067 69.863 85.1925C68.7107 82.3429 68.4237 77.7253 68.2781 76.7144L67.3504 73.5487C67.334 73.4947 67.3256 73.4386 67.3254 73.3823V71.5727C67.3254 70.8405 67.9162 70.4037 68.7149 70.4702C68.7149 70.4702 70.0045 70.3205 70.0045 71.0901L70.2541 73.8066C70.383 74.7509 70.0086 76.0655 70.2291 76.9307C71.0611 80.188 72.2051 80.3378 72.9248 83.6991C73.9274 81.2738 75.7203 77.0763 75.7203 77.0763C76.9101 77.2261 78.8944 77.8335 78.5034 78.9691Z" fill="#FFB573"/>
<path d="M74.2353 88.4124C74.0481 88.7043 73.7929 88.9464 73.4915 89.1179C73.1902 89.2894 72.8517 89.3852 72.5052 89.397C72.1586 89.4089 71.8144 89.3365 71.502 89.186C71.1896 89.0355 70.9184 88.8114 70.7117 88.533C70.2186 87.8778 69.8312 87.1492 69.5636 86.374C68.482 82.8255 67.8122 80.629 67.7207 76.9225C68.104 76.5351 68.5883 76.2631 69.1185 76.1374C69.6488 76.0116 70.2036 76.0372 70.7201 76.2111L72.4922 82.214C72.4922 82.214 76.099 73.2492 77.5591 72.9289C79.2772 72.5503 79.9927 74.0854 80.7207 75.974C81.2449 77.3302 76.5857 84.789 74.2353 88.4124Z" fill="#2FB8A6"/>
<path d="M88.8077 63.9556C88.3917 66.0356 87.4848 70.5783 88.9408 71.9677C88.9408 71.9677 88.3709 74.0769 84.5062 74.0769C80.2505 74.0769 82.472 71.9677 82.472 71.9677C84.7933 71.4144 84.7309 69.6922 84.3273 68.074L88.8077 63.9556Z" fill="#FFB573"/>
<path d="M82.3056 59.0717C82.3304 59.0756 82.3556 59.0756 82.3804 59.0717C82.4189 59.0505 82.4476 59.0154 82.4608 58.9736C82.474 58.9317 82.4705 58.8864 82.4512 58.8471C82.34 58.6081 82.1725 58.3996 81.9632 58.2395C81.7538 58.0793 81.5087 57.9724 81.2489 57.9277C81.2273 57.9248 81.2053 57.9263 81.1842 57.9321C81.1632 57.9379 81.1435 57.9479 81.1264 57.9615C81.1093 57.9751 81.0952 57.992 81.0848 58.0113C81.0744 58.0305 81.0679 58.0516 81.0659 58.0733C81.063 58.095 81.0645 58.117 81.0703 58.138C81.0761 58.1591 81.0861 58.1787 81.0997 58.1958C81.1133 58.2129 81.1302 58.2271 81.1494 58.2375C81.1686 58.2479 81.1897 58.2543 81.2115 58.2563C81.4162 58.2963 81.6086 58.3842 81.7728 58.5129C81.9369 58.6417 82.0682 58.8075 82.1558 58.9968C82.1719 59.0214 82.1943 59.0413 82.2206 59.0545C82.2469 59.0676 82.2762 59.0736 82.3056 59.0717Z" fill="#263238"/>
<path d="M81.0369 60.8691C80.7077 61.4774 80.2961 62.0373 79.8138 62.5331C79.9445 62.6529 80.0995 62.7428 80.2683 62.7966C80.4371 62.8505 80.6156 62.8671 80.7915 62.8451L81.0369 60.8691Z" fill="#ED893E"/>
<path d="M81.3696 60.2615C81.432 60.5361 81.3321 60.794 81.1533 60.8314C80.9744 60.8689 80.7747 60.6775 80.7165 60.4154C80.6582 60.1533 80.7539 59.8829 80.9369 59.8413C81.12 59.7997 81.3113 59.9828 81.3696 60.2615Z" fill="#263238"/>
<path d="M81.0202 59.8292L80.313 59.7793C80.313 59.7793 80.7664 60.2244 81.0202 59.8292Z" fill="#263238"/>
<path opacity="0.2" d="M78.3536 77.1968C79.0899 76.5187 79.6016 76.7226 79.9261 77.2592C80.263 78.815 78.2621 82.0765 77.4758 83.312L78.3536 77.1968Z" fill="black"/>
<path d="M95.3888 79.2481C95.2931 80.962 95.1309 83.1211 94.8688 85.8375C94.5942 88.7038 94.2032 92.1857 93.6665 96.4164C88.0131 96.4164 82.0934 96.3291 79.3436 96.3291C79.5766 90.7089 79.6598 85.0139 77.1388 73.8318C77.1072 73.6932 77.1038 73.5496 77.1288 73.4096C77.1538 73.2696 77.2067 73.1361 77.2843 73.017C77.3619 72.8978 77.4627 72.7955 77.5806 72.7161C77.6986 72.6367 77.8313 72.5818 77.9708 72.5547C79.6142 72.2567 81.2745 72.0608 82.942 71.9681C85.0956 71.814 87.2573 71.814 89.4109 71.9681C92.1856 72.2219 95.3389 72.8667 95.3389 72.8667C95.3389 72.8667 95.68 73.8983 95.3888 79.2481Z" fill="#2FB8A6"/>
<path opacity="0.2" d="M95.3888 79.2477C95.2931 80.9616 95.1309 83.1206 94.8688 85.8371C93.3462 84.0733 91.9069 77.9997 92.3728 75.9238C93.5077 76.7632 94.5055 77.7736 95.3306 78.919C95.356 79.0274 95.3754 79.1371 95.3888 79.2477Z" fill="black"/>
<path d="M110.07 86.8607L112.982 85.23L113.522 88.1961C113.522 88.1961 111.068 89.1404 109.778 88.4789L110.07 86.8607Z" fill="#FFB573"/>
<path d="M114.908 85.5667L115.111 86.536C115.141 86.6847 115.127 86.8388 115.07 86.9793C115.013 87.1198 114.916 87.2405 114.791 87.3264L113.51 88.1917L112.969 85.2256L113.972 84.976C114.072 84.9509 114.176 84.9464 114.278 84.9628C114.381 84.9791 114.478 85.016 114.566 85.0713C114.653 85.1265 114.729 85.1988 114.787 85.284C114.846 85.3692 114.887 85.4653 114.908 85.5667Z" fill="#FFB573"/>
<path d="M92.6016 76.3025C93.5292 78.1911 96.9321 85.3255 98.4256 86.9729L98.7209 87.2807L98.8665 87.4346C98.9164 87.4846 98.958 87.5303 99.0371 87.6011C99.3055 87.856 99.6013 88.0806 99.919 88.2708C100.486 88.5985 101.097 88.845 101.733 89.003C102.848 89.2616 103.992 89.3693 105.136 89.3233C107.266 89.2381 109.377 88.8802 111.417 88.2583L111.072 86.5278C110.111 86.611 109.104 86.6692 108.131 86.6859C107.166 86.7143 106.201 86.6837 105.24 86.5943C104.349 86.5304 103.469 86.3585 102.619 86.0826C102.276 85.9672 101.951 85.8034 101.654 85.5959C101.54 85.5161 101.435 85.424 101.342 85.3214C101.309 85.2874 101.278 85.2513 101.25 85.2132L101.142 85.0843L100.922 84.8263C99.7734 83.387 96.7408 76.4481 95.8297 74.7134L92.6016 76.3025Z" fill="#FFB573"/>
<path d="M110.024 89.814C107.626 91.0882 104.821 91.3605 102.224 90.5711C99.7455 89.7742 97.6549 88.0797 96.3621 85.8204C94.8604 83.6115 90.8626 77.3631 91.3701 75.7491C91.965 73.8188 93.2297 72.6207 95.3429 73.1407C96.8281 73.4985 99.661 80.7119 101.034 83.5948C101.57 84.3977 102.602 85.6748 103.754 86.0659C105.789 86.7689 107.286 86.4819 109.416 86.1615C109.807 86.3945 109.778 86.7564 109.974 87.1599C110.184 87.5693 110.297 88.0212 110.306 88.4812C110.314 88.9412 110.218 89.397 110.024 89.814Z" fill="#2FB8A6"/>
<path d="M90.9044 60.6236C90.2679 64.0431 90.0724 65.5032 88.1089 67.0591C85.1636 69.397 81.0993 67.8661 80.7041 64.3218C80.3463 61.1311 81.4487 56.0725 84.993 55.1199C85.7735 54.9057 86.5957 54.8947 87.3817 55.0878C88.1676 55.2809 88.8911 55.6718 89.4835 56.2233C90.0758 56.7747 90.5173 57.4685 90.766 58.2387C91.0147 59.0089 91.0623 59.8298 90.9044 60.6236Z" fill="#FFB573"/>
<path d="M103.043 79.5557C102.39 80.3003 102.186 80.733 101.275 81.1365C100.364 81.54 98.3923 81.1864 97.7642 80.4168C97.968 81.0158 99.1578 82.0808 99.7818 82.1765C99.0775 82.5627 98.2627 82.6973 97.4716 82.5582C96.6806 82.419 95.9606 82.0144 95.4304 81.411C95.5174 81.7862 95.6993 82.1328 95.9586 82.4176C96.2179 82.7024 96.546 82.9159 96.9114 83.0376C88.9408 83.2456 92.2979 79.4933 87.3059 74.156C81.7815 68.2488 82.9795 63.365 82.9795 63.365C82.9928 62.1486 82.6119 60.9606 81.8938 59.9787C81.0951 58.9554 81.328 57.5743 81.5818 56.8005C81.952 55.6648 83.0794 55.2655 84.161 55.1989C84.3523 54.0799 86.657 54.2837 86.9357 54.4709C87.2144 54.6581 87.2477 54.6207 87.5014 54.4709C88.063 54.109 89.4774 53.7346 90.9917 54.9576C91.9152 55.7064 92.9053 57.0376 92.9386 59.8997C92.9718 62.8658 91.5533 66.3893 96.4621 70.8946C99.3533 73.5403 97.968 79.2437 103.043 79.5557Z" fill="#263238"/>
<path d="M82.3222 60.8812C81.9355 61.4297 81.7746 62.106 81.873 62.7699C82.0144 63.6476 82.8672 63.7059 83.487 63.1443C84.1069 62.5827 84.6477 61.5676 84.1901 60.8396C83.7325 60.1116 82.8048 60.2156 82.3222 60.8812Z" fill="#FFB573"/>
<path d="M90.0431 96.4118C90.0431 96.4118 88.3417 120.294 86.4281 136.044C85.8526 140.771 84.4114 145.351 82.1766 149.556L72.7999 167.261L67.991 165.368C67.991 165.368 71.319 148.541 77.8044 139.364C77.8044 139.364 72.9538 111.937 79.302 96.3286L90.0431 96.4118Z" fill="#263238"/>
<path opacity="0.2" d="M83.5036 102.199C83.5036 102.199 84.9347 113.015 85.7168 119.45C82.784 115.581 80.5085 110.182 83.5036 102.199Z" fill="black"/>
<path d="M102.186 176.629C102.242 176.567 102.281 176.491 102.298 176.409C102.316 176.328 102.312 176.243 102.286 176.163C102.277 176.112 102.253 176.065 102.219 176.026C102.184 175.987 102.14 175.958 102.091 175.943C101.646 175.793 100.61 176.604 100.493 176.696C100.48 176.707 100.471 176.721 100.466 176.737C100.461 176.753 100.46 176.771 100.464 176.787C100.469 176.802 100.479 176.816 100.491 176.826C100.504 176.837 100.519 176.843 100.535 176.845C100.858 176.895 101.186 176.907 101.512 176.883C101.76 176.879 101.998 176.789 102.186 176.629ZM102.032 176.105C102.055 176.111 102.074 176.124 102.089 176.142C102.104 176.16 102.113 176.182 102.116 176.205C102.134 176.257 102.138 176.312 102.128 176.367C102.118 176.421 102.093 176.471 102.057 176.513C101.891 176.7 101.417 176.766 100.768 176.7C101.192 176.384 101.8 176.022 102.032 176.105Z" fill="#2FB8A6"/>
<path d="M100.597 176.833C100.926 176.604 101.512 175.768 101.387 175.373C101.368 175.307 101.326 175.25 101.269 175.212C101.212 175.173 101.144 175.155 101.075 175.161C101.009 175.159 100.943 175.171 100.882 175.197C100.821 175.223 100.767 175.262 100.722 175.31C100.36 175.693 100.456 176.725 100.46 176.771C100.462 176.785 100.468 176.799 100.477 176.812C100.485 176.824 100.497 176.834 100.51 176.841C100.525 176.845 100.54 176.845 100.555 176.841C100.57 176.843 100.584 176.84 100.597 176.833ZM101.071 175.331C101.184 175.331 101.213 175.381 101.225 175.419C101.296 175.664 100.942 176.284 100.622 176.588C100.574 176.187 100.652 175.781 100.847 175.427C100.894 175.374 100.959 175.342 101.03 175.335L101.071 175.331Z" fill="#2FB8A6"/>
<path d="M96.3124 177.17L99.9566 176.821L98.8417 168.542L95.1975 168.896L96.3124 177.17Z" fill="#FFB573"/>
<path d="M100.202 176.384L96.1084 176.779C96.038 176.784 95.972 176.815 95.9229 176.866C95.8738 176.916 95.845 176.983 95.8421 177.054L95.6924 180.286C95.6924 180.368 95.7098 180.449 95.7434 180.524C95.777 180.599 95.8261 180.666 95.8873 180.721C95.9486 180.775 96.0207 180.816 96.099 180.841C96.1772 180.866 96.2598 180.874 96.3413 180.864C97.7641 180.706 98.4213 180.557 100.243 180.382C101.35 180.274 102.981 180.232 104.512 180.086C106.042 179.941 105.972 178.443 105.344 178.368C102.432 178.04 101.895 177.249 100.855 176.546C100.663 176.418 100.432 176.361 100.202 176.384Z" fill="#263238"/>
<path d="M93.6458 96.4081C93.6458 96.4081 98.3092 124.908 99.2036 141.79L99.3741 172.033L95.601 172.769C95.601 172.769 90.1389 153.475 89.5066 142.322C87.8426 112.736 78.2039 112.686 84.0029 96.354L93.6458 96.4081Z" fill="#263238"/>
<path d="M100.626 172.157L94.3821 173.01L93.7456 170.614L100.422 169.745L100.626 172.157Z" fill="#2FB8A6"/>
<path d="M66.976 65.832H67.2131C67.1567 65.832 67.1008 65.8434 67.0489 65.8656C66.9971 65.8878 66.9502 65.9203 66.9113 65.9611C66.8724 66.002 66.8422 66.0503 66.8226 66.1032C66.8029 66.1561 66.7943 66.2125 66.7971 66.2688L67.1798 73.5114C67.1911 73.6251 67.2442 73.7305 67.3287 73.8073C67.4132 73.8841 67.5232 73.9269 67.6374 73.9274H67.392C67.278 73.926 67.1685 73.8829 67.0842 73.8063C66.9999 73.7296 66.9466 73.6247 66.9344 73.5114L66.56 66.2688C66.5571 66.2125 66.5658 66.1561 66.5855 66.1032C66.6051 66.0503 66.6353 66.002 66.6742 65.9611C66.7131 65.9203 66.7599 65.8878 66.8118 65.8656C66.8637 65.8434 66.9195 65.832 66.976 65.832Z" fill="#2FB8A6"/>
<path opacity="0.1" d="M66.976 65.832H67.2131C67.1567 65.832 67.1008 65.8434 67.0489 65.8656C66.9971 65.8878 66.9502 65.9203 66.9113 65.9611C66.8724 66.002 66.8422 66.0503 66.8226 66.1032C66.8029 66.1561 66.7943 66.2125 66.7971 66.2688L67.1798 73.5114C67.1911 73.6251 67.2442 73.7305 67.3287 73.8073C67.4132 73.8841 67.5232 73.9269 67.6374 73.9274H67.392C67.278 73.926 67.1685 73.8829 67.0842 73.8063C66.9999 73.7296 66.9466 73.6247 66.9344 73.5114L66.56 66.2688C66.5571 66.2125 66.5658 66.1561 66.5855 66.1032C66.6051 66.0503 66.6353 66.002 66.6742 65.9611C66.7131 65.9203 66.7599 65.8878 66.8118 65.8656C66.8637 65.8434 66.9195 65.832 66.976 65.832Z" fill="white"/>
<path d="M67.4544 73.9479H70.3664C70.4767 73.9479 70.5825 73.9041 70.6605 73.8261C70.7385 73.748 70.7824 73.6422 70.7824 73.5319L70.4038 66.2893C70.3965 66.1723 70.3453 66.0623 70.2605 65.9814C70.1757 65.9004 70.0634 65.8544 69.9462 65.8525H67.0342C66.9778 65.8525 66.9219 65.8639 66.87 65.8861C66.8182 65.9083 66.7713 65.9408 66.7324 65.9816C66.6935 66.0225 66.6633 66.0709 66.6437 66.1237C66.624 66.1766 66.6154 66.233 66.6182 66.2893L66.9968 73.5319C67.009 73.6452 67.0623 73.7501 67.1466 73.8268C67.2309 73.9034 67.3404 73.9465 67.4544 73.9479Z" fill="#2FB8A6"/>
<path opacity="0.4" d="M67.4544 73.9479H70.3664C70.4767 73.9479 70.5825 73.9041 70.6605 73.8261C70.7385 73.748 70.7824 73.6422 70.7824 73.5319L70.4038 66.2893C70.3965 66.1723 70.3453 66.0623 70.2605 65.9814C70.1757 65.9004 70.0634 65.8544 69.9462 65.8525H67.0342C66.9778 65.8525 66.9219 65.8639 66.87 65.8861C66.8182 65.9083 66.7713 65.9408 66.7324 65.9816C66.6935 66.0225 66.6633 66.0709 66.6437 66.1237C66.624 66.1766 66.6154 66.233 66.6182 66.2893L66.9968 73.5319C67.009 73.6452 67.0623 73.7501 67.1466 73.8268C67.2309 73.9034 67.3404 73.9465 67.4544 73.9479Z" fill="white"/>
<path d="M70.6077 73.3617C70.61 73.398 70.6049 73.4344 70.5927 73.4687C70.5806 73.503 70.5616 73.5345 70.537 73.5614C70.4847 73.6123 70.4145 73.6407 70.3415 73.6404H67.5085C67.4293 73.6395 67.3534 73.6084 67.2962 73.5535C67.239 73.4987 67.2049 73.4241 67.2007 73.345L66.8304 66.3188C66.8277 66.2831 66.8327 66.2472 66.8448 66.2135C66.857 66.1798 66.8762 66.149 66.9012 66.1233C66.9261 66.0965 66.9564 66.0753 66.9901 66.061C67.0238 66.0466 67.0601 66.0395 67.0967 66.0401H69.9296C70.0088 66.041 70.0847 66.0721 70.1419 66.1269C70.1991 66.1818 70.2332 66.2563 70.2375 66.3354L70.2624 66.8388L70.6077 73.3617Z" fill="#263238"/>
<g opacity="0.1">
<path opacity="0.1" d="M70.2623 66.8388L69.3222 73.6321H68.1948L69.2598 66.0317H69.9295C70.0088 66.0327 70.0847 66.0637 70.1418 66.1186C70.199 66.1734 70.2332 66.248 70.2374 66.3271L70.2623 66.8388Z" fill="white"/>
<path opacity="0.1" d="M67.7872 73.6408H67.5334L68.5984 66.0405H68.8522L67.7872 73.6408Z" fill="white"/>
</g>
<path d="M78.4243 97.2192C76.3062 101.394 75.168 105.996 75.0963 110.677C82.1683 116.164 88.7536 109.737 96.8489 110.822C96.5661 107.166 95.3222 100.422 93.8496 97.0445C88.4874 97.2733 83.4787 96.7366 78.4243 97.2192Z" fill="#2FB8A6"/>
<path d="M79.1606 95.7338C79.1606 95.7338 78.5907 97.2023 78.7446 97.2023H93.6C93.729 97.2023 93.833 97.1399 93.8413 97.0567L93.9702 95.8087C93.9702 95.7213 93.8662 95.6465 93.729 95.6465H79.3936C79.3506 95.6406 79.3068 95.6455 79.2661 95.6607C79.2254 95.676 79.1892 95.7011 79.1606 95.7338Z" fill="white"/>
<path d="M81.2531 97.3439H80.8704C80.7913 97.3439 80.7331 97.3023 80.7373 97.2523L80.9203 95.5883C80.9203 95.5384 80.991 95.501 81.0659 95.501H81.4528C81.5277 95.501 81.5859 95.5384 81.5818 95.5883L81.4029 97.2523C81.3913 97.2818 81.3704 97.3067 81.3433 97.3232C81.3163 97.3397 81.2846 97.347 81.2531 97.3439Z" fill="#2FB8A6"/>
<path d="M90.5549 97.3439H90.1721C90.0973 97.3439 90.039 97.3023 90.0432 97.2523L90.2221 95.5883C90.2221 95.5384 90.2928 95.501 90.3718 95.501H90.7545C90.8294 95.501 90.8877 95.5384 90.8835 95.5883L90.7046 97.2523C90.688 97.2856 90.6339 97.3439 90.5549 97.3439Z" fill="#2FB8A6"/>
</svg>
