<svg width="290" height="285" viewBox="0 0 290 285" fill="none" xmlns="http://www.w3.org/2000/svg">
<path d="M239.494 81.8974L245.102 85.3174L246.164 83.6074C246.318 83.3658 246.537 83.1712 246.797 83.0453C247.057 82.9194 247.348 82.8674 247.637 82.8949C247.965 82.912 248.294 82.912 248.623 82.8949C248.913 82.887 249.199 82.9578 249.451 83.0996C249.703 83.2414 249.91 83.4486 250.05 83.6986L251.001 85.4485L256.801 82.3819L255.844 80.6377C255.709 80.3854 255.647 80.1013 255.665 79.8167C255.684 79.5321 255.782 79.258 255.948 79.0246C256.139 78.7594 256.313 78.4834 256.47 78.1981C256.609 77.948 256.814 77.7401 257.065 77.5973C257.316 77.4546 257.602 77.3824 257.891 77.3887L259.91 77.4514L260.118 70.9705L258.088 70.9135C257.798 70.901 257.517 70.8097 257.277 70.6497C257.036 70.4897 256.845 70.2673 256.725 70.0072C256.656 69.8647 256.586 69.7222 256.505 69.5854C256.424 69.4486 256.348 69.3061 256.267 69.1693C256.115 68.9268 256.035 68.6475 256.035 68.3628C256.035 68.078 256.115 67.7988 256.267 67.5562L257.34 65.8462L251.732 62.4262L250.664 64.1362C250.51 64.3775 250.29 64.5722 250.031 64.6989C249.771 64.8256 249.48 64.8794 249.191 64.8544C248.863 64.8259 248.534 64.8145 248.205 64.8202C247.916 64.8284 247.63 64.7576 247.379 64.6157C247.128 64.4738 246.922 64.2664 246.784 64.0165L245.833 62.2666L240.033 65.3332L240.99 67.0831C241.125 67.3347 241.186 67.6183 241.167 67.9022C241.148 68.1861 241.048 68.459 240.88 68.6905C240.692 68.9543 240.52 69.2284 240.364 69.5113C240.227 69.7634 240.022 69.9731 239.771 70.117C239.52 70.261 239.233 70.3335 238.943 70.3264L236.918 70.2637L236.715 76.7446L238.74 76.8016C239.037 76.8159 239.324 76.9122 239.568 77.0795C239.812 77.2469 240.004 77.4785 240.12 77.7478C240.19 77.8903 240.259 78.0328 240.34 78.1753C240.422 78.3178 240.497 78.4546 240.578 78.5914C240.73 78.834 240.81 79.1132 240.81 79.398C240.81 79.6827 240.73 79.962 240.578 80.2045L239.494 81.8974ZM243.658 76.4083C243.155 75.4828 242.943 74.4315 243.047 73.3873C243.152 72.3432 243.57 71.353 244.247 70.5419C244.924 69.7308 245.831 69.1353 246.853 68.8305C247.874 68.5257 248.965 68.5254 249.987 68.8296C251.008 69.1338 251.916 69.7289 252.593 70.5396C253.271 71.3502 253.689 72.3402 253.794 73.3843C253.9 74.4284 253.688 75.4798 253.186 76.4056C252.683 77.3314 251.913 78.0901 250.972 78.5857C250.346 78.916 249.661 79.1216 248.954 79.1909C248.248 79.2602 247.534 79.1917 246.855 78.9894C246.175 78.7871 245.543 78.455 244.995 78.0121C244.446 77.5691 243.992 77.0241 243.658 76.4083Z" fill="#EBEBEB"/>
<path d="M255.954 116.599L258.274 120.538L259.504 119.837C259.682 119.737 259.885 119.688 260.089 119.695C260.294 119.702 260.493 119.765 260.664 119.877C260.85 120.001 261.044 120.115 261.244 120.219C261.42 120.311 261.567 120.449 261.669 120.618C261.772 120.787 261.825 120.98 261.824 121.176V122.55H266.464V121.159C266.465 120.96 266.523 120.765 266.63 120.596C266.738 120.426 266.891 120.29 267.073 120.201C267.272 120.098 267.466 119.984 267.653 119.859C267.824 119.749 268.022 119.686 268.227 119.679C268.432 119.672 268.634 119.721 268.813 119.82L270.036 120.521L272.356 116.582L271.127 115.887C270.952 115.786 270.809 115.639 270.713 115.463C270.618 115.287 270.575 115.088 270.587 114.889C270.587 114.775 270.587 114.667 270.587 114.553C270.587 114.439 270.587 114.33 270.587 114.216C270.573 114.018 270.616 113.819 270.71 113.643C270.804 113.467 270.947 113.32 271.121 113.219L272.356 112.518L270.036 108.585L268.807 109.28C268.629 109.382 268.426 109.432 268.221 109.425C268.016 109.418 267.817 109.354 267.647 109.24C267.455 109.121 267.258 109.007 267.067 108.904C266.885 108.815 266.733 108.678 266.625 108.509C266.518 108.34 266.46 108.146 266.458 107.946V106.59H261.818V107.981C261.819 108.177 261.765 108.37 261.663 108.538C261.561 108.707 261.414 108.845 261.238 108.938C261.035 109.041 260.838 109.155 260.658 109.275C260.488 109.388 260.289 109.452 260.084 109.459C259.878 109.466 259.675 109.416 259.498 109.314L258.268 108.619L255.948 112.552L257.178 113.253C257.353 113.353 257.496 113.5 257.591 113.676C257.685 113.853 257.727 114.052 257.711 114.251C257.711 114.359 257.711 114.473 257.711 114.587C257.711 114.701 257.711 114.809 257.711 114.923C257.726 115.122 257.684 115.321 257.59 115.497C257.495 115.673 257.353 115.82 257.178 115.921L255.954 116.599ZM260.374 114.57C260.374 113.833 260.596 113.114 261.012 112.501C261.429 111.889 262.021 111.412 262.713 111.131C263.405 110.849 264.167 110.776 264.902 110.92C265.637 111.064 266.312 111.419 266.841 111.94C267.371 112.461 267.731 113.125 267.876 113.847C268.022 114.57 267.946 115.318 267.658 115.998C267.371 116.678 266.885 117.259 266.261 117.667C265.637 118.076 264.905 118.293 264.155 118.292C263.658 118.292 263.166 118.196 262.707 118.009C262.248 117.821 261.83 117.547 261.479 117.201C261.128 116.856 260.849 116.445 260.66 115.994C260.47 115.542 260.373 115.058 260.374 114.57Z" fill="#EBEBEB"/>
<path d="M17.6378 187.866L19.9578 191.799L21.1816 191.104C21.3591 191.003 21.5616 190.953 21.7666 190.959C21.9715 190.965 22.1706 191.027 22.3416 191.138C22.5284 191.262 22.722 191.376 22.9216 191.48C23.0979 191.572 23.2452 191.711 23.3474 191.879C23.4496 192.048 23.5029 192.241 23.5016 192.438V193.828H28.1416V192.438C28.143 192.238 28.2007 192.043 28.3082 191.874C28.4157 191.705 28.5689 191.569 28.7506 191.48C28.9502 191.376 29.1438 191.262 29.3306 191.138C29.5011 191.025 29.7004 190.963 29.9056 190.957C30.1108 190.951 30.3136 191.002 30.4906 191.104L31.7202 191.799L34.0402 187.866L32.8106 187.165C32.6342 187.066 32.4899 186.919 32.3945 186.743C32.299 186.566 32.2563 186.367 32.2712 186.168C32.2712 186.054 32.2712 185.945 32.2712 185.831C32.2712 185.717 32.2712 185.609 32.2712 185.495C32.2571 185.296 32.2996 185.098 32.3938 184.922C32.4881 184.746 32.6304 184.599 32.8048 184.497L34.0402 183.802L31.7202 179.863L30.4906 180.564C30.3122 180.663 30.1095 180.712 29.9049 180.705C29.7002 180.698 29.5015 180.635 29.3306 180.525C29.1439 180.4 28.9503 180.286 28.7506 180.183C28.5689 180.094 28.4157 179.958 28.3082 179.788C28.2007 179.619 28.143 179.424 28.1416 179.225V177.84H23.5016V179.231C23.5029 179.427 23.4496 179.62 23.3474 179.789C23.2452 179.958 23.0979 180.096 22.9216 180.188C22.722 180.292 22.5283 180.406 22.3416 180.53C22.1707 180.641 21.972 180.703 21.7673 180.71C21.5627 180.717 21.36 180.669 21.1816 180.57L19.952 179.869L17.632 183.808L18.8616 184.503C19.036 184.604 19.1784 184.751 19.2726 184.927C19.3669 185.104 19.4093 185.302 19.3952 185.501C19.3952 185.615 19.3952 185.723 19.3952 185.837C19.3952 185.951 19.3952 186.059 19.3952 186.173C19.4091 186.373 19.3666 186.572 19.2724 186.749C19.1782 186.926 19.036 187.074 18.8616 187.176L17.6378 187.866ZM22.04 185.82C22.04 185.083 22.2623 184.364 22.6787 183.751C23.0951 183.139 23.687 182.662 24.3794 182.381C25.0718 182.099 25.8336 182.026 26.5684 182.17C27.3033 182.314 27.9781 182.669 28.5076 183.19C29.037 183.711 29.3973 184.375 29.5427 185.097C29.6882 185.82 29.6124 186.568 29.3248 187.248C29.0373 187.928 28.5509 188.509 27.9273 188.917C27.3038 189.326 26.5709 189.543 25.8216 189.542C25.3245 189.542 24.8323 189.446 24.3731 189.259C23.9139 189.071 23.4968 188.797 23.1456 188.451C22.7943 188.106 22.5159 187.695 22.3262 187.244C22.1365 186.792 22.0392 186.308 22.04 185.82Z" fill="#EBEBEB"/>
<path d="M44.7876 0H44.2076V47.7489H44.7876V0Z" fill="#C7C7C7"/>
<path d="M61.3698 63.7316L60.0126 66.6614H28.9826L27.6254 63.7316L40.8378 54.7427H48.1574L61.3698 63.7316Z" fill="#EBEBEB"/>
<path d="M49.0738 46.0845L48.1574 54.7428H40.8378L39.9214 46.0845H49.0738Z" fill="#DBDBDB"/>
<path d="M61.3698 63.7319L60.0126 66.6617H28.9768L27.6254 63.7319H61.3698Z" fill="#DBDBDB"/>
<path d="M85.5906 0H85.0106V38.2926H85.5906V0Z" fill="#C7C7C7"/>
<path d="M102.173 54.2698L100.816 57.2053H69.7798L68.4284 54.2698L81.6408 45.2866H88.9604L102.173 54.2698Z" fill="#EBEBEB"/>
<path d="M89.8768 36.6284L88.9604 45.2867H81.6408L80.7244 36.6284H89.8768Z" fill="#DBDBDB"/>
<path d="M102.167 54.2754L100.81 57.2052H69.7798L68.4284 54.2754H102.167Z" fill="#DBDBDB"/>
<path d="M210.581 155.992H187.386V177.897H210.581V155.992Z" fill="#EBEBEB"/>
<path d="M219.397 155.992H210.581V177.897H219.397V155.992Z" fill="#C7C7C7"/>
<path d="M187.386 166.947H210.581L192.467 167.512L187.386 166.947Z" fill="#C7C7C7"/>
<path d="M210.581 175.252H187.386L205.5 175.816L210.581 175.252Z" fill="#C7C7C7"/>
<path d="M187.386 160.826H202.078L189.016 161.287L187.386 160.826Z" fill="#C7C7C7"/>
<path d="M210.581 172.032H195.889L208.951 172.488L210.581 172.032Z" fill="#C7C7C7"/>
<path d="M192.949 158.386H209.525L206.758 158.665L192.949 158.386Z" fill="#C7C7C7"/>
<path d="M189.643 169.296H206.213L203.452 169.57L189.643 169.296Z" fill="#C7C7C7"/>
<path d="M199.833 162.912H210.581L212.5 163.647L199.833 162.912Z" fill="#EBEBEB"/>
<path d="M184.423 162.912H195.176L197.096 163.647L184.423 162.912Z" fill="#EBEBEB"/>
<path d="M198.221 172.755H187.468L185.548 173.491L198.221 172.755Z" fill="#EBEBEB"/>
<path d="M210.581 170.253H219.211L221.137 170.994L210.581 170.253Z" fill="#C7C7C7"/>
<path d="M213.597 166.947H220.29L219.397 166.343L213.597 166.947Z" fill="#C7C7C7"/>
<path d="M176.053 220.653H244.603L246.807 177.903H173.849L176.053 220.653Z" fill="#EBEBEB"/>
<path d="M239.598 197.494H179.185L178.35 182.611H240.572L239.598 197.494ZM179.736 196.924H239.053L239.952 183.181H178.965L179.736 196.924Z" fill="#DBDBDB"/>
<path d="M238.78 214.571H180.919L180.241 201.13H239.633L238.78 214.571ZM181.47 214.001H238.235L239.018 201.7H180.85L181.47 214.001Z" fill="#DBDBDB"/>
<path d="M216.34 191.685H203.516L203.041 188.06H216.827L216.34 191.685ZM204.015 191.115H215.835L216.16 188.63H203.69L204.015 191.115Z" fill="#DBDBDB"/>
<path d="M216.34 209.658H203.516L203.041 206.038H216.827L216.34 209.658ZM204.015 209.088H215.835L216.16 206.608H203.69L204.015 209.088Z" fill="#DBDBDB"/>
<path d="M185.559 220.653L184.892 225.31L183.553 234.663H180.937V220.653H185.559Z" fill="#EBEBEB"/>
<path d="M185.559 220.653L184.892 225.31H180.937V220.653H185.559Z" fill="#DBDBDB"/>
<path d="M235.097 220.653L235.758 225.31L237.098 234.663H239.72V220.653H235.097Z" fill="#EBEBEB"/>
<path d="M235.097 220.653L235.758 225.31H239.72V220.653H235.097Z" fill="#DBDBDB"/>
<path d="M145 268.042C210.026 268.042 262.74 262.155 262.74 254.893C262.74 247.63 210.026 241.743 145 241.743C79.974 241.743 27.26 247.63 27.26 254.893C27.26 262.155 79.974 268.042 145 268.042Z" fill="#EBEBEB"/>
<path d="M21.1526 235.114L52.113 234.977L83.0734 234.926L145 234.829L206.927 234.926L237.887 234.971L268.847 235.114L237.887 235.25L206.927 235.302L145 235.399L83.0734 235.302L52.113 235.25L21.1526 235.114Z" fill="#263238"/>
<path d="M89.6854 175.754C89.2439 178.761 89.4015 181.823 90.1494 184.771C90.5029 186.137 90.9724 187.472 91.553 188.761C92.2838 190.408 93.0494 192.022 92.8638 193.823C92.6898 193.942 93.293 193.925 93.3162 193.749C98.223 191.001 104.522 190.5 108.298 186.008C110.084 183.882 110.989 181.186 111.418 178.49C111.882 175.554 111.998 172.305 111.238 169.41C110.589 166.964 109.133 164.605 106.795 163.408C104.458 162.211 101.216 162.268 98.6754 163.048C93.1886 164.73 90.48 170.538 89.6854 175.754Z" fill="#2FB8A6"/>
<path d="M87.1682 211.47C87.8333 209.273 88.508 207.081 89.1924 204.892C90.538 200.606 91.9416 196.342 93.4902 192.113C94.4182 189.589 95.3984 187.085 96.4308 184.6C96.3175 183.037 96.1239 181.481 95.8508 179.937C95.4448 178.068 94.8474 176.261 94.2906 174.431C94.2558 174.317 94.4414 174.26 94.4878 174.368C95.5898 176.888 97.0282 180.114 97.0688 183.101C98.2636 180.296 99.5493 177.53 100.926 174.802C101.081 172.495 101.007 170.18 100.705 167.888C100.705 167.785 100.856 167.751 100.874 167.888C101.293 169.893 101.454 171.942 101.355 173.987C102.411 171.94 103.518 169.917 104.702 167.927C104.812 167.745 105.061 167.927 104.968 168.11C103.124 171.598 101.413 175.161 99.8064 178.775C102.067 176.849 104.679 175.361 107.503 174.391C107.625 174.351 107.718 174.522 107.596 174.574C104.513 175.876 101.692 177.71 99.267 179.989C98.107 182.649 97.0089 185.309 95.9726 187.969C99.0408 185.01 103.246 183.067 107.312 182.024C107.451 181.984 107.486 182.195 107.352 182.234C102.648 183.625 98.9944 186.224 95.4158 189.394C94.9982 190.48 94.5903 191.569 94.192 192.66C92.6724 196.792 91.2398 200.959 89.8594 205.137C89.1982 207.143 88.5486 209.15 87.9106 211.156C87.2262 213.322 86.6868 215.608 85.7936 217.694C85.7066 217.894 85.347 217.848 85.3934 217.609C85.8763 215.534 86.4687 213.484 87.1682 211.47Z" fill="#263238"/>
<path d="M95.3056 171.536C96.1793 172.849 96.7805 174.32 97.0746 175.862C97.0746 175.871 97.0709 175.88 97.0644 175.886C97.0579 175.893 97.049 175.896 97.0398 175.896C97.0306 175.896 97.0217 175.893 97.0152 175.886C97.0087 175.88 97.005 175.871 97.005 175.862C96.4578 174.409 95.8186 172.991 95.091 171.616C95.0156 171.496 95.2244 171.41 95.3056 171.536Z" fill="#263238"/>
<path d="M104.064 181.585C105.427 180.84 106.917 180.343 108.46 180.12C108.501 180.12 108.524 180.171 108.46 180.189C107.752 180.479 107.004 180.679 106.291 180.952C105.577 181.226 104.87 181.522 104.139 181.802C104.114 181.799 104.091 181.79 104.072 181.775C104.052 181.76 104.038 181.74 104.03 181.717C104.022 181.694 104.021 181.67 104.027 181.646C104.033 181.623 104.046 181.602 104.064 181.585Z" fill="#263238"/>
<path d="M106.534 169.495C106.976 169.162 107.45 168.874 107.95 168.634C107.965 168.629 107.983 168.628 107.999 168.634C108.015 168.639 108.029 168.649 108.038 168.663C108.047 168.677 108.052 168.693 108.05 168.71C108.049 168.726 108.042 168.742 108.031 168.754C107.597 169.096 107.128 169.394 106.633 169.643C106.546 169.7 106.442 169.552 106.534 169.495Z" fill="#263238"/>
<path d="M73.138 192.141C76.6702 193.173 80.2256 194.125 83.7636 195.145C84.0652 195.236 90.045 183.979 87.8874 178.182C86.8569 175.554 85.2437 173.185 83.165 171.246C81.0862 169.308 78.5941 167.849 75.8698 166.976C73.3468 166.132 70.238 165.425 67.5758 166.007C65.2036 166.52 63.5158 168.429 62.756 170.618C61.7062 173.599 62.06 177.15 62.6284 180.188C63.0841 183.044 64.2828 185.736 66.1084 188.003C67.9876 190.197 70.383 191.337 73.138 192.141Z" fill="#2FB8A6"/>
<path d="M68.0108 181.442C70.2548 182.517 72.5821 183.414 74.9708 184.127C76.5629 184.543 78.1154 185.094 79.6108 185.774C78.1202 182.502 76.4788 179.299 74.7388 176.124C72.4594 175.474 70.0582 174.46 68.3588 172.875C68.3441 172.861 68.3343 172.842 68.3307 172.823C68.3272 172.803 68.3301 172.782 68.3391 172.764C68.348 172.746 68.3626 172.73 68.3807 172.721C68.3988 172.711 68.4195 172.707 68.44 172.71C70.325 174.021 72.4014 174.802 74.4836 175.691C74.0157 174.836 73.5401 173.983 73.0568 173.132C72.9234 172.892 73.254 172.658 73.4164 172.886C75.2734 175.54 76.9513 178.31 78.4392 181.18C78.8172 178.665 78.9377 176.12 78.7988 173.582C78.7988 173.568 78.8043 173.555 78.8141 173.546C78.8239 173.536 78.8371 173.531 78.851 173.531C78.8648 173.531 78.8781 173.536 78.8879 173.546C78.8977 173.555 78.9032 173.568 78.9032 173.582C79.3471 176.349 79.3177 179.169 78.8162 181.927C80.0574 184.361 81.1884 186.851 82.2034 189.377C82.6036 187.86 83.1314 186.367 83.4794 184.817C84.0145 182.629 84.1849 180.371 83.984 178.13C83.984 178.117 83.9895 178.104 83.9993 178.094C84.0091 178.085 84.0223 178.079 84.0362 178.079C84.05 178.079 84.0633 178.085 84.0731 178.094C84.0829 178.104 84.0884 178.117 84.0884 178.13C84.7126 182.28 84.2001 186.518 82.6036 190.408C83.1836 191.93 83.7636 193.452 84.274 194.968C86.9387 202.758 88.5171 210.867 88.9662 219.074C88.9594 219.107 88.9409 219.137 88.914 219.159C88.887 219.181 88.8532 219.193 88.8183 219.193C88.7834 219.193 88.7496 219.181 88.7226 219.159C88.6957 219.137 88.6772 219.107 88.6704 219.074C87.7433 210.976 85.9787 202.993 83.404 195.248C82.3774 192.221 81.1942 189.28 79.924 186.395C77.836 185.786 75.7538 184.965 73.7064 184.264C71.6542 183.662 69.7178 182.729 67.976 181.505C67.86 181.511 67.9412 181.408 68.0108 181.442Z" fill="#263238"/>
<path d="M64.7164 178.176C66.8798 178.929 68.9272 179.989 71.0964 180.753C71.2008 180.793 71.1428 180.946 71.0384 180.929C68.7532 180.462 66.4854 179.789 64.6584 178.296C64.5656 178.239 64.641 178.148 64.7164 178.176Z" fill="#263238"/>
<path d="M82.36 173.588C82.331 173.48 82.4992 173.411 82.534 173.531C83.114 175.486 83.5374 177.566 82.9632 179.567C82.9585 179.584 82.9483 179.599 82.9341 179.61C82.92 179.62 82.9027 179.626 82.8849 179.626C82.8671 179.626 82.8498 179.62 82.8357 179.61C82.8215 179.599 82.8113 179.584 82.8066 179.567C82.7138 177.544 82.8298 175.56 82.36 173.588Z" fill="#263238"/>
<path d="M73.4338 169.068C74.1253 170.039 74.4569 171.214 74.3734 172.397C74.3734 172.471 74.2516 172.516 74.2284 172.425C73.9674 171.285 73.5266 170.282 73.1786 169.199C73.166 169.166 73.166 169.13 73.1786 169.098C73.1912 169.065 73.2155 169.038 73.247 169.022C73.2784 169.006 73.3148 169.002 73.3492 169.01C73.3837 169.019 73.4138 169.039 73.4338 169.068Z" fill="#263238"/>
<path d="M115.188 197.106C114.156 200.338 111.708 204.807 107.787 204.841C105.264 204.841 102.718 204.573 100.183 204.533C97.469 204.493 94.7488 204.499 92.0634 204.658C91.843 204.658 92.3882 196.678 98.9074 192.774C100.74 191.685 102.967 191.337 105.044 190.899C107.418 190.345 109.855 190.096 112.294 190.158C113.79 190.215 115.037 190.528 115.571 192.033C116.104 193.538 115.687 195.567 115.188 197.106Z" fill="#2FB8A6"/>
<path d="M112.381 193.059C110.797 193.458 109.197 193.92 107.607 194.416C108.022 193.972 108.461 193.551 108.924 193.156C109.603 192.586 110.357 192.153 111.087 191.663C111.151 191.623 111.116 191.509 111.035 191.537C109.494 192.167 108.162 193.207 107.19 194.541C105.206 195.174 103.246 195.869 101.355 196.627C100.048 197.154 98.7949 197.803 97.614 198.565C97.9946 197.757 98.4468 196.982 98.9654 196.251C99.8354 195.151 101.007 194.541 102.138 193.755C102.161 193.742 102.178 193.72 102.185 193.695C102.192 193.67 102.189 193.643 102.176 193.621C102.163 193.598 102.141 193.581 102.115 193.574C102.09 193.567 102.062 193.571 102.039 193.584C100.853 194.089 99.7875 194.832 98.9105 195.765C98.0336 196.699 97.3648 197.802 96.947 199.004C95.5898 199.96 94.35 201.068 93.2524 202.305C88.9314 207.121 85.5326 213.534 85.521 220.071C85.521 220.225 85.7762 220.271 85.8052 220.111C86.9162 213.7 89.7586 207.7 94.0354 202.738C94.3486 202.384 94.6618 202.042 94.9866 201.717C96.1692 201.561 97.3604 201.475 98.5536 201.461C99.9398 201.461 101.32 201.66 102.701 201.769C104.98 201.951 107.497 201.98 109.55 200.851C109.643 200.8 109.579 200.646 109.481 200.686C104.899 202.322 100.096 200.247 95.5086 201.222C97.4678 199.382 99.7648 197.926 102.277 196.929L102.695 196.764C105.635 197.112 108.738 197.864 111.598 196.924C111.613 196.917 111.626 196.906 111.633 196.891C111.641 196.876 111.643 196.859 111.638 196.843C111.634 196.827 111.624 196.813 111.61 196.804C111.596 196.795 111.58 196.791 111.563 196.793C108.796 197.471 106.146 196.616 103.443 196.479C106.418 195.339 109.446 194.439 112.427 193.31C112.648 193.23 112.653 192.991 112.381 193.059Z" fill="#263238"/>
<path d="M113.68 195.903C112.26 196.084 110.831 196.19 109.4 196.222C109.371 196.222 109.359 196.274 109.4 196.279C110.839 196.54 112.321 196.446 113.715 196.006C113.779 195.989 113.75 195.892 113.68 195.903Z" fill="#263238"/>
<path d="M104.017 193.127C103.228 193.48 102.511 193.971 101.9 194.575C101.825 194.643 101.929 194.775 102.01 194.712C102.37 194.455 102.735 194.216 103.112 193.977C103.466 193.783 103.809 193.569 104.139 193.338C104.159 193.319 104.172 193.293 104.176 193.266C104.18 193.239 104.175 193.211 104.161 193.187C104.147 193.162 104.125 193.144 104.099 193.133C104.073 193.122 104.044 193.12 104.017 193.127Z" fill="#263238"/>
<path d="M80.9854 203.536C81.0376 203.644 80.881 203.747 80.8172 203.633C80.8059 203.649 80.7913 203.663 80.7744 203.674C80.7574 203.685 80.7385 203.692 80.7186 203.695C78.0934 204.312 75.432 204.769 72.7494 205.063C70.5918 205.251 68.1094 205.371 66.2186 204.14C63.6608 202.47 61.9788 198.012 63.3592 195.185C64.9948 191.822 69.9248 193.646 72.4014 194.843C76.2081 196.666 79.2452 199.742 80.9854 203.536Z" fill="#2FB8A6"/>
<path d="M82.8994 205.092C81.4632 203.725 79.8667 202.531 78.1434 201.535C76.9052 199.603 75.2596 197.955 73.3178 196.701C73.225 196.639 73.1438 196.781 73.2308 196.849C74.7712 198.063 76.137 199.476 77.2908 201.05C75.3763 200.013 73.3874 199.114 71.34 198.36C70.6056 197.024 69.4911 195.926 68.1326 195.202C68.1326 195.202 68.0688 195.202 68.0978 195.242C69.2193 196.08 70.1982 197.089 70.9978 198.229C69.7856 197.784 68.5618 197.374 67.338 196.975C67.2278 196.935 67.1872 197.1 67.2916 197.14C69.4666 197.978 71.6996 198.85 73.8572 199.882C71.223 200.292 68.5395 200.292 65.9054 199.882C65.8912 199.879 65.8764 199.881 65.8638 199.888C65.8512 199.895 65.8418 199.907 65.8375 199.92C65.8331 199.934 65.8341 199.949 65.8402 199.962C65.8463 199.974 65.8572 199.985 65.8706 199.99C68.6189 200.79 71.5379 200.834 74.3096 200.116C75.6858 200.772 77.022 201.507 78.3116 202.316C77.2274 202.231 76.1363 202.319 75.081 202.578C73.2157 203.005 71.3063 203.217 69.3912 203.211C69.3216 203.211 69.3042 203.325 69.3912 203.336C72.6914 203.906 75.8118 202.418 79.0772 202.806C80.2907 203.617 81.4298 204.531 82.4818 205.536C84.5202 207.54 86.1988 209.868 87.4466 212.422C88.8212 215.175 89.5694 218.088 90.683 220.932C90.6864 220.945 90.6924 220.957 90.7007 220.968C90.709 220.979 90.7193 220.988 90.7312 220.995C90.743 221.002 90.7561 221.006 90.7698 221.008C90.7834 221.01 90.7973 221.009 90.8106 221.006C90.8239 221.003 90.8364 220.997 90.8475 220.989C90.8585 220.981 90.8677 220.97 90.8747 220.959C90.8817 220.947 90.8863 220.934 90.8883 220.921C90.8902 220.907 90.8894 220.894 90.886 220.881C89.9 215.272 87.058 209.087 82.8994 205.092Z" fill="#263238"/>
<path d="M72.9524 197.402C72.7347 197.022 72.45 196.682 72.1114 196.399C71.8347 196.103 71.5043 195.859 71.137 195.681C71.1305 195.68 71.1239 195.681 71.1179 195.684C71.1119 195.686 71.1068 195.691 71.1032 195.696C71.0995 195.701 71.0975 195.708 71.0973 195.714C71.0972 195.72 71.0989 195.727 71.1022 195.732C71.3748 196.034 71.7518 196.257 72.0418 196.547C72.3318 196.838 72.5812 197.174 72.877 197.459C72.8808 197.464 72.8856 197.468 72.891 197.471C72.8964 197.474 72.9024 197.476 72.9085 197.477C72.9147 197.478 72.921 197.478 72.9271 197.476C72.9331 197.474 72.9387 197.472 72.9437 197.468C72.9487 197.464 72.9528 197.46 72.9559 197.454C72.959 197.449 72.9611 197.443 72.9619 197.437C72.9627 197.431 72.9623 197.425 72.9606 197.419C72.959 197.413 72.9562 197.407 72.9524 197.402Z" fill="#263238"/>
<path d="M67.512 199.141C67.0248 199.021 66.5086 199.032 66.0098 198.93C65.5163 198.816 65.0302 198.673 64.554 198.502C64.5394 198.496 64.5229 198.496 64.5082 198.502C64.4936 198.508 64.4818 198.519 64.4757 198.534C64.4695 198.548 64.4694 198.564 64.4754 198.578C64.4814 198.593 64.493 198.604 64.5076 198.61C65.406 199.155 66.4614 199.396 67.512 199.294C67.5291 199.29 67.5443 199.28 67.5551 199.266C67.5658 199.252 67.5717 199.235 67.5717 199.218C67.5717 199.2 67.5658 199.183 67.5551 199.169C67.5443 199.155 67.5291 199.145 67.512 199.141Z" fill="#263238"/>
<path d="M96.4888 213.972L96.0538 218.8L94.5864 235.113H81.5886L79.75 218.8L79.2106 213.972H96.4888Z" fill="#455A64"/>
<path d="M96.4888 213.972L96.0538 218.8H79.75L79.2106 213.972H96.4888Z" fill="#263238"/>
<path d="M97.7764 212.65H77.923V216.572H97.7764V212.65Z" fill="#455A64"/>
<path d="M103.414 248.361H99.5222L126.782 141.024H136.474L103.414 248.361Z" fill="#455A64"/>
<path d="M126.782 141.029H136.474L128.922 165.545H120.559L126.782 141.029Z" fill="#263238"/>
<path d="M141.143 242.661H137.257L140.157 141.024H149.843L141.143 242.661Z" fill="#455A64"/>
<path d="M140.157 141.029H149.843L147.743 165.545H139.455L140.157 141.029Z" fill="#263238"/>
<path d="M179.046 248.361H182.938L161.478 141.024H151.786L179.046 248.361Z" fill="#455A64"/>
<path d="M166.379 165.545H158.009L151.786 141.029H161.478L166.379 165.545Z" fill="#263238"/>
<path d="M171.071 202.378H114.509V204.476H171.071V202.378Z" fill="#455A64"/>
<path d="M222.036 35.9385H67.9586V147.67H222.036V35.9385Z" fill="#EBEBEB"/>
<path d="M227.685 31.4868H62.321V39.7689H227.685V31.4868Z" fill="#37474F"/>
<path d="M174.371 53.8022H115.629V55.079H174.371V53.8022Z" fill="#C7C7C7"/>
<path d="M164.326 56.4697H125.674V57.7465H164.326V56.4697Z" fill="#C7C7C7"/>
<path d="M96.8078 67.4939L147.471 67.3628C164.355 67.4084 176.308 67.3628 193.192 67.4939C176.308 67.6079 164.355 67.5794 147.471 67.6307L96.8078 67.4939Z" fill="#C7C7C7"/>
<path d="M96.8078 71.5579L147.471 71.4268C164.355 71.4724 176.308 71.4268 193.192 71.5579C176.308 71.6719 164.355 71.6434 147.471 71.689L96.8078 71.5579Z" fill="#C7C7C7"/>
<path d="M96.8078 75.616L147.471 75.4849C164.355 75.5305 176.308 75.4849 193.192 75.616C176.308 75.73 164.355 75.7015 147.471 75.7471L96.8078 75.616Z" fill="#C7C7C7"/>
<path d="M96.8078 79.6803L147.471 79.5435C164.355 79.5948 176.308 79.5435 193.192 79.6803C176.308 79.7943 164.355 79.7658 147.471 79.8114L96.8078 79.6803Z" fill="#C7C7C7"/>
<path d="M96.8078 83.7385L147.471 83.6074C164.355 83.653 176.308 83.6074 193.192 83.7385C176.308 83.8525 164.355 83.824 147.471 83.8696L96.8078 83.7385Z" fill="#C7C7C7"/>
<path d="M96.8078 87.78L147.471 87.6489C164.355 87.6945 176.308 87.6489 193.192 87.78C176.308 87.894 164.355 87.8655 147.471 87.9168L96.8078 87.78Z" fill="#C7C7C7"/>
<path d="M96.8078 91.8611L147.471 91.73C164.355 91.7756 176.308 91.73 193.192 91.8611C176.308 91.9751 164.355 91.9466 147.471 91.9922L96.8078 91.8611Z" fill="#C7C7C7"/>
<path d="M96.8078 95.9197L147.471 95.7886C164.355 95.8342 176.308 95.7886 193.192 95.9197C176.308 96.0337 164.355 96.0052 147.471 96.0508L96.8078 95.9197Z" fill="#C7C7C7"/>
<path d="M96.8078 99.9835L147.471 99.8467C164.355 99.898 176.308 99.8467 193.192 99.9835C176.308 100.097 164.355 100.063 147.471 100.115L96.8078 99.9835Z" fill="#C7C7C7"/>
<path d="M96.8078 104.042L147.471 103.911C164.355 103.957 176.308 103.911 193.192 104.042C176.308 104.156 164.355 104.128 147.471 104.173L96.8078 104.042Z" fill="#C7C7C7"/>
<path d="M96.8078 108.1L147.471 107.969C164.355 108.015 176.308 107.969 193.192 108.1C176.308 108.214 164.355 108.186 147.471 108.231L96.8078 108.1Z" fill="#C7C7C7"/>
<path d="M96.8078 112.165L147.471 112.034C164.355 112.079 176.308 112.034 193.192 112.165C176.308 112.279 164.355 112.25 147.471 112.296L96.8078 112.165Z" fill="#C7C7C7"/>
<path d="M96.8078 116.223L147.471 116.092C164.355 116.137 176.308 116.092 193.192 116.223C176.308 116.337 164.355 116.308 147.471 116.354L96.8078 116.223Z" fill="#C7C7C7"/>
<path d="M96.8078 120.27L147.471 120.139C164.355 120.185 176.308 120.139 193.192 120.27C176.308 120.39 164.355 120.356 147.471 120.407L96.8078 120.27Z" fill="#C7C7C7"/>
<path d="M96.8078 124.345L147.471 124.214C164.355 124.26 176.308 124.214 193.192 124.345C176.308 124.459 164.355 124.431 147.471 124.477L96.8078 124.345Z" fill="#C7C7C7"/>
<path d="M115.205 114.012H107.52V129.077H115.205V114.012Z" fill="#2FB8A6"/>
<path d="M129.462 102.617H121.777V129.082H129.462V102.617Z" fill="#2FB8A6"/>
<path d="M143.712 100.092H136.027V129.077H143.712V100.092Z" fill="#2FB8A6"/>
<path d="M157.969 92.6138H150.284V129.077H157.969V92.6138Z" fill="#2FB8A6"/>
<path d="M172.219 76.6821H164.534V129.077H172.219V76.6821Z" fill="#2FB8A6"/>
<path d="M186.476 70.2183H178.791V129.076H186.476V70.2183Z" fill="#2FB8A6"/>
<path d="M99.557 64.6436L99.7658 80.7517L99.9108 96.8599C100.009 107.599 100.038 118.338 100.056 129.076L99.557 128.586H124.201L148.845 128.643L173.49 128.803L193.21 129.093L173.49 129.384L148.845 129.549L124.201 129.606H99.557H99.0524V129.116C99.0524 118.377 99.0988 107.639 99.1974 96.8998L99.3424 80.7917L99.557 64.6436Z" fill="#C7C7C7"/>
<path d="M115.205 132.485H107.52V133.169H115.205V132.485Z" fill="#C7C7C7"/>
<path d="M129.462 132.485H121.777V133.169H129.462V132.485Z" fill="#C7C7C7"/>
<path d="M143.712 132.485H136.027V133.169H143.712V132.485Z" fill="#C7C7C7"/>
<path d="M157.969 132.485H150.284V133.169H157.969V132.485Z" fill="#C7C7C7"/>
<path d="M172.219 132.485H164.534V133.169H172.219V132.485Z" fill="#C7C7C7"/>
<path d="M186.476 132.485H178.791V133.169H186.476V132.485Z" fill="#C7C7C7"/>
<path d="M107.567 113.675L107.474 113.105C107.892 113.037 149.814 105.803 182.984 68.645L183.419 69.0212C150.098 106.345 107.99 113.607 107.567 113.675Z" fill="#263238"/>
<path d="M183.993 70.0472L184.562 67.2656L181.824 68.1719L183.993 70.0472Z" fill="#263238"/>
<path d="M218.486 58.4595H199.416V80.6667H218.486V58.4595Z" fill="white"/>
<path d="M209.635 59.9695C209.636 60.1041 209.597 60.2361 209.521 60.3485C209.446 60.4609 209.338 60.5487 209.212 60.6008C209.085 60.6528 208.946 60.6667 208.812 60.6407C208.677 60.6147 208.554 60.55 208.457 60.4548C208.36 60.3596 208.294 60.2382 208.268 60.1061C208.241 59.974 208.255 59.8372 208.308 59.713C208.361 59.5888 208.451 59.4829 208.565 59.4088C208.68 59.3347 208.814 59.2958 208.951 59.2969C209.132 59.2969 209.306 59.3678 209.435 59.4939C209.563 59.62 209.635 59.7911 209.635 59.9695Z" fill="#455A64"/>
<path d="M203.041 62.9052C204.972 62.7627 206.898 62.7513 208.841 62.7285C210.784 62.7057 212.698 62.7285 214.641 62.9052C212.715 63.0534 210.784 63.0648 208.841 63.0819C206.898 63.099 204.972 63.0534 203.041 62.9052Z" fill="#EBEBEB"/>
<path d="M203.041 64.6606C205.131 64.425 207.243 64.425 209.334 64.6606C207.243 64.8962 205.131 64.8962 203.041 64.6606Z" fill="#EBEBEB"/>
<path d="M203.041 66.4164C204.38 66.2796 205.72 66.2454 207.06 66.2397C208.4 66.234 209.74 66.2796 211.079 66.4164C209.74 66.5532 208.4 66.5874 207.06 66.5931C205.72 66.5988 204.38 66.5532 203.041 66.4164Z" fill="#EBEBEB"/>
<path d="M203.041 68.1718C204.717 68.035 206.393 68.0008 208.069 67.9951C209.745 67.9894 211.422 68.035 213.098 68.1718C211.422 68.3086 209.745 68.3428 208.069 68.3485C206.393 68.3542 204.74 68.3086 203.041 68.1718Z" fill="#EBEBEB"/>
<path d="M203.041 69.9277C204.496 69.7909 205.941 69.7567 207.408 69.751C208.875 69.7453 210.308 69.7852 211.775 69.9277C210.32 70.0645 208.875 70.0987 207.408 70.1044C205.941 70.1101 204.496 70.0645 203.041 69.9277Z" fill="#EBEBEB"/>
<path d="M203.041 71.6834C204.908 71.5352 206.77 71.5238 208.632 71.5066C210.494 71.4895 212.361 71.5067 214.223 71.6834C212.361 71.8259 210.494 71.8373 208.632 71.8544C206.77 71.8715 204.908 71.8202 203.041 71.6834Z" fill="#EBEBEB"/>
<path d="M203.041 73.4332C205.442 73.2052 207.86 73.2052 210.262 73.4332C207.861 73.6688 205.442 73.6688 203.041 73.4332Z" fill="#EBEBEB"/>
<path d="M203.041 75.1889C204.972 75.0464 206.898 75.035 208.841 75.0122C210.784 74.9894 212.698 75.0464 214.641 75.1889C212.715 75.3371 210.784 75.3485 208.841 75.3656C206.898 75.3827 204.972 75.3371 203.041 75.1889Z" fill="#EBEBEB"/>
<path d="M203.041 76.9502C204.972 76.8077 206.898 76.7963 208.841 76.7735C210.784 76.7507 212.698 76.7735 214.641 76.9502C212.715 77.0984 210.784 77.1098 208.841 77.1269C206.898 77.144 204.972 77.0927 203.041 76.9502Z" fill="#EBEBEB"/>
<path d="M95.3172 83.5337H72.7552V109.811H95.3172V83.5337Z" fill="white"/>
<path d="M84.7206 87.0789C84.7206 87.2119 84.6805 87.3419 84.6053 87.4525C84.5301 87.5631 84.4232 87.6493 84.2981 87.7003C84.173 87.7512 84.0354 87.7645 83.9027 87.7385C83.7699 87.7126 83.648 87.6485 83.5523 87.5545C83.4565 87.4604 83.3913 87.3405 83.3649 87.2101C83.3385 87.0796 83.3521 86.9444 83.4039 86.8215C83.4557 86.6986 83.5434 86.5935 83.656 86.5196C83.7685 86.4457 83.9008 86.4062 84.0362 86.4062C84.1261 86.4062 84.2151 86.4237 84.2981 86.4575C84.3811 86.4913 84.4566 86.5408 84.5201 86.6032C84.5837 86.6657 84.6341 86.7399 84.6685 86.8215C84.7029 86.9031 84.7206 86.9905 84.7206 87.0789Z" fill="#455A64"/>
<path d="M75.9104 90.0883C77.5703 89.8527 79.2559 89.8527 80.9158 90.0883C79.2559 90.3238 77.5703 90.3238 75.9104 90.0883Z" fill="#EBEBEB"/>
<path d="M75.9104 92.0665C78.0656 91.8385 80.2396 91.8385 82.3948 92.0665C80.24 92.3021 78.0652 92.3021 75.9104 92.0665Z" fill="#EBEBEB"/>
<path d="M75.9104 94.0497C77.9042 93.8141 79.9196 93.8141 81.9134 94.0497C79.9196 94.2853 77.9042 94.2853 75.9104 94.0497Z" fill="#EBEBEB"/>
<path d="M75.9104 96.0336C76.9068 95.9095 77.9105 95.8504 78.9148 95.8569C79.9173 95.8476 80.9192 95.9066 81.9134 96.0336C79.9196 96.2692 77.9042 96.2692 75.9104 96.0336Z" fill="#EBEBEB"/>
<path d="M75.9104 98.04C77.6421 97.8044 79.3987 97.8044 81.1304 98.04C79.3987 98.2755 77.6421 98.2755 75.9104 98.04Z" fill="#EBEBEB"/>
<path d="M75.9104 99.9951C78.1292 99.7595 80.3674 99.7595 82.5862 99.9951C81.4791 100.119 80.3655 100.178 79.2512 100.172C78.1351 100.175 77.0197 100.116 75.9104 99.9951Z" fill="#EBEBEB"/>
<path d="M75.9104 101.973C76.8235 101.852 77.744 101.793 78.6654 101.796C79.5869 101.79 80.5076 101.849 81.4204 101.973C80.5079 102.1 79.587 102.159 78.6654 102.15C77.7439 102.156 76.8232 102.097 75.9104 101.973Z" fill="#EBEBEB"/>
<path d="M75.9104 103.956C78.2068 103.721 80.5218 103.721 82.8182 103.956C80.5218 104.192 78.2068 104.192 75.9104 103.956Z" fill="#EBEBEB"/>
<path d="M75.9104 105.935C78.2072 105.707 80.5214 105.707 82.8182 105.935C80.5218 106.17 78.2068 106.17 75.9104 105.935Z" fill="#EBEBEB"/>
<path d="M85.7704 90.0883C87.9504 89.8527 90.1502 89.8527 92.3302 90.0883C90.1502 90.3239 87.9504 90.3239 85.7704 90.0883Z" fill="#EBEBEB"/>
<path d="M85.7704 92.0665C87.1994 91.8385 88.6566 91.8385 90.0856 92.0665C88.6572 92.3022 87.1988 92.3022 85.7704 92.0665Z" fill="#EBEBEB"/>
<path d="M85.7704 94.0498C87.8205 93.8141 89.8915 93.8141 91.9416 94.0498C89.8915 94.2854 87.8205 94.2854 85.7704 94.0498Z" fill="#EBEBEB"/>
<path d="M85.7704 96.0336C86.7668 95.9095 87.7705 95.8504 88.7748 95.8569C89.7773 95.8476 90.7792 95.9066 91.7734 96.0336C89.7796 96.2692 87.7642 96.2692 85.7704 96.0336Z" fill="#EBEBEB"/>
<path d="M85.7704 98.04C87.9504 97.8044 90.1502 97.8044 92.3302 98.04C90.1502 98.2756 87.9504 98.2756 85.7704 98.04Z" fill="#EBEBEB"/>
<path d="M85.7704 99.995C87.5021 99.7595 89.2587 99.7595 90.9904 99.995C90.1262 100.119 89.2537 100.178 88.3804 100.172C87.5072 100.175 86.6349 100.116 85.7704 99.995Z" fill="#EBEBEB"/>
<path d="M85.7704 101.973C86.7943 101.852 87.8247 101.793 88.856 101.796C89.8873 101.79 90.918 101.849 91.9416 101.973C90.9183 102.1 89.8874 102.159 88.856 102.15C87.8247 102.156 86.794 102.097 85.7704 101.973Z" fill="#EBEBEB"/>
<path d="M85.7704 103.956C87.3525 103.721 88.9617 103.721 90.5438 103.956C88.9617 104.192 87.3525 104.192 85.7704 103.956Z" fill="#EBEBEB"/>
<path d="M85.7704 105.935C87.2889 105.707 88.8339 105.707 90.3524 105.935C88.8345 106.17 87.2883 106.17 85.7704 105.935Z" fill="#EBEBEB"/>
<path d="M203.041 48.627H191.568V59.9016H203.041V48.627Z" fill="#2FB8A6"/>
<path d="M197.989 49.7722C197.989 49.9052 197.949 50.0353 197.873 50.1459C197.798 50.2565 197.691 50.3427 197.566 50.3936C197.441 50.4445 197.304 50.4578 197.171 50.4319C197.038 50.4059 196.916 50.3419 196.82 50.2478C196.725 50.1537 196.66 50.0339 196.633 49.9034C196.607 49.773 196.62 49.6377 196.672 49.5148C196.724 49.3919 196.812 49.2869 196.924 49.213C197.037 49.1391 197.169 49.0996 197.304 49.0996C197.486 49.0996 197.66 49.1705 197.788 49.2966C197.917 49.4227 197.989 49.5938 197.989 49.7722Z" fill="#455A64"/>
<path d="M202.826 253.758C203.986 254.123 236.652 253.707 237.887 252.914C238.363 252.618 238.577 247.938 238.67 242.273V242.09C238.67 240.95 238.711 239.725 238.711 238.505C238.711 238.334 238.711 238.169 238.711 238.003C238.757 229.824 238.629 221.336 238.629 221.336L216.763 221.553L217.425 238.083V238.739L217.558 242.159V242.512C217.558 242.512 205.123 248.166 203.858 249.181C202.594 250.196 201.678 253.399 202.826 253.758Z" fill="#EB9481"/>
<path d="M212.645 244.678C212.733 244.678 212.774 244.627 212.78 244.604L212.645 244.678Z" fill="#2FB8A6"/>
<path d="M202.826 253.758C203.986 254.123 236.652 253.707 237.887 252.915C238.311 252.653 238.525 248.925 238.635 244.12C232.65 245.345 209.438 249.962 208.806 248.007C208.557 247.243 210.546 245.915 211.793 245.157C208.365 246.764 204.566 248.606 203.899 249.147C202.646 250.162 201.678 253.399 202.826 253.758Z" fill="#455A64"/>
<path d="M223.352 253.707C230.707 253.536 237.342 253.262 237.887 252.915C238.31 252.653 238.525 248.925 238.635 244.12C237.788 244.291 236.588 244.536 235.155 244.815L223.352 253.707Z" fill="#263238"/>
<path d="M245.34 128.82C245.34 128.82 240.433 183.09 239.633 187.233C239.447 188.18 239.331 193.31 239.256 199.899C239.088 214.286 239.192 240.232 239.192 240.232H216.154C216.154 240.232 216.833 195.276 217.854 187.005C218.875 178.735 225.394 128.82 225.394 128.82H245.34Z" fill="#37474F"/>
<path d="M217.193 236.288C220.789 236.214 219.756 236.185 223.352 236.151C225.092 236.151 236.692 236.037 238.316 236.305C238.351 236.305 238.351 236.373 238.316 236.379C236.669 236.647 225.11 236.544 223.352 236.527C219.756 236.493 220.789 236.465 217.193 236.39C217.186 236.39 217.179 236.389 217.173 236.387C217.166 236.384 217.161 236.38 217.156 236.375C217.151 236.371 217.147 236.365 217.144 236.359C217.142 236.353 217.14 236.346 217.14 236.339C217.14 236.332 217.142 236.326 217.144 236.32C217.147 236.313 217.151 236.308 217.156 236.303C217.161 236.298 217.166 236.294 217.173 236.292C217.179 236.289 217.186 236.288 217.193 236.288Z" fill="#263238"/>
<path d="M234.813 210.592C234.836 207.305 234.861 204.02 234.888 200.737C234.888 197.556 234.888 194.376 235.062 191.195C235.37 184.766 236.698 178.439 237.643 172.077C238.589 165.716 239.383 159.327 240.091 152.931C240.891 145.761 241.599 138.573 242.347 131.397C242.347 131.351 242.434 131.351 242.428 131.397C241.344 144.216 240.108 157.047 238.328 169.769C237.875 172.938 237.384 176.102 236.855 179.259C236.315 182.451 235.782 185.649 235.526 188.881C235.271 192.113 235.231 195.214 235.202 198.389L235.097 208.233C235.028 215.523 234.958 226.74 234.883 234.031C234.883 234.059 234.871 234.087 234.85 234.107C234.83 234.128 234.802 234.139 234.772 234.139C234.743 234.139 234.715 234.128 234.694 234.107C234.674 234.087 234.662 234.059 234.662 234.031C234.714 227.521 234.761 217.09 234.813 210.592Z" fill="#263238"/>
<path d="M250.195 128.82C250.195 128.82 240.433 183.09 239.633 187.233C239.447 188.18 239.331 193.31 239.256 199.899L228.276 128.82H250.195Z" fill="#263238"/>
<path d="M229.576 255.673C230.736 255.958 263.314 253.268 264.492 252.39C264.938 252.065 264.816 247.38 264.492 241.72V241.543C264.434 240.375 264.358 239.172 264.277 237.958L264.242 237.456C263.703 229.294 262.96 220.841 262.96 220.841L241.164 222.579L243.014 238.995L243.084 239.645L243.461 243.065L243.501 243.413C243.501 243.413 231.501 249.922 230.312 251.022C229.123 252.122 228.41 255.394 229.576 255.673Z" fill="#EB9481"/>
<path d="M229.581 255.674C230.741 255.959 263.314 253.268 264.492 252.39C264.874 252.111 264.845 248.651 264.631 244.125C259.585 245.391 235.271 251.399 234.529 249.426C234.372 249.005 234.888 248.389 235.59 247.785C233.771 248.759 232.009 249.832 230.312 251C229.141 252.1 228.41 255.394 229.581 255.674Z" fill="#455A64"/>
<path d="M242.521 241.458L265.541 240.5C265.541 240.5 259.254 190.864 259.161 187.815C258.993 183.255 256.778 164.559 254.922 149.403C254.922 149.403 258.442 141.195 251.848 128.803H225.4C225.4 128.803 227.169 140.596 230.208 148.074C232.236 148.778 234.195 149.661 236.06 150.714C236.06 150.714 238.693 184.503 238.792 188.721C238.989 197.055 242.521 241.458 242.521 241.458Z" fill="#37474F"/>
<path d="M243.136 237.314C246.726 237.091 245.688 237.103 249.278 236.92C251.018 236.829 262.583 236.248 264.236 236.447C264.244 236.45 264.25 236.455 264.255 236.462C264.259 236.468 264.262 236.476 264.262 236.484C264.262 236.492 264.259 236.5 264.255 236.507C264.25 236.513 264.244 236.518 264.236 236.521C262.607 236.858 251.047 237.239 249.29 237.296C245.7 237.41 246.726 237.336 243.136 237.416C243.072 237.416 243.066 237.314 243.136 237.314Z" fill="#263238"/>
<path d="M229.181 147.561C231.562 148.417 233.863 149.472 236.06 150.713C236.075 150.724 236.085 150.74 236.09 150.757C236.095 150.775 236.093 150.793 236.086 150.81C236.079 150.826 236.066 150.84 236.049 150.848C236.033 150.857 236.014 150.859 235.996 150.856C233.676 149.876 231.316 148.935 229.036 147.835C229.018 147.826 229.002 147.813 228.988 147.797C228.975 147.782 228.965 147.764 228.959 147.745C228.953 147.725 228.951 147.705 228.952 147.685C228.954 147.665 228.96 147.645 228.97 147.627C228.979 147.609 228.992 147.593 229.008 147.58C229.024 147.567 229.042 147.557 229.062 147.551C229.081 147.545 229.102 147.543 229.122 147.545C229.143 147.546 229.163 147.552 229.181 147.561Z" fill="#263238"/>
<path d="M228.439 131.926C228.439 131.846 228.59 131.829 228.59 131.926C228.587 134.47 228.717 137.011 228.978 139.541C229.083 140.716 230.045 147.202 232.116 146.729C232.464 146.649 232.638 146.313 232.696 145.8C232.686 145.128 232.593 144.46 232.418 143.811C232.191 142.454 232.006 141.092 231.884 139.718C231.643 137.163 231.672 134.59 231.971 132.04C231.975 132.026 231.984 132.014 231.996 132.005C232.008 131.996 232.023 131.991 232.038 131.991C232.053 131.991 232.067 131.996 232.079 132.005C232.091 132.014 232.1 132.026 232.104 132.04C232.045 135.581 232.256 139.121 232.737 142.631C232.992 144.341 233.862 146.86 232.064 147.122C230.266 147.385 229.054 143.132 228.827 141.964C228.258 138.649 228.127 135.275 228.439 131.926Z" fill="#263238"/>
<path d="M232.064 146.889C232.247 147.328 232.402 147.777 232.528 148.234C232.66 148.588 232.725 148.963 232.719 149.34C232.719 149.414 232.615 149.42 232.58 149.374C232.365 149.041 232.202 148.678 232.099 148.297C231.936 147.881 231.774 147.465 231.629 147.049C231.607 146.992 231.61 146.929 231.635 146.874C231.661 146.819 231.707 146.776 231.765 146.755C231.823 146.734 231.887 146.736 231.943 146.761C231.999 146.786 232.042 146.832 232.064 146.889Z" fill="#263238"/>
<path d="M218.486 104.612C218.478 104.671 218.492 104.731 218.525 104.782C218.558 104.832 218.608 104.869 218.666 104.886L219.652 104.971C220.638 102.572 221.676 100.668 221.392 101.415C220.965 102.588 220.706 103.814 220.62 105.057L222.569 105.205C223.515 100.953 224.634 97.795 224.53 98.7868C224.118 102.72 224.286 103.991 224.489 105.348C229.187 105.684 235.352 106.054 239.818 106.225C240.433 103.877 240.978 101.335 241.065 101.517C241.563 103.057 241.76 104.676 241.645 106.288C243.066 106.328 244.209 106.334 244.899 106.288C244.899 106.288 245.317 104.31 245.392 103.66C245.586 101.996 245.488 100.311 245.102 98.6785C244.638 97.0703 244.01 95.5121 243.229 94.0273C243.231 94.016 243.231 94.0044 243.229 93.9931C242.755 93.0009 242.399 91.9586 242.167 90.8866C242.011 90.1048 241.92 89.3118 241.895 88.5154C241.814 85.597 240.358 83.0434 237.783 82.2112C233.073 77.2351 228.056 79.1674 226.415 82.8667C226.258 83.2258 226.101 83.6419 225.945 84.0922C225.365 85.7623 224.831 87.934 224.344 89.6155C224.162 90.2725 223.94 90.9178 223.677 91.5478C222.268 94.6201 219.356 96.256 218.486 104.612Z" fill="#263238"/>
<path d="M238.861 83.0263C239.689 83.471 240.386 84.1191 240.883 84.9073C241.38 85.6955 241.661 86.5969 241.698 87.5236C241.725 88.7525 241.905 89.9736 242.231 91.1602C242.682 92.3181 243.299 93.4065 244.064 94.3921C245.261 95.9104 245.966 97.7474 246.088 99.6646C246.235 101.893 245.942 104.129 245.224 106.248C245.84 104.01 246.015 101.677 245.74 99.3739C245.462 97.0597 244.279 95.5777 243.084 93.7936C242.116 92.3806 241.541 90.744 241.413 89.0455C241.424 87.9849 241.295 86.9273 241.031 85.8991C240.556 84.8111 239.762 83.8865 238.751 83.2429C238.606 83.146 238.734 82.9522 238.861 83.0263Z" fill="#263238"/>
<path d="M220.638 94.7736C221.914 93.1491 223.225 91.7754 224.019 89.7405C224.738 87.888 225.179 85.9272 225.922 84.0747C225.922 84.0462 225.98 84.0747 225.968 84.0747C224.808 87.3636 224.483 90.6981 222.331 93.4341C221.171 94.9218 220.011 96.2841 219.199 98.0967C218.378 99.987 217.904 102.006 217.802 104.059C217.802 104.127 217.709 104.122 217.703 104.059C217.543 100.721 218.582 97.4348 220.638 94.7736Z" fill="#263238"/>
<path d="M233.839 106.818C228.885 118.104 221.543 129.618 217.674 131.527C214.96 132.878 209.589 132.793 207.814 129.709C203.98 122.983 202.635 112.204 203.574 106.63C203.911 104.646 214.594 103.825 215.418 105.82C217.326 110.489 217.941 115.328 218.544 115.328C219.06 115.328 221.862 111.56 228.166 104.971C234.755 98.0968 235.573 102.868 233.839 106.818Z" fill="#EB9481"/>
<path d="M203.452 108.414C203.452 108.414 203.638 102.537 205.772 98.6212C207.246 95.9137 211.114 90.3789 220.423 89.9856C222.633 89.8944 225.846 91.3023 222.297 92.7387C219.774 93.7647 217.86 93.6622 216.497 94.5172C216.497 94.5172 220.371 96.7971 220.377 98.9631C220.381 100.87 220.25 102.775 219.982 104.663C219.619 104.685 219.255 104.685 218.892 104.663C218.892 104.663 218.834 106.704 216.52 108.818L203.452 108.414Z" fill="#EB9481"/>
<path d="M207.588 96.2617C209.119 95.6917 212.379 94.5517 215.383 94.5004C218.724 94.4605 225.162 95.2756 225.162 97.6981C225.162 99.4708 222.679 99.3739 222.679 99.3739C222.679 99.3739 225.266 100.263 224.912 101.865C224.588 103.33 222.668 103.142 222.668 103.142C222.668 103.142 224.147 103.945 223.555 105.291C222.853 106.915 219.872 104.966 217.709 105.997C217.227 106.231 207.588 96.2617 207.588 96.2617Z" fill="#EB9481"/>
<path d="M214.838 97.9717C217.519 97.6284 220.242 98.0977 222.645 99.3169C222.703 99.3511 222.708 99.4081 222.645 99.391C220.107 98.6185 217.484 98.1515 214.832 98.0001C214.832 98.0001 214.82 97.9774 214.838 97.9717Z" fill="#263238"/>
<path d="M214.971 101.283C217.66 101.187 220.326 101.808 222.685 103.079C222.743 103.113 222.743 103.175 222.685 103.158C220.194 102.256 217.606 101.636 214.971 101.312V101.283Z" fill="#263238"/>
<path d="M221.717 128.991L218.37 114.125C221.747 110.454 225.329 106.969 229.1 103.688C234.54 99.0658 237.133 99.5617 233.873 107.792C230.614 116.023 225.811 125.554 221.717 128.991Z" fill="#2FB8A6"/>
<path d="M221.717 128.991L218.37 114.125C221.747 110.454 225.329 106.969 229.1 103.688C234.54 99.0658 237.133 99.5617 233.873 107.792C230.614 116.023 225.811 125.554 221.717 128.991Z" fill="#2FB8A6"/>
<path d="M220.261 113.806C220.841 115.835 221.343 117.88 221.769 119.939C221.985 120.977 222.188 122.018 222.378 123.063C222.569 124.123 222.685 125.195 222.848 126.261C222.848 126.318 222.778 126.323 222.766 126.261C222.378 124.175 221.908 122.1 221.479 120.025C221.05 117.95 220.615 115.881 220.191 113.812C220.18 113.783 220.249 113.766 220.261 113.806Z" fill="#263238"/>
<path d="M232.742 110.534C232.626 110.802 232.51 111.064 232.406 111.332C232.403 111.273 232.403 111.214 232.406 111.155C232.458 110.803 232.555 110.458 232.696 110.129C232.726 110.262 232.741 110.398 232.742 110.534ZM223.422 110.238C223.37 110.587 223.37 110.943 223.422 111.292C223.7 110.637 223.802 109.923 223.718 109.217C223.569 109.541 223.469 109.885 223.422 110.238ZM226.467 120.88C226.415 121.231 226.415 121.588 226.467 121.94C226.616 121.616 226.714 121.272 226.757 120.92C226.809 120.568 226.809 120.211 226.757 119.859C226.611 120.184 226.513 120.528 226.467 120.88ZM222.871 116.274C222.513 116.223 222.15 116.223 221.792 116.274C222.121 116.421 222.471 116.517 222.83 116.559C223.188 116.61 223.551 116.61 223.909 116.559C223.578 116.417 223.229 116.323 222.871 116.28V116.274ZM233.931 102.36C233.574 102.309 233.21 102.309 232.853 102.36C233.182 102.507 233.532 102.603 233.891 102.645C234.248 102.697 234.612 102.697 234.97 102.645C234.639 102.502 234.29 102.406 233.931 102.36ZM229.999 116.405C229.999 116.405 229.999 116.451 229.999 116.468C229.999 116.468 229.999 116.485 229.999 116.468C230.004 116.447 230.004 116.426 229.999 116.405ZM221.409 122.641C221.621 122.927 221.875 123.181 222.163 123.393C222.031 123.064 221.851 122.755 221.63 122.476C221.418 122.188 221.164 121.932 220.876 121.718C221.009 122.048 221.189 122.359 221.409 122.641ZM227.406 113.384C227.698 113.174 227.958 112.925 228.178 112.643C227.508 112.91 226.92 113.344 226.473 113.903C226.807 113.774 227.122 113.6 227.406 113.384ZM229.048 106.972C229.261 107.258 229.515 107.514 229.802 107.73C229.671 107.401 229.493 107.092 229.274 106.812C229.059 106.525 228.803 106.27 228.514 106.054C228.647 106.383 228.826 106.692 229.048 106.972Z" fill="white"/>
<path d="M233.862 107.792C230.602 116.018 225.811 125.554 221.717 128.991L220.336 122.869L235.033 101.209C235.59 102.092 235.283 104.207 233.862 107.792Z" fill="#263238"/>
<path d="M224.46 132.61C224.46 132.61 234.9 135.044 254.724 133.363C254.724 133.363 246.976 109.069 240.741 102.52C237.899 99.5388 235.126 99.9948 232.777 101.91C232.197 102.389 224.912 111.463 224.298 114.621C223.752 117.414 226.067 120.521 226.067 120.521L224.46 132.61Z" fill="#2FB8A6"/>
<path d="M232.708 110.129C232.76 110.481 232.76 110.838 232.708 111.19C232.665 111.542 232.567 111.886 232.418 112.21C232.365 111.858 232.365 111.501 232.418 111.15C232.464 110.798 232.562 110.454 232.708 110.129ZM231.948 128.58C231.896 128.932 231.896 129.289 231.948 129.641C232.097 129.317 232.195 128.973 232.238 128.62C232.29 128.271 232.29 127.915 232.238 127.566C232.092 127.888 231.994 128.23 231.948 128.58ZM226.815 131.727C226.763 132.078 226.763 132.435 226.815 132.787C227.099 132.133 227.203 131.418 227.116 130.712C226.969 131.035 226.868 131.377 226.815 131.727ZM243.443 117.334C243.391 117.686 243.391 118.043 243.443 118.394C243.588 118.069 243.685 117.726 243.733 117.374C243.783 117.022 243.783 116.666 243.733 116.314C243.591 116.64 243.493 116.983 243.443 117.334ZM226.467 120.88C226.415 121.231 226.415 121.588 226.467 121.94C226.616 121.616 226.714 121.272 226.757 120.92C226.809 120.568 226.809 120.211 226.757 119.859C226.611 120.184 226.513 120.528 226.467 120.88ZM237.962 113.162C237.607 113.11 237.245 113.11 236.889 113.162C237.554 113.442 238.283 113.544 239.001 113.458C238.67 113.313 238.321 113.213 237.962 113.162ZM244.128 123.45C243.77 123.399 243.407 123.399 243.049 123.45C243.378 123.597 243.728 123.693 244.087 123.735C244.445 123.787 244.808 123.787 245.166 123.735C244.836 123.592 244.486 123.496 244.128 123.45ZM233.862 122.601C233.504 122.55 233.141 122.55 232.783 122.601C233.114 122.743 233.463 122.839 233.821 122.886C234.179 122.935 234.542 122.935 234.9 122.886C234.569 122.744 234.22 122.648 233.862 122.601ZM252.486 132.052C252.128 132 251.764 132 251.407 132.052C251.738 132.193 252.087 132.289 252.445 132.337C252.803 132.385 253.166 132.385 253.524 132.337C253.193 132.196 252.843 132.1 252.486 132.052ZM233.926 102.36C233.568 102.309 233.204 102.309 232.847 102.36C233.176 102.507 233.526 102.603 233.885 102.645C234.243 102.697 234.606 102.697 234.964 102.645C234.635 102.502 234.288 102.406 233.931 102.36H233.926ZM238.96 105.45C239.175 105.735 239.429 105.99 239.714 106.208C239.585 105.876 239.407 105.565 239.186 105.284C238.973 104.998 238.719 104.742 238.432 104.526C238.564 104.857 238.742 105.167 238.96 105.45ZM248.298 118.56C248.51 118.846 248.764 119.1 249.052 119.312C248.919 118.983 248.74 118.674 248.518 118.394C248.307 118.106 248.053 117.851 247.764 117.636C247.905 117.968 248.093 118.279 248.321 118.56H248.298ZM230.504 117.334C230.718 117.62 230.972 117.875 231.258 118.092C231.127 117.76 230.947 117.449 230.724 117.169C230.513 116.882 230.261 116.627 229.976 116.411C230.114 116.741 230.3 117.05 230.527 117.329L230.504 117.334ZM239.424 127.11C239.634 127.396 239.886 127.649 240.172 127.862C240.044 127.532 239.866 127.223 239.644 126.944C239.431 126.658 239.177 126.402 238.89 126.186C239.024 126.517 239.204 126.827 239.424 127.11ZM228.903 106.761C228.955 106.829 229.001 106.898 229.054 106.96C229.263 107.25 229.515 107.507 229.802 107.724C229.671 107.392 229.492 107.081 229.268 106.801L229.059 106.544L228.903 106.761ZM227.406 113.378C227.698 113.169 227.958 112.919 228.178 112.637C227.508 112.904 226.92 113.339 226.473 113.897C226.807 113.771 227.121 113.598 227.406 113.384V113.378ZM250.026 125.571C250.318 125.361 250.578 125.112 250.798 124.83C250.126 125.099 249.536 125.535 249.087 126.095C249.429 125.968 249.752 125.793 250.044 125.576L250.026 125.571ZM226.896 125.953C227.19 125.748 227.451 125.5 227.667 125.217C226.997 125.484 226.409 125.919 225.962 126.477C226.303 126.356 226.624 126.185 226.913 125.97L226.896 125.953ZM242.869 110.768C243.162 110.56 243.422 110.31 243.641 110.027C243.304 110.155 242.99 110.332 242.707 110.551C242.415 110.759 242.155 111.006 241.935 111.287C242.276 111.161 242.596 110.989 242.887 110.774L242.869 110.768ZM236.304 132.542C236.597 132.334 236.857 132.084 237.075 131.801C236.403 132.07 235.814 132.506 235.364 133.066C235.707 132.939 236.029 132.765 236.321 132.548L236.304 132.542ZM238.258 119.153C238.549 118.946 238.807 118.698 239.024 118.417C238.357 118.693 237.776 119.135 237.336 119.7C237.674 119.565 237.991 119.383 238.276 119.158L238.258 119.153ZM245.682 129.908C245.975 129.7 246.235 129.451 246.454 129.167C245.783 129.434 245.196 129.869 244.748 130.427C245.089 130.302 245.409 130.129 245.7 129.914L245.682 129.908Z" fill="white"/>
<path d="M228.085 107.935C227.449 108.786 226.859 109.669 226.316 110.58C226.542 110.072 226.751 109.559 226.937 109.029C226.937 109.029 226.937 108.995 226.896 109.029C226.705 109.4 226.513 109.77 226.351 110.169C226.188 110.568 226.072 110.865 225.939 111.218C225.242 112.252 224.69 113.374 224.298 114.553C224.036 115.631 224.06 116.758 224.367 117.824C224.526 118.374 224.744 118.905 225.017 119.409C225.232 119.866 225.517 120.287 225.864 120.657C225.666 121.797 225.533 122.937 225.382 124.043C225.2 125.141 225.084 126.249 225.034 127.361C225.038 127.373 225.046 127.384 225.057 127.392C225.068 127.4 225.081 127.405 225.095 127.405C225.109 127.405 225.122 127.4 225.133 127.392C225.144 127.384 225.152 127.373 225.156 127.361C225.156 127.286 225.202 127.207 225.231 127.127C225.26 127.047 225.231 127.098 225.231 127.087C225.475 126.072 225.579 125.006 225.724 123.98C225.869 122.954 226.148 120.669 226.148 120.657C226.148 120.646 225.632 119.723 225.423 119.295C225.181 118.775 224.987 118.236 224.843 117.682C224.527 116.636 224.503 115.526 224.773 114.467C225.157 113.337 225.673 112.254 226.31 111.241C226.925 110.158 227.563 109.081 228.195 108.009C228.184 107.946 228.114 107.895 228.085 107.935Z" fill="#263238"/>
<path d="M238.165 101.739C238.049 102.264 235.544 105.695 233.102 105.61C232.307 105.581 232.278 101.312 232.278 101.312L232.203 100.998L231.147 96.5921L236.367 93.212L237.127 92.7617C237.127 92.7617 237.33 93.9815 237.574 95.5091L237.609 95.7257C237.609 95.8112 237.643 95.891 237.655 95.9765C237.696 96.2045 237.73 96.4325 237.765 96.6662C237.8 96.8999 237.817 97.0139 237.841 97.202C237.864 97.3901 237.887 97.5725 237.916 97.772C238.09 99.0874 238.173 100.413 238.165 101.739Z" fill="#EB9481"/>
<path d="M237.591 95.5091C237.153 96.7537 236.443 97.8895 235.513 98.8374C234.582 99.7853 233.453 100.523 232.203 100.998L231.147 96.5921L236.367 93.212L237.127 92.7617C237.127 92.7617 237.348 93.9815 237.591 95.5091Z" fill="#263238"/>
<path d="M224.495 88.4411C222.175 96.0506 226.571 98.2679 228.242 98.7524C229.755 99.1913 234.975 100.508 238.067 93.1721C241.158 85.8362 238.287 82.382 234.871 81.2021C231.455 80.0222 226.78 80.8316 224.495 88.4411Z" fill="#EB9481"/>
<path d="M225.985 87.4491C226.171 87.4776 226.351 87.4491 226.565 87.4833C226.762 87.5207 226.965 87.4947 227.145 87.4092C227.197 87.3712 227.233 87.3175 227.25 87.2566C227.267 87.1958 227.263 87.1312 227.238 87.0729C227.173 86.9669 227.079 86.8799 226.968 86.8208C226.857 86.7617 226.732 86.7327 226.606 86.7366C226.348 86.7013 226.087 86.7646 225.875 86.9133C225.828 86.9475 225.792 86.9941 225.772 87.0476C225.751 87.1011 225.746 87.1594 225.757 87.2156C225.769 87.2718 225.796 87.3235 225.837 87.3649C225.877 87.4063 225.929 87.4355 225.985 87.4491Z" fill="#263238"/>
<path d="M231.333 88.8688C231.162 88.7943 230.996 88.7106 230.834 88.618C230.648 88.5527 230.489 88.4284 230.382 88.2646C230.357 88.2073 230.352 88.1433 230.369 88.0832C230.386 88.0231 230.423 87.9704 230.475 87.934C230.584 87.8714 230.708 87.8384 230.834 87.8384C230.961 87.8384 231.085 87.8714 231.194 87.934C231.434 88.0366 231.626 88.2236 231.733 88.4584C231.761 88.514 231.771 88.5769 231.762 88.6383C231.752 88.6998 231.724 88.7569 231.68 88.8017C231.636 88.8466 231.579 88.8771 231.517 88.8891C231.455 88.9011 231.391 88.894 231.333 88.8688Z" fill="#263238"/>
<path d="M229.576 90.4131C229.576 90.4131 229.61 90.453 229.576 90.4758C229.402 90.9831 229.291 91.6158 229.715 91.9122C229.715 91.9122 229.715 91.9521 229.715 91.9407C229.17 91.6899 229.326 90.8748 229.576 90.4131Z" fill="#263238"/>
<path d="M230.208 90.0144C231.078 90.1968 230.637 91.8897 229.831 91.7244C229.025 91.5591 229.483 89.8548 230.208 90.0144Z" fill="#263238"/>
<path d="M230.521 90.1852C230.649 90.322 230.753 90.5272 230.927 90.5899C231.101 90.6526 231.339 90.5272 231.507 90.3904C231.507 90.3904 231.536 90.3904 231.507 90.3904C231.426 90.7153 231.217 91.0174 230.852 90.9604C230.486 90.9034 230.359 90.5785 230.364 90.2308C230.399 90.208 230.475 90.1339 230.521 90.1852Z" fill="#263238"/>
<path d="M226.641 89.5581C226.641 89.5581 226.594 89.5581 226.589 89.5923C226.473 90.1224 226.252 90.7323 225.724 90.7665C226.333 90.8577 226.618 90.0597 226.641 89.5581Z" fill="#263238"/>
<path d="M226.304 88.9197C225.463 88.6461 224.965 90.3219 225.724 90.5784C226.484 90.8349 227.012 89.1249 226.304 88.9197Z" fill="#263238"/>
<path d="M225.916 88.92C225.753 88.9713 225.574 89.091 225.411 89.0568C225.249 89.0226 225.139 88.7946 225.069 88.5894C225.069 88.5894 225.069 88.5894 225.034 88.5894C224.962 88.7292 224.943 88.8897 224.98 89.0421C225.017 89.1945 225.108 89.329 225.237 89.4216C225.504 89.5584 225.817 89.3418 225.968 89.0454C226.003 88.9827 225.98 88.8801 225.916 88.92Z" fill="#263238"/>
<path d="M228.52 94.728C228.376 94.857 228.192 94.9335 227.998 94.9447C227.798 94.9002 227.611 94.8147 227.447 94.6938C227.447 94.6938 227.412 94.6938 227.418 94.6938C227.474 94.8138 227.561 94.9167 227.672 94.9919C227.782 95.0671 227.911 95.1118 228.044 95.1214C228.16 95.1163 228.272 95.0772 228.365 95.0091C228.458 94.941 228.528 94.8471 228.566 94.7394C228.572 94.7337 228.52 94.7166 228.52 94.728Z" fill="#263238"/>
<path d="M226.693 93.3316C226.815 93.6902 227.031 94.0107 227.319 94.2607C227.482 94.3968 227.686 94.4769 227.899 94.4887C228.358 94.5229 228.479 94.1467 228.532 93.799C228.555 93.6097 228.555 93.4183 228.532 93.229C227.946 93.4586 227.301 93.4946 226.693 93.3316Z" fill="#263238"/>
<path d="M227.319 94.2608C227.482 94.397 227.686 94.477 227.899 94.4888C228.358 94.523 228.479 94.1468 228.532 93.7991C228.306 93.7289 228.063 93.7365 227.843 93.8204C227.622 93.9044 227.438 94.0597 227.319 94.2608Z" fill="#FF98B9"/>
<path d="M226.809 92.2546C226.809 92.2546 226.484 93.007 226.386 93.3946C226.386 93.4288 226.461 93.4687 226.589 93.5086C226.894 93.6514 227.234 93.7088 227.57 93.6746C227.907 93.6405 228.227 93.516 228.497 93.3148C228.505 93.3088 228.51 93.3003 228.512 93.2908C228.514 93.2812 228.512 93.2713 228.507 93.2629C228.502 93.2545 228.494 93.2482 228.485 93.2452C228.476 93.2421 228.465 93.2425 228.456 93.2463C227.895 93.4412 227.284 93.4512 226.716 93.2748C226.716 93.1665 227.296 92.0095 227.256 91.9867C226.959 91.9371 226.657 91.9256 226.357 91.9525C226.983 90.3679 227.865 88.8972 228.462 87.3126C228.466 87.3008 228.466 87.2878 228.462 87.276C228.457 87.2643 228.448 87.2547 228.436 87.2491C228.425 87.2434 228.412 87.2421 228.399 87.2455C228.387 87.2488 228.376 87.2565 228.369 87.2671C227.379 88.8144 226.547 90.4545 225.887 92.1634C225.794 92.3401 226.641 92.2774 226.809 92.2546Z" fill="#263238"/>
<path d="M237.278 93.2518C236.002 93.0067 236.449 90.3505 236.449 90.3505C236.449 90.3505 233.908 89.6608 234.088 85.8475C233.856 86.942 233.955 88.0793 234.372 89.1193C234.372 89.1193 230.028 87.4093 229.187 83.2255C229.187 83.2255 229.407 85.306 229.924 86.1667C228.883 85.5171 228.099 84.5378 227.702 83.3908C227.702 83.3908 226.316 85.3003 225.545 85.7164C225.545 85.7164 227.917 78.0727 234.941 80.8828C234.941 80.8828 239.401 82.4275 240.027 86.4118C240.654 90.3961 237.278 93.2518 237.278 93.2518Z" fill="#263238"/>
<path d="M237.22 95.9824C237.091 95.999 236.96 95.999 236.831 95.9824C236.705 95.9807 236.58 95.9595 236.46 95.9197C236.3 95.8752 236.152 95.793 236.031 95.6803C235.934 95.5982 235.85 95.5021 235.782 95.3953C235.681 95.2441 235.611 95.076 235.573 94.8994L236.443 92.9101C236.443 92.9101 238.682 90.8296 239.673 91.6618C240.665 92.494 238.647 95.7601 237.22 95.9824Z" fill="#EB9481"/>
<path d="M237.22 95.6346C237.191 95.7022 237.143 95.76 237.081 95.8006C237.019 95.8412 236.946 95.8627 236.871 95.8626C236.797 95.8624 236.724 95.8406 236.662 95.7997C236.6 95.7589 236.552 95.7009 236.523 95.6332C236.495 95.5654 236.488 95.4909 236.502 95.419C236.517 95.3472 236.553 95.2813 236.606 95.2296C236.659 95.1779 236.726 95.1427 236.799 95.1286C236.872 95.1144 236.948 95.1219 237.017 95.1501C237.109 95.1879 237.183 95.2602 237.221 95.351C237.259 95.4419 237.258 95.5439 237.22 95.6346Z" fill="white"/>
<path d="M238.055 95.2413C238.035 95.2893 238 95.3301 237.956 95.3587C237.912 95.3873 237.86 95.4023 237.807 95.4018C237.754 95.4014 237.702 95.3855 237.659 95.3561C237.615 95.3268 237.581 95.2853 237.562 95.237C237.542 95.1887 237.537 95.1358 237.548 95.0849C237.559 95.0341 237.586 94.9876 237.624 94.9514C237.662 94.9152 237.71 94.8909 237.762 94.8816C237.814 94.8724 237.868 94.8785 237.916 94.8993C237.98 94.9269 238.031 94.9782 238.057 95.0423C238.083 95.1063 238.082 95.1778 238.055 95.2413Z" fill="white"/>
<path d="M242.382 104.179C247.556 111.053 257.427 127.332 254.115 130.918C248.669 136.811 235.555 141.799 231.495 142.888C229.755 143.355 223.834 130.695 225.51 129.709C227.517 128.524 241.553 124.306 241.518 123.131C241.518 122.464 240.033 116.861 238.827 109.719C237.423 101.414 239.917 100.89 242.382 104.179Z" fill="#EB9481"/>
<path d="M231.89 128.997C231.89 128.997 226.6 127.332 223.091 126.403C221.131 125.884 217.691 125.263 216.079 125.554C213.66 125.953 203.812 129.133 204.543 131.493C205.21 133.636 213.318 129.846 213.318 129.846C213.318 129.846 204.792 132.958 206.074 135.392C207.356 137.826 215.934 132.342 215.934 132.342C215.934 132.342 207.234 135.734 208.974 138.042C210.273 139.781 218.335 135.249 218.335 135.249C218.335 135.249 210.888 138.213 212.147 140.06C213.544 142.101 221.247 138.35 221.247 138.35C225.26 142.511 228.903 142.91 231.524 142.842C232.162 142.853 231.89 128.997 231.89 128.997Z" fill="#EB9481"/>
<path d="M216.195 128.586C215.18 128.917 214.153 129.241 213.167 129.658C212.181 130.074 211.219 130.53 210.267 131.031C209.023 131.67 207.855 132.444 206.787 133.34C208.832 132.005 210.999 130.86 213.26 129.92C214.24 129.504 215.197 129.036 216.16 128.62L216.195 128.586Z" fill="#263238"/>
<path d="M217.796 132.04C216.514 132.519 215.232 132.947 213.974 133.477C212.715 134.007 211.584 134.617 210.372 135.227C210.279 135.272 210.337 135.306 210.436 135.267C211.665 134.697 212.854 134.269 214.09 133.722C215.325 133.175 216.555 132.582 217.807 132.069C217.825 132.063 217.813 132.035 217.796 132.04Z" fill="#263238"/>
<path d="M219.71 134.765C217.732 135.448 215.831 136.33 214.037 137.398C213.95 137.45 214.037 137.484 214.119 137.438C215.986 136.526 217.448 135.802 219.733 134.833C219.768 134.816 219.75 134.754 219.71 134.765Z" fill="#263238"/>
<path d="M221.021 125.913C220.458 125.69 219.875 125.518 219.281 125.4C218.722 125.269 218.154 125.179 217.581 125.132C216.344 125.032 215.098 125.182 213.921 125.571C211.557 126.322 209.287 127.338 207.159 128.598C207.112 128.598 207.159 128.7 207.193 128.683C209.361 127.689 211.586 126.821 213.858 126.084C215.012 125.685 216.23 125.492 217.454 125.514C218.086 125.548 218.712 125.639 219.339 125.731C219.892 125.847 220.452 125.934 221.015 125.993C221.05 126.021 221.067 125.93 221.021 125.913Z" fill="#263238"/>
<path d="M255.397 128.581L241.042 122.846C239.883 118.035 238.998 113.163 238.392 108.254C237.609 101.226 239.494 99.4138 244.534 106.721C249.574 114.029 254.84 123.32 255.397 128.581Z" fill="#2FB8A6"/>
<path d="M243.797 105.683L243.989 105.946C243.948 106.108 243.892 106.267 243.82 106.419C243.784 106.175 243.776 105.929 243.797 105.683ZM243.443 117.334C243.391 117.686 243.391 118.043 243.443 118.394C243.588 118.069 243.685 117.726 243.733 117.374C243.783 117.022 243.783 116.666 243.733 116.314C243.591 116.64 243.493 116.983 243.443 117.334ZM244.128 123.45C243.77 123.399 243.407 123.399 243.049 123.45C243.378 123.597 243.728 123.693 244.087 123.735C244.445 123.787 244.808 123.787 245.166 123.735C244.836 123.592 244.486 123.496 244.128 123.45ZM247.237 112.421C247.564 112.567 247.912 112.663 248.269 112.706H248.431L248.257 112.415C247.919 112.369 247.575 112.37 247.237 112.421ZM238.96 105.45C239.175 105.735 239.429 105.99 239.714 106.208C239.585 105.876 239.407 105.565 239.186 105.284C238.973 104.998 238.719 104.743 238.432 104.526C238.564 104.857 238.742 105.167 238.96 105.45ZM248.298 118.56C248.51 118.846 248.764 119.1 249.052 119.312C248.919 118.983 248.74 118.674 248.518 118.394C248.307 118.106 248.053 117.851 247.764 117.636C247.905 117.968 248.093 118.279 248.321 118.56H248.298ZM250.038 125.582C250.33 125.373 250.59 125.123 250.809 124.841C250.138 125.111 249.548 125.547 249.098 126.107C249.438 125.975 249.756 125.797 250.044 125.576L250.038 125.582ZM242.881 110.762C243.174 110.554 243.434 110.304 243.652 110.021C243.316 110.149 243.001 110.326 242.718 110.546C242.427 110.753 242.167 111.001 241.947 111.281C242.283 111.157 242.6 110.986 242.887 110.774L242.881 110.762Z" fill="white"/>
<path d="M238.525 112.609C238.741 113.013 238.915 113.437 239.047 113.874L239.198 114.313C239.07 113.498 238.954 112.683 238.838 111.868C238.838 111.811 238.914 111.788 238.925 111.868C239.285 113.715 240.955 122.362 241.031 122.812C241.071 122.812 241.518 123.063 241.547 123.063C241.576 123.063 241.547 123.154 241.512 123.131C241.477 123.108 240.932 122.88 240.932 122.875C240.746 122.481 239.43 115.881 239.308 115.077C239.286 115.043 239.268 115.007 239.256 114.969L239.122 114.627C239.041 114.416 238.972 114.199 238.896 113.988C238.72 113.554 238.581 113.106 238.479 112.649C238.479 112.598 238.513 112.581 238.525 112.609Z" fill="#263238"/>
<path d="M241.309 121.262C241.88 121.389 242.442 121.552 242.991 121.752C243.571 121.923 244.11 122.083 244.661 122.265C245.734 122.607 246.79 122.983 247.846 123.365C249.974 124.117 252.063 124.973 254.104 125.93C254.114 125.935 254.122 125.943 254.125 125.953C254.129 125.963 254.129 125.974 254.124 125.984C254.119 125.994 254.111 126.002 254.101 126.005C254.09 126.009 254.079 126.009 254.069 126.004C251.906 125.263 249.777 124.42 247.631 123.633L244.464 122.493C243.936 122.299 243.409 122.094 242.881 121.923C242.34 121.759 241.807 121.569 241.286 121.353C241.28 121.296 241.28 121.256 241.309 121.262Z" fill="#263238"/>
<path d="M237.098 82.0286C237.156 82.9064 241.425 84.9983 244.464 82.7297C247.503 80.4611 246.204 76.0037 242.034 76.4597C239.395 76.7618 236.976 80.159 237.098 82.0286Z" fill="#263238"/>
<path d="M245.984 78.7397C245.522 77.6651 244.705 76.7753 243.664 76.2146C243.181 75.9415 242.634 75.7978 242.077 75.7978C241.521 75.7978 240.974 75.9415 240.491 76.2146C239.509 76.8182 238.708 77.6682 238.171 78.677C237.883 79.1878 237.644 79.7241 237.458 80.2787C237.24 80.8235 237.128 81.4034 237.127 81.9887C236.994 81.3916 236.994 80.7732 237.127 80.1761C237.251 79.5726 237.445 78.9854 237.707 78.4262C238.21 77.2611 239.072 76.2804 240.172 75.6218C240.752 75.2938 241.412 75.1282 242.08 75.143C242.739 75.1689 243.38 75.3655 243.936 75.713C244.471 76.0526 244.928 76.4965 245.28 77.0172C245.632 77.5379 245.872 78.1242 245.984 78.7397Z" fill="#263238"/>
<path d="M92.945 255.81C91.7502 256.187 57.739 255.753 56.4572 254.933C55.9642 254.625 55.738 249.751 55.6394 243.852V243.669C55.6394 242.455 55.5988 241.201 55.5988 239.936C55.5988 239.759 55.5988 239.583 55.5988 239.412L57.2518 222.066L80.0052 222.294L77.7606 239.469L77.7316 240.153L77.5982 243.709V244.074C77.5982 244.074 90.5438 249.962 91.8604 251.017C93.177 252.071 94.1398 255.44 92.945 255.81Z" fill="#D3766A"/>
<path d="M92.945 255.811C91.7502 256.187 57.739 255.754 56.4572 254.933C55.9642 254.625 55.738 249.751 55.6394 243.852V243.67C55.6394 242.455 55.5988 241.201 55.5988 239.936C55.5988 239.759 55.5988 239.583 55.5988 239.412L77.7606 239.469L77.7316 240.153L77.5982 243.709V244.074C77.5982 244.074 90.5438 249.962 91.8604 251.017C93.177 252.071 94.1398 255.44 92.945 255.811Z" fill="#EBEBEB"/>
<path d="M92.9508 255.81C92.336 256.004 83.0908 255.981 74.0602 255.81L68.7184 255.685C62.2746 255.514 56.956 255.252 56.4572 254.933C55.9584 254.613 55.7438 249.894 55.6452 244.103C55.6452 244.023 55.6452 243.943 55.6452 243.858V243.669L77.5692 243.709V244.08C77.5692 244.08 90.5148 249.962 91.8256 251.017C93.1364 252.071 94.1398 255.434 92.9508 255.81Z" fill="#2FB8A6"/>
<path d="M92.5796 254.511C86.8434 254.3 63.7072 253.975 58.0232 254.197C57.9768 254.197 57.9768 254.231 58.0232 254.231C63.7014 254.562 86.8434 254.699 92.5738 254.602C92.6956 254.602 92.6956 254.516 92.5796 254.511Z" fill="#263238"/>
<path d="M80.04 243.801C77.7896 243.356 75.023 243.664 73.2772 245.22C73.2076 245.283 73.2772 245.374 73.37 245.351C75.5405 244.694 77.7767 244.267 80.04 244.08C80.0728 244.073 80.1022 244.056 80.1234 244.03C80.1446 244.005 80.1561 243.973 80.1561 243.94C80.1561 243.907 80.1446 243.875 80.1234 243.85C80.1022 243.825 80.0728 243.807 80.04 243.801Z" fill="#263238"/>
<path d="M81.6408 244.786C79.3904 244.342 76.6296 244.65 74.8838 246.206C74.8142 246.268 74.8838 246.36 74.9766 246.337C77.1414 245.68 79.3717 245.254 81.6292 245.066C81.6623 245.061 81.6927 245.044 81.715 245.02C81.7373 244.995 81.7503 244.964 81.7516 244.931C81.753 244.898 81.7427 244.865 81.7225 244.839C81.7023 244.813 81.6734 244.794 81.6408 244.786Z" fill="#263238"/>
<path d="M83.259 245.773C81.0086 245.328 78.242 245.63 76.4962 247.192C76.4324 247.249 76.4962 247.346 76.5948 247.323C78.7594 246.666 80.9898 246.24 83.2474 246.052C83.2805 246.047 83.3109 246.031 83.3332 246.006C83.3555 245.981 83.3685 245.95 83.3698 245.917C83.3712 245.884 83.3609 245.852 83.3407 245.825C83.3205 245.799 83.2916 245.78 83.259 245.773Z" fill="#263238"/>
<path d="M74.0602 255.805L68.7184 255.679C62.2746 255.508 56.956 255.246 56.4572 254.927C55.9584 254.608 55.7438 249.888 55.6452 244.097C55.6452 244.017 55.6452 243.937 55.6452 243.852V243.664C58.667 245.733 69.2462 252.658 74.0602 255.805Z" fill="#263238"/>
<path d="M79.0772 243.784H54.578C54.578 243.784 59.5138 187.553 59.3224 186.573C59.0788 185.313 57.6288 179.624 55.7032 172.192C55.1232 169.86 54.4504 167.369 53.7718 164.782C51.9506 157.788 49.9322 150.138 48.1806 143.486C45.5474 133.523 43.5 125.782 43.5 125.782H64.2582C64.2582 125.782 66.6768 133.318 69.7276 143.127C74.6982 159.087 81.3276 180.998 81.9888 186.333C83.0444 194.94 79.0772 243.784 79.0772 243.784Z" fill="#37474F"/>
<path d="M77.9926 239.674C74.2516 239.6 75.3246 239.566 71.6126 239.531C69.7798 239.531 57.7506 239.412 56.0396 239.691C56.0321 239.694 56.0256 239.699 56.0211 239.706C56.0165 239.712 56.0141 239.72 56.0141 239.728C56.0141 239.736 56.0165 239.744 56.0211 239.75C56.0256 239.757 56.0321 239.762 56.0396 239.765C57.7796 240.044 69.7798 239.942 71.6126 239.925C75.3536 239.89 74.2806 239.856 77.9926 239.782C78.0042 239.778 78.0143 239.771 78.0215 239.761C78.0286 239.752 78.0325 239.74 78.0325 239.728C78.0325 239.716 78.0286 239.704 78.0215 239.695C78.0143 239.685 78.0042 239.678 77.9926 239.674Z" fill="#263238"/>
<path d="M63.9276 183.135C63.1272 179.658 61.9266 176.244 60.8826 172.83C58.7598 165.887 56.6331 158.95 54.5026 152.019C53.4277 148.553 52.3508 145.088 51.272 141.622C50.721 139.872 50.1758 138.122 49.619 136.378C49.0622 134.634 48.459 132.958 47.9602 131.248C47.763 130.547 47.6528 130.929 47.908 131.818C48.4242 133.614 48.9346 135.415 49.4682 137.205C50.5238 140.75 51.5852 144.296 52.6524 147.841C54.7752 154.894 56.9173 161.941 59.0788 168.982C60.1576 172.516 61.2383 176.048 62.321 179.579C62.8678 181.261 63.3114 182.974 63.6492 184.709C63.9352 186.522 64.0072 188.362 63.8638 190.192C63.626 193.874 63.1968 197.551 62.8488 201.227L61.8048 212.274C61.0972 219.596 60.4089 226.928 59.74 234.27C59.6511 235.197 59.5699 236.126 59.4964 237.057C59.4964 237.371 59.9546 237.348 59.9836 237.057C60.7898 229.813 61.4104 222.539 62.1006 215.283C62.7908 208.027 63.481 200.84 64.1654 193.623C64.3394 191.811 64.5366 189.992 64.5366 188.174C64.5279 186.477 64.3236 184.787 63.9276 183.135Z" fill="#263238"/>
<path d="M61.8976 125.782C60.4534 136.738 57.71 157.286 55.7032 172.192C51.04 154.128 43.5 125.782 43.5 125.782H61.8976Z" fill="#263238"/>
<path d="M66.9958 256.135C65.801 256.517 31.7898 256.204 30.5022 255.383C30.0092 255.081 29.7656 250.207 29.6438 244.308V244.125C29.6438 242.911 29.5916 241.657 29.5858 240.392C29.5858 240.215 29.5858 240.039 29.5858 239.868C29.5046 231.357 30.131 222.522 30.131 222.522L52.3624 222.665L51.736 239.85V240.529L51.62 244.086V244.45C51.62 244.45 64.583 250.293 65.8996 251.342C67.2162 252.39 68.1848 255.753 66.9958 256.135Z" fill="#D3766A"/>
<path d="M66.9958 256.135C65.801 256.517 31.7898 256.204 30.5022 255.383C30.0092 255.081 29.7656 250.207 29.6438 244.308V244.126C29.6438 242.911 29.5916 241.657 29.5858 240.392C29.5858 240.215 29.5858 240.039 29.5858 239.868H51.7418V240.546L51.62 244.086V244.45C51.62 244.45 64.583 250.293 65.8996 251.342C67.2162 252.391 68.1848 255.754 66.9958 256.135Z" fill="#EBEBEB"/>
<path d="M66.9958 256.135C65.801 256.517 31.7898 256.204 30.5022 255.383C30.0092 255.081 29.7656 250.207 29.6438 244.308V244.125L51.62 244.085V244.45C51.62 244.45 64.583 250.293 65.8996 251.342C67.2162 252.39 68.1848 255.753 66.9958 256.135Z" fill="#2FB8A6"/>
<path d="M66.6246 254.836C60.8884 254.642 37.7522 254.402 32.0682 254.642C32.0218 254.642 32.0218 254.676 32.0682 254.676C37.7464 254.99 60.8884 255.047 66.6246 254.927C66.7406 254.921 66.7464 254.836 66.6246 254.836Z" fill="#263238"/>
<path d="M54.0328 244.171C51.7766 243.732 49.0158 244.051 47.2758 245.613C47.212 245.676 47.2758 245.767 47.3744 245.744C49.5363 245.079 51.7647 244.646 54.0212 244.45C54.0543 244.445 54.0847 244.429 54.107 244.404C54.1293 244.38 54.1423 244.348 54.1436 244.315C54.145 244.282 54.1347 244.25 54.1145 244.224C54.0943 244.197 54.0654 244.179 54.0328 244.171Z" fill="#263238"/>
<path d="M55.68 245.145C53.4296 244.712 50.663 245.026 48.923 246.593C48.8592 246.65 48.923 246.747 49.0216 246.724C51.1841 246.061 53.4122 245.625 55.6684 245.425C55.7015 245.42 55.7319 245.403 55.7542 245.379C55.7765 245.354 55.7895 245.323 55.7908 245.29C55.7922 245.257 55.7819 245.224 55.7617 245.198C55.7415 245.172 55.7126 245.153 55.68 245.145Z" fill="#263238"/>
<path d="M57.2692 246.126C55.0188 245.693 52.258 246.006 50.518 247.574C50.4484 247.631 50.518 247.728 50.6108 247.705C52.7726 247.039 55.001 246.603 57.2576 246.405C57.2907 246.4 57.3211 246.384 57.3434 246.359C57.3657 246.335 57.3787 246.303 57.38 246.27C57.3814 246.237 57.3711 246.205 57.3509 246.179C57.3307 246.152 57.3018 246.134 57.2692 246.126Z" fill="#263238"/>
<path d="M63.5796 125.782C63.5796 125.782 63.104 135.541 60.8304 143.276C60.6448 143.914 60.4476 144.541 60.2504 145.145C58.1655 145.97 56.1619 146.981 54.2648 148.166C54.2648 148.166 54.027 156.021 53.7834 164.782C53.5224 174.574 53.244 185.495 53.302 187.81C53.5108 196.479 52.2 244.137 52.2 244.137L27.7066 244.234C27.7066 244.234 32.1378 191.013 32.103 187.838C32.0566 182.708 33.292 160.176 34.2432 143.726C34.8232 133.591 35.3046 125.782 35.3046 125.782H63.5796Z" fill="#37474F"/>
<path d="M51.3474 239.85C47.6064 239.793 48.6794 239.759 44.9674 239.736C43.1346 239.736 31.1054 239.674 29.3944 239.959C29.3596 239.959 29.3596 240.033 29.3944 240.038C31.1054 240.306 43.1404 240.152 44.9674 240.13C48.7142 240.078 47.6354 240.05 51.3474 239.959C51.359 239.955 51.3691 239.948 51.3763 239.938C51.3834 239.928 51.3873 239.916 51.3873 239.904C51.3873 239.892 51.3834 239.881 51.3763 239.871C51.3691 239.861 51.359 239.854 51.3474 239.85Z" fill="#263238"/>
<path d="M37.352 129.271C36.8996 142.694 36.424 156.123 35.8092 169.547C35.1944 182.97 34.3708 196.479 33.2224 209.914C32.5844 217.421 31.9812 227.978 31.1576 235.467C31.1576 235.519 31.2272 235.536 31.233 235.467C33.0194 222.146 34.0112 205.679 34.8928 192.273C35.7744 178.866 36.3602 165.443 36.8242 152.025C37.091 144.433 37.2882 136.835 37.5202 129.225C37.526 129.151 37.352 129.162 37.352 129.271Z" fill="#263238"/>
<path d="M61.2538 144.563C58.8188 145.563 56.4765 146.768 54.2532 148.166C54.234 148.176 54.2195 148.192 54.213 148.213C54.2064 148.233 54.2084 148.255 54.2184 148.274C54.2284 148.293 54.2456 148.307 54.2663 148.314C54.287 148.32 54.3094 148.318 54.3286 148.308C56.6892 147.168 59.102 146.097 61.3988 144.837C61.4171 144.828 61.4333 144.815 61.4465 144.799C61.4598 144.784 61.4698 144.766 61.476 144.746C61.4822 144.727 61.4844 144.707 61.4826 144.687C61.4808 144.666 61.475 144.647 61.4655 144.629C61.456 144.611 61.443 144.595 61.4272 144.582C61.4114 144.569 61.3931 144.559 61.3735 144.553C61.3538 144.547 61.3331 144.545 61.3126 144.546C61.2921 144.548 61.2721 144.554 61.2538 144.563Z" fill="#263238"/>
<path d="M61.393 136.282C61.2306 137.137 61.0218 137.992 60.813 138.835C60.6042 139.679 60.5056 140.448 60.291 141.235C60.1086 142.001 59.7059 142.699 59.131 143.247C58.812 143.538 58.464 143.817 58.1218 144.062C57.942 144.205 57.7448 144.341 57.5418 144.49C57.5418 144.376 57.5824 144.262 57.6056 144.142C57.6636 143.817 57.7216 143.492 57.7738 143.173C57.8956 142.449 58.0174 141.731 58.1276 141.007C58.348 139.588 58.551 138.157 58.8526 136.749C58.8526 136.692 58.7772 136.669 58.7656 136.749C58.406 138.14 58.0058 139.519 57.6926 140.921C57.5418 141.611 56.9908 145.014 56.9676 145.253C56.9444 145.493 56.9212 145.749 56.9096 146C56.8777 146.254 56.8777 146.51 56.9096 146.764C56.9147 146.775 56.9229 146.784 56.9331 146.791C56.9434 146.797 56.9554 146.8 56.9676 146.8C56.9798 146.8 56.9918 146.797 57.0021 146.791C57.0123 146.784 57.0205 146.775 57.0256 146.764C57.1312 146.527 57.2053 146.278 57.246 146.023C57.3098 145.783 57.3678 145.538 57.4084 145.288C57.4084 145.202 57.4084 145.111 57.449 145.02C57.7912 144.814 58.1102 144.547 58.4292 144.319C58.7482 144.091 59.1194 143.834 59.4442 143.566C60.0479 143.069 60.483 142.403 60.6912 141.657C60.8992 140.857 61.0351 140.04 61.0972 139.217C61.2074 138.248 61.2886 137.279 61.422 136.316C61.48 136.23 61.4046 136.23 61.393 136.282Z" fill="#263238"/>
<path d="M52.6176 102.492C56.4166 109.902 66.033 124.927 70.992 125.024C77.1922 125.138 89.552 116.258 92.6434 112.792C93.9832 111.281 83.3228 100.862 81.7452 102.338C79.634 104.316 72.4652 110.318 72.21 110.421C71.6822 110.626 62.5414 103.187 57.043 98.388C50.8834 93.0129 49.7466 96.9003 52.6176 102.492Z" fill="#D3766A"/>
<path d="M89.697 115.18C89.697 115.18 94.337 111.458 97.2892 108.91C98.9248 107.473 101.506 104.766 102.213 103.176C103.275 100.787 106.169 90.1454 103.559 89.3987C101.198 88.7261 99.8934 98.1767 99.8934 98.1767C99.8934 98.1767 102.068 88.7546 99.0698 88.4525C96.0712 88.1504 96.0422 99.0317 96.0422 99.0317C96.0422 99.0317 98.0548 89.2961 94.917 89.4728C92.539 89.6039 91.9532 99.4535 91.9532 99.4535C91.9532 99.4535 93.6236 91.0745 91.176 91.103C88.4732 91.1372 87.348 100.194 87.348 100.194C81.142 101.334 78.7002 104.184 77.1922 106.521C76.821 107.063 89.697 115.18 89.697 115.18Z" fill="#D3766A"/>
<path d="M99.354 101.46C99.6498 100.36 99.934 99.2485 100.154 98.1313C100.375 97.0141 100.502 95.8798 100.595 94.7512C100.736 93.2708 100.708 91.7797 100.514 90.3052C100.671 92.9443 100.033 96.9685 99.8354 98.0857C99.6382 99.2029 99.5048 100.331 99.3076 101.454C99.3018 101.46 99.3424 101.46 99.354 101.46Z" fill="#263238"/>
<path d="M95.2244 100.839C95.5376 99.4196 95.9088 98.0231 96.1582 96.5867C96.4076 95.1503 96.5236 93.788 96.6744 92.3516C96.6744 92.2376 96.6222 92.2718 96.6048 92.3516C96.396 93.7823 96.0886 95.0933 95.8624 96.524C95.6362 97.9547 95.468 99.374 95.1896 100.805C95.1838 100.856 95.2186 100.856 95.2244 100.839Z" fill="#263238"/>
<path d="M91.582 100.93C92.1196 98.7668 92.4306 96.5551 92.51 94.3295C92.51 94.2155 92.4346 94.2668 92.423 94.3751C92.1562 96.5753 91.9648 98.3081 91.5066 100.907C91.5008 100.953 91.5704 100.976 91.582 100.93Z" fill="#263238"/>
<path d="M76.7166 106.197L85.6892 120.555C85.6892 120.555 74.6228 126.386 70.4236 125.32C66.2244 124.254 55.767 111.03 52.2 102.554C48.633 94.0785 53.0932 94.7283 56.5732 97.6125C60.0532 100.497 72.036 110.033 72.2332 110.01C72.4304 109.987 76.7166 106.197 76.7166 106.197Z" fill="#2FB8A6"/>
<path d="M78.3638 115.066C77.7838 114.023 77.169 113.003 76.5658 111.977C76.27 111.481 75.9858 110.985 75.6726 110.506C75.3594 110.027 75.0462 109.423 74.675 108.927C74.6695 108.922 74.6623 108.918 74.6546 108.917C74.6469 108.916 74.639 108.918 74.6323 108.922C74.6256 108.926 74.6205 108.932 74.6177 108.939C74.6149 108.946 74.6147 108.954 74.617 108.961C74.849 109.531 75.197 110.101 75.4464 110.626C75.6958 111.15 75.98 111.64 76.2468 112.142C76.8268 113.191 77.3778 114.24 77.9868 115.277C79.1468 117.357 80.4054 119.392 81.6698 121.422C81.6772 121.428 81.6866 121.432 81.6964 121.433C81.7063 121.433 81.7161 121.431 81.7245 121.426C81.7329 121.421 81.7395 121.413 81.7432 121.404C81.7469 121.395 81.7476 121.385 81.7452 121.376C80.62 119.25 79.5354 117.147 78.3638 115.066Z" fill="#263238"/>
<path d="M72.1288 110.01C71.1023 110.75 70.133 111.564 69.2288 112.444C68.7358 112.917 68.2544 113.408 67.7904 113.909C67.3264 114.411 66.8798 114.986 66.41 115.511C66.4046 115.52 66.4023 115.53 66.4035 115.54C66.4047 115.55 66.4094 115.56 66.4168 115.567C66.4241 115.574 66.4338 115.579 66.4441 115.58C66.4545 115.581 66.4649 115.579 66.4738 115.574C66.961 115.089 67.4946 114.644 67.9992 114.177C68.5038 113.71 69.0026 113.242 69.4956 112.769C70.4874 111.823 71.2936 111.128 72.2448 110.147C72.3028 110.05 72.21 109.925 72.1288 110.01Z" fill="#263238"/>
<path d="M74.4198 125.064C73.1248 125.446 71.7582 125.534 70.4236 125.32C66.2186 124.26 55.767 111.03 52.2 102.554C51.6294 101.277 51.2147 99.9377 50.9646 98.5645L74.4198 125.064Z" fill="#263238"/>
<path d="M32.3698 139.428C32.4568 139.513 68.3298 138.168 68.643 137.78C69.0664 137.239 58.203 100.16 54.143 95.6802C53.2788 94.7283 48.1864 93.6681 45.5358 96.2217C36.9634 104.51 32.0508 139.114 32.3698 139.428Z" fill="#2FB8A6"/>
<path d="M59.2064 106.214C59.2064 106.151 59.2876 106.117 59.3108 106.174C59.8908 107.622 60.4708 109.087 60.987 110.563C60.987 110.346 60.9406 110.136 60.9232 109.925C60.8768 109.355 60.8826 108.785 60.8304 108.249C60.8304 108.198 60.9174 108.198 60.9174 108.249C60.9174 108.819 61.0566 109.389 61.1436 109.959C61.2306 110.529 61.2886 110.985 61.3814 111.498C61.3814 111.589 61.3814 111.68 61.422 111.766C62.292 114.217 65.5574 125.48 66.787 129.937C67.4772 132.451 68.0862 134.982 68.6604 137.524C68.6571 137.533 68.6512 137.54 68.6434 137.546C68.6356 137.551 68.6264 137.554 68.6169 137.554C68.6074 137.554 68.5982 137.551 68.5904 137.546C68.5826 137.54 68.5767 137.533 68.5734 137.524C67.2452 133.112 65.9576 128.689 64.6352 124.277C63.4172 120.27 59.9546 108.693 59.2064 106.214Z" fill="#263238"/>
<path d="M55.1 97.2422C55.3146 98.8382 55.68 102.537 53.128 102.486C52.0896 102.38 51.1037 101.984 50.286 101.346C49.4426 100.758 48.6649 100.083 47.966 99.3341C47.154 98.5165 46.4129 97.6337 45.7504 96.695C45.7504 96.6551 45.6634 96.695 45.6924 96.7463C46.3652 97.6811 46.9452 98.6615 47.7108 99.5393C48.4382 100.389 49.279 101.139 50.2106 101.768C51.0767 102.441 52.1307 102.838 53.2324 102.908C53.7082 102.897 54.1656 102.725 54.5271 102.42C54.8885 102.116 55.1319 101.698 55.216 101.238C55.4818 99.9142 55.4422 98.5488 55.1 97.2422Z" fill="#263238"/>
<path d="M53.099 100.776C51.2778 101.078 47.9892 97.9261 46.922 95.6461C47.0531 94.4232 47.2467 93.2076 47.502 92.0038C47.6934 90.8353 47.879 89.5357 47.9602 88.333L55.5002 90.6586C54.9624 92.1309 54.6099 93.6622 54.4504 95.2186C54.4354 95.3836 54.4354 95.5495 54.4504 95.7145C54.4504 95.7145 54.4504 95.7658 54.4504 95.8C54.578 96.769 54.8622 100.485 53.099 100.776Z" fill="#D3766A"/>
<path d="M54.4794 95.76C54.4794 95.76 54.4794 95.8113 54.4794 95.8455C54.215 95.868 53.9492 95.868 53.6848 95.8455C49.184 95.3781 48.3372 90.3336 48.1806 88.4355L55.506 90.7155C54.9689 92.1883 54.6145 93.7194 54.4504 95.2755C54.4457 95.4376 54.4554 95.5997 54.4794 95.76Z" fill="#263238"/>
<path d="M45.7562 80.4498C45.2922 83.2143 47.7572 90.7098 49.909 92.1519C53.0352 94.2666 57.623 93.9018 59.3224 90.3336C60.9638 86.8737 57.5824 77.178 55.216 75.9069C51.7476 74.0316 46.4406 76.38 45.7562 80.4498Z" fill="#D3766A"/>
<path d="M54.288 84.041C54.288 84.041 54.2532 84.0809 54.288 84.098C54.4562 84.5996 54.5722 85.2038 54.1546 85.5116C54.6882 85.2893 54.52 84.4913 54.288 84.041Z" fill="#263238"/>
<path d="M53.6616 83.6535C52.8148 83.8359 53.2556 85.4946 54.0444 85.3179C54.8332 85.1412 54.375 83.4939 53.6616 83.6535Z" fill="#263238"/>
<path d="M57.2112 83.2827C57.2112 83.2827 57.2634 83.2827 57.2634 83.3169C57.3852 83.8356 57.6114 84.4056 58.1276 84.4569C58.1276 84.4569 58.1276 84.4854 58.1276 84.4911C57.536 84.5538 57.246 83.79 57.2112 83.2827Z" fill="#263238"/>
<path d="M57.536 82.6501C58.3596 82.3708 58.8642 84.0067 58.116 84.2632C57.3678 84.5197 56.84 82.861 57.536 82.6501Z" fill="#263238"/>
<path d="M52.78 83.0661C52.9812 82.9465 53.1749 82.8152 53.36 82.6728C53.5862 82.5189 53.7834 82.422 53.8878 82.1598C53.9079 82.0821 53.9018 82.0001 53.8704 81.9261C53.839 81.8521 53.7841 81.7901 53.7138 81.7494C53.563 81.6907 53.3988 81.673 53.2386 81.6981C53.0784 81.7231 52.928 81.7901 52.8032 81.8919C52.5256 82.0624 52.3197 82.3254 52.2232 82.6329C52.2071 82.704 52.2117 82.7781 52.2364 82.8468C52.2612 82.9155 52.3052 82.9759 52.3633 83.0211C52.4215 83.0663 52.4914 83.0945 52.5651 83.1025C52.6388 83.1104 52.7133 83.0978 52.78 83.0661Z" fill="#263238"/>
<path d="M57.9652 81.6243C57.7216 81.6243 57.4954 81.6243 57.2518 81.6243C56.9995 81.6588 56.7427 81.6107 56.521 81.4875C56.4593 81.4353 56.4169 81.3646 56.4001 81.2863C56.3833 81.208 56.3932 81.1265 56.4282 81.0543C56.5204 80.9232 56.6462 80.8184 56.7929 80.7504C56.9395 80.6823 57.1018 80.6535 57.2634 80.6667C57.5964 80.6439 57.9258 80.7457 58.1856 80.9517C58.2445 81.0006 58.2873 81.0655 58.3085 81.1383C58.3298 81.2112 58.3285 81.2885 58.3049 81.3606C58.2812 81.4327 58.2363 81.4963 58.1758 81.5432C58.1154 81.5902 58.042 81.6184 57.9652 81.6243Z" fill="#263238"/>
<path d="M56.84 87.3642C56.6962 87.704 56.4642 88.0008 56.1672 88.2249C55.9981 88.344 55.7952 88.4078 55.5872 88.4073C55.1406 88.4073 55.0072 88.0311 55.0072 87.6891C55.0055 87.5089 55.025 87.3291 55.0652 87.1533C55.6183 87.4094 56.2407 87.4834 56.84 87.3642Z" fill="#263238"/>
<path d="M56.1904 88.2245C56.0213 88.3436 55.8184 88.4074 55.6104 88.4069C55.1638 88.4069 55.0304 88.0307 55.0304 87.6887C55.257 87.6322 55.4965 87.6547 55.7081 87.7524C55.9196 87.8501 56.0901 88.017 56.1904 88.2245Z" fill="#FF98B9"/>
<path d="M47.2816 86.4634C49.2188 86.0302 48.8012 82.4734 48.8012 82.4734C48.8012 82.4734 52.0028 81.2023 51.9274 78.6373C51.9274 78.6373 55.535 79.9198 57.8144 78.4891C60.0938 77.0584 58.9396 74.4193 58.5336 73.8892C58.1276 73.3591 56.9966 74.7556 56.9966 74.7556C56.9966 74.7556 56.4862 73.2337 56.0222 73.1653C55.5582 73.0969 55.3204 74.1457 55.3204 74.1457C53.2061 73.9578 51.075 74.0827 48.9984 74.5162C46.0984 75.2401 45.3386 78.4264 45.3386 78.4264C45.3386 78.4264 43.8596 79.0933 43.5986 80.2732C43.3376 81.4531 46.052 86.7427 47.2816 86.4634Z" fill="#263238"/>
<path d="M51.7824 78.1987C51.8779 78.7036 51.8779 79.2215 51.7824 79.7263C51.6871 80.2159 51.4586 80.6709 51.1212 81.043C50.7623 81.4032 50.3372 81.6934 49.8684 81.898C49.6364 81.9949 49.387 82.0804 49.1376 82.1659C48.8882 82.2514 48.633 82.297 48.3778 82.3768C48.6388 82.3768 48.9056 82.3141 49.1724 82.2856C49.4392 82.2571 49.6886 82.1602 49.9438 82.0747C50.4606 81.8935 50.9286 81.5992 51.3126 81.214C51.6821 80.807 51.9132 80.297 51.9738 79.7548C52.0424 79.2286 51.9766 78.6938 51.7824 78.1987Z" fill="#263238"/>
<path d="M45.4082 78.8424C45.4089 78.0024 45.6328 77.1771 46.0578 76.4484C46.4901 75.7381 47.1426 75.1827 47.9196 74.8637C48.1085 74.779 48.3022 74.7048 48.4996 74.6414L49.1144 74.4933C49.532 74.4191 49.9554 74.3963 50.3788 74.3564C50.8022 74.3165 51.2372 74.3564 51.6606 74.3564C52.084 74.3564 52.519 74.4362 52.9482 74.4647C52.5248 74.3792 52.1014 74.3108 51.6722 74.231C51.243 74.1512 50.808 74.174 50.373 74.1455C49.495 74.1345 48.6235 74.2954 47.8094 74.6187C46.9901 74.9596 46.3117 75.5621 45.8838 76.3287C45.4695 77.0997 45.3036 77.9765 45.4082 78.8424Z" fill="#263238"/>
<path d="M53.5746 87.1587C53.1095 87.2238 52.6351 87.1597 52.2051 86.9736C51.7752 86.7875 51.4068 86.4868 51.1417 86.1056C50.8765 85.7245 50.7253 85.278 50.7049 84.8167C50.6846 84.3554 50.796 83.8977 51.0266 83.4955C51.2572 83.0932 51.5978 82.7624 52.0097 82.5404C52.4217 82.3185 52.8887 82.2142 53.3578 82.2396C53.8269 82.2649 54.2794 82.4187 54.6642 82.6836C55.049 82.9486 55.3506 83.3141 55.535 83.7387C55.689 84.0876 55.7587 84.4667 55.7387 84.8464C55.7186 85.2262 55.6094 85.5962 55.4195 85.9274C55.2296 86.2587 54.9642 86.5423 54.6441 86.7559C54.324 86.9696 53.958 87.1074 53.5746 87.1587ZM52.896 82.5987C52.7171 82.6268 52.542 82.6746 52.374 82.7412C51.8619 82.9513 51.4506 83.3453 51.2238 83.843C50.997 84.3407 50.9718 84.9047 51.1533 85.42C51.3348 85.9353 51.7094 86.3633 52.2007 86.6167C52.692 86.8702 53.2632 86.93 53.7978 86.784C54.3325 86.6381 54.7904 86.2973 55.0783 85.8312C55.3663 85.365 55.4626 84.8085 55.3476 84.275C55.2327 83.7415 54.9151 83.2711 54.4596 82.9597C54.0041 82.6483 53.4449 82.5192 52.896 82.5987Z" fill="#2FB8A6"/>
<path d="M59.16 85.6598C58.203 85.7966 57.1938 84.9644 56.84 83.7161C56.6658 83.1228 56.6861 82.4906 56.898 81.9092C56.9724 81.6539 57.1127 81.4219 57.3054 81.2357C57.4981 81.0495 57.7365 80.9154 57.9974 80.8466C58.2584 80.7777 58.5331 80.7764 58.7947 80.8428C59.0564 80.9091 59.2961 81.0409 59.4906 81.2252C59.9693 81.6237 60.3082 82.1601 60.4592 82.7585C60.8188 84.0809 60.3026 85.3634 59.2992 85.6085L59.16 85.6598ZM58.2262 81.1397L58.1044 81.1682C57.8987 81.23 57.7114 81.3401 57.5587 81.4891C57.4061 81.6381 57.2928 81.8214 57.2286 82.0232C57.041 82.5408 57.0248 83.1034 57.1822 83.6306C57.4896 84.7706 58.4118 85.5287 59.2296 85.3064C60.0474 85.0841 60.465 83.9897 60.1518 82.844C60.0175 82.3143 59.7196 81.8385 59.2992 81.4817C59.1536 81.3538 58.9825 81.2573 58.7967 81.1984C58.6108 81.1395 58.4145 81.1195 58.2204 81.1397H58.2262Z" fill="#2FB8A6"/>
<path d="M55.5292 84.0579L55.2566 83.8698C55.5408 83.4651 56.2832 82.8324 57.0488 83.2998L56.869 83.5791C56.1846 83.163 55.5582 84.0237 55.5292 84.0579Z" fill="#2FB8A6"/>
<path d="M45.3618 87.4892L45.0312 87.4208C45.066 87.2669 45.3792 85.9388 46.0752 85.631C46.7712 85.3232 50.7152 84.6392 50.8834 84.605L50.9356 84.9299C49.3447 85.1807 47.7686 85.5156 46.2144 85.9331C45.7562 86.1383 45.443 87.1244 45.3618 87.4892Z" fill="#2FB8A6"/>
<path d="M48.2734 86.4804C48.2734 86.4804 46.1274 84.2745 45.0776 85.0668C44.0278 85.8591 45.9186 89.2392 47.3338 89.5242C47.5147 89.5772 47.7048 89.5931 47.8923 89.5711C48.0797 89.549 48.2606 89.4894 48.4237 89.3959C48.5868 89.3024 48.7286 89.177 48.8404 89.0275C48.9523 88.878 49.0317 88.7075 49.0738 88.5267L48.2734 86.4804Z" fill="#D3766A"/>
<path d="M54.52 95.692L52.6466 100.121L47.0844 94.4209L45.4662 96.2107C45.4662 96.2107 50.8718 105.222 50.9124 104.818L52.8206 100.999L55.4828 103.7L55.3436 96.9973L54.52 95.692Z" fill="#EBEBEB"/>
<path d="M55.5988 100.389C55.5408 99.2828 55.5118 98.1656 55.3958 97.0655C55.3958 97.0256 55.332 97.0085 55.3204 97.0655C55.0826 98.1314 55.3204 102.361 55.3204 103.37C55.2102 103.256 52.8496 100.993 52.8264 101.027C52.4146 101.631 51.011 104.413 50.9182 104.664C50.0598 103.233 46.7828 98.0288 45.7678 96.6836C45.7665 96.6772 45.7637 96.6712 45.7595 96.6662C45.7554 96.6611 45.75 96.6572 45.744 96.6546C45.7379 96.652 45.7313 96.651 45.7247 96.6515C45.7181 96.652 45.7117 96.6541 45.7062 96.6576C45.7006 96.6611 45.696 96.6659 45.6927 96.6715C45.6894 96.6771 45.6876 96.6835 45.6874 96.69C45.6872 96.6965 45.6886 96.7029 45.6915 96.7088C45.6944 96.7146 45.6987 96.7196 45.704 96.7235C46.4522 98.234 50.7906 105.239 50.8544 105.222C51.5933 103.913 52.2612 102.566 52.8554 101.187C53.2556 101.677 55.6336 104.225 55.6452 104.037C55.6939 102.821 55.6785 101.603 55.5988 100.389Z" fill="#263238"/>
<path d="M41.818 106.659C42.398 115.739 44.776 132.839 50.2164 136.481C56.0164 140.346 72.5754 140.881 77.1632 140.836C79.1062 140.836 77.9868 126.649 75.9626 126.181C73.9384 125.714 59.7226 125.127 58.2842 124.505C56.8458 123.884 52.2696 111.595 48.72 104.436C44.602 96.0167 41.3598 99.2771 41.818 106.659Z" fill="#D3766A"/>
<path d="M85.5152 127.247C84.564 126.956 84.7148 126.466 86.362 125.85C88.0092 125.235 95.062 124.174 94.482 121.786C93.902 119.398 83.9608 121.034 81.2928 122.265C78.6248 123.496 74.7562 126.409 74.7562 126.409C76.7572 126.472 81.5944 127.076 85.5152 127.247Z" fill="#D3766A"/>
<path d="M83.462 136.424L103.083 137.108L107.77 109.948L88.1484 109.264L83.462 136.424Z" fill="#263238"/>
<path d="M84.4248 136.458L104.046 137.142L108.738 109.976L89.117 109.298L84.4248 136.458Z" fill="#455A64"/>
<path d="M99.18 122.117C99.1091 122.623 98.8522 123.085 98.4578 123.417C98.0634 123.749 97.5589 123.927 97.0398 123.918C96.7958 123.912 96.5559 123.855 96.3358 123.751C96.1157 123.647 95.9203 123.499 95.7622 123.316C95.6041 123.134 95.4869 122.92 95.4182 122.69C95.3496 122.46 95.3309 122.218 95.3636 121.98C95.4358 121.474 95.6938 121.012 96.0892 120.68C96.4845 120.348 96.9898 120.17 97.5096 120.179C97.7531 120.186 97.9923 120.244 98.2117 120.348C98.4311 120.452 98.6259 120.6 98.7833 120.783C98.9408 120.966 99.0575 121.179 99.1258 121.409C99.1941 121.638 99.2126 121.88 99.18 122.117Z" fill="white"/>
<path d="M75.9104 140.841C81.548 140.813 88.566 141.115 94.0354 137.917C94.6522 137.578 95.1344 137.043 95.4042 136.401C97.8808 135.01 97.9562 133.443 97.9562 133.443C99.8586 131.454 99.6962 129.846 99.6962 129.846C99.6962 129.846 102.596 128.182 101.854 126.295C101.036 124.186 97.1384 126.933 94.0586 127.156C86.9884 127.674 76.7978 126.46 74.7504 126.409L75.9104 140.841Z" fill="#D3766A"/>
<path d="M87.0464 132.81C89.1158 132.686 91.1739 132.422 93.206 132.018C95.4026 131.442 97.5526 130.707 99.6382 129.818C99.702 129.789 99.7426 129.875 99.6846 129.915C95.8333 132.027 91.4657 133.06 87.058 132.901C86.9536 132.901 86.942 132.81 87.0464 132.81Z" fill="#263238"/>
<path d="M86.7448 137.045C88.7516 136.749 92.2838 136.207 97.9214 133.386C97.9214 133.386 97.962 133.386 97.9214 133.414C94.6177 135.656 90.7429 136.947 86.7332 137.142C86.6288 137.148 86.6114 137.068 86.7448 137.045Z" fill="#263238"/>
<path d="M86.623 139.325C90.0218 138.693 92.0808 137.872 95.381 136.396C95.381 136.396 95.4216 136.396 95.381 136.43C91.8082 138.493 90.2712 138.847 86.6056 139.445C86.5012 139.468 86.4896 139.354 86.623 139.325Z" fill="#263238"/>
<path d="M70.0524 125.503L71.079 141.884C71.079 141.884 52.78 140.984 48.14 135.575C43.5 130.165 41.1046 112.507 41.4062 105.188C41.7078 97.8691 45.53 97.1281 48.778 103.877C52.026 110.626 57.971 123.399 58.2668 123.753C58.5626 124.106 70.0524 125.503 70.0524 125.503Z" fill="#2FB8A6"/>
<path d="M68.237 133.5C68.1964 132.314 68.1326 131.129 68.0688 129.943C68.034 129.373 68.0108 128.803 67.9586 128.233C67.9064 127.663 67.9006 126.99 67.802 126.386C67.802 126.377 67.7983 126.368 67.7918 126.362C67.7853 126.356 67.7764 126.352 67.7672 126.352C67.758 126.352 67.7491 126.356 67.7426 126.362C67.7361 126.368 67.7324 126.377 67.7324 126.386C67.6744 126.996 67.7324 127.623 67.7324 128.239C67.7324 128.854 67.7324 129.379 67.7324 129.949C67.7324 131.134 67.7614 132.32 67.8078 133.506C67.889 135.882 68.0456 138.248 68.2312 140.619C68.2312 140.631 68.2361 140.643 68.2448 140.651C68.2535 140.66 68.2653 140.665 68.2776 140.665C68.2899 140.665 68.3017 140.66 68.3104 140.651C68.3191 140.643 68.324 140.631 68.324 140.619C68.3182 138.248 68.3124 135.877 68.237 133.5Z" fill="#263238"/>
<path d="M53.3136 138.624C51.5436 138.179 49.9361 137.254 48.6736 135.956C47.3293 134.514 46.3514 132.78 45.82 130.895C44.44 126.784 43.3946 122.572 42.6938 118.298C42.2994 115.87 41.9688 113.419 41.7716 110.962C41.7716 110.953 41.7679 110.944 41.7614 110.938C41.7549 110.931 41.746 110.928 41.7368 110.928C41.7276 110.928 41.7187 110.931 41.7122 110.938C41.7057 110.944 41.702 110.953 41.702 110.962C41.7368 112.714 41.8412 114.452 42.0152 116.177C41.9804 116.063 41.9456 115.944 41.9166 115.824C41.7426 115.1 41.5454 114.382 41.3366 113.658C41.3366 113.555 41.1626 113.607 41.18 113.704C41.2939 114.445 41.4488 115.179 41.644 115.904C41.7948 116.434 41.934 117.004 42.137 117.534C42.4027 119.806 42.7899 122.062 43.297 124.294C43.8016 126.489 44.399 128.672 45.1182 130.815C45.762 132.719 46.5218 134.56 47.9776 136.013C49.428 137.407 51.2671 138.345 53.2614 138.71C53.2729 138.716 53.2868 138.718 53.2998 138.715C53.3129 138.712 53.3241 138.704 53.331 138.692C53.3379 138.681 53.34 138.668 53.3367 138.655C53.3335 138.642 53.3251 138.631 53.3136 138.624Z" fill="#263238"/>
<path d="M64.7164 124.79C63.249 124.46 61.7642 124.22 60.2794 123.958L59.218 123.787C58.8178 123.724 58.4756 123.707 58.2784 123.314C57.9304 122.63 57.6346 121.912 57.3156 121.211C56.1556 118.634 54.9434 116.081 53.7022 113.504C53.389 112.575 53.0874 111.635 52.8032 110.7C52.8032 110.689 52.7989 110.679 52.7913 110.671C52.7837 110.664 52.7734 110.66 52.7626 110.66C52.7518 110.66 52.7415 110.664 52.7339 110.671C52.7263 110.679 52.722 110.689 52.722 110.7C52.8554 111.298 53.0236 111.885 53.2034 112.467C52.5925 111.224 51.9661 109.989 51.3242 108.762C51.2894 108.705 51.1908 108.762 51.214 108.807C52.374 111.657 53.6558 114.473 54.9608 117.272C55.622 118.685 56.2774 120.122 56.9502 121.507C57.2692 122.174 57.565 122.864 57.9072 123.519C58.2494 124.175 58.9048 124.129 59.5428 124.226C61.2828 124.477 62.9764 124.727 64.7048 124.876C64.7686 124.904 64.7744 124.83 64.7164 124.79Z" fill="#263238"/>
</svg>
