<svg width="25" height="25" viewBox="0 0 25 25" fill="none" xmlns="http://www.w3.org/2000/svg">
<g clip-path="url(#clip0_93_1479)">
<path d="M23.1389 10.3846C22.7797 10.1989 22.3378 10.3398 22.1521 10.6991L21.2998 12.3487L20.4793 10.7078C20.3553 10.4597 20.1017 10.3029 19.8242 10.3029C19.5468 10.3029 19.2932 10.4597 19.1692 10.7078L18.3594 12.3273L17.5496 10.7078C17.4184 10.4452 17.1435 10.2866 16.8497 10.3043L16.8054 10.307C16.479 10.327 16.2159 10.5579 16.1401 10.8589C16.0902 10.6583 15.9566 10.4799 15.7572 10.3802C15.3956 10.1994 14.9555 10.3459 14.7746 10.7078L13.9649 12.3273L13.1551 10.7078C13.031 10.4597 12.7775 10.3029 12.5 10.3029C12.2226 10.3029 11.969 10.4597 11.8449 10.7078L11.0352 12.3273L10.2255 10.7078C10.0446 10.346 9.60456 10.1994 9.24279 10.3803C9.04343 10.4799 8.90988 10.6584 8.85998 10.8589C8.78415 10.5579 8.52102 10.327 8.19465 10.307L8.15031 10.3042C7.85715 10.2862 7.58171 10.4451 7.45041 10.7078L6.64065 12.3273L5.83093 10.7078C5.56428 10.1758 4.79318 10.1628 4.52072 10.7078L3.70026 12.3487L2.84797 10.6992C2.66233 10.3398 2.22048 10.1991 1.8611 10.3847C1.50173 10.5704 1.36091 11.0122 1.5466 11.3716L3.06027 14.3013C3.33503 14.8331 4.09812 14.8286 4.36608 14.2927L5.1758 12.6731L5.98557 14.2926C6.25529 14.832 7.02668 14.8307 7.29577 14.2926L8.66047 11.5631C8.75647 11.4698 8.82702 11.35 8.86052 11.2147C8.87326 11.2649 8.89113 11.3146 8.91525 11.3629L10.3801 14.2926C10.6498 14.832 11.4212 14.8307 11.6903 14.2926L12.5 12.6731L13.3097 14.2926C13.5795 14.832 14.3509 14.8308 14.6199 14.2926L16.0848 11.3628C16.1089 11.3146 16.1268 11.2649 16.1395 11.2147C16.173 11.35 16.2436 11.4699 16.3396 11.5632L17.7043 14.2926C17.9739 14.832 18.7455 14.8307 19.0145 14.2926L19.8242 12.6731L20.634 14.2926C20.9016 14.828 21.6648 14.8335 21.9398 14.3012L23.4534 11.3715C23.6391 11.0121 23.4983 10.5703 23.1389 10.3846Z" fill="#66AF5F"/>
<path d="M24.0738 7.77974C22.2125 3.23686 17.7059 0 12.5 0C7.29277 0 2.78701 3.23799 0.926221 7.77969C0.36626 8.17832 0 8.83213 0 9.57031V15.4297C0 16.1679 0.36626 16.8217 0.926221 17.2203C2.78745 21.763 7.29399 25 12.5 25C17.7072 25 22.2129 21.762 24.0738 17.2203C24.6337 16.8216 25 16.1678 25 15.4297V9.57031C25 8.83218 24.6337 8.17837 24.0738 7.77974ZM22.2678 7.37305H18.5233C18.0579 5.37866 17.3313 3.66152 16.4069 2.37998C16.3423 2.29048 16.277 2.20366 16.2109 2.11899C18.7797 3.04883 20.968 4.91636 22.2678 7.37305ZM13.2324 1.5875C15.2366 2.2604 16.4898 5.29443 17.0159 7.37305H13.2324V1.5875ZM11.7676 1.5875V7.37305H7.98403C8.40474 5.71099 9.01909 4.29331 9.7811 3.23691C10.2389 2.60225 10.9199 1.87212 11.7676 1.5875ZM8.78911 2.11899C8.72305 2.20366 8.65767 2.29043 8.59307 2.37998C7.6687 3.66152 6.94209 5.37866 6.47666 7.37305H2.73218C4.03198 4.91636 6.22026 3.04883 8.78911 2.11899ZM2.73218 17.627H6.47666C6.90293 19.4534 7.63521 21.4021 8.78911 22.881C6.22026 21.9512 4.03198 20.0836 2.73218 17.627ZM11.7676 23.4125C9.76343 22.7396 8.51016 19.7056 7.98403 17.627H11.7676V23.4125ZM13.2324 23.4125V17.6172H17.016C16.489 19.6989 15.2323 22.741 13.2324 23.4125ZM16.2109 22.881C17.3646 21.4023 18.097 19.444 18.5233 17.6172H22.2678C20.968 20.0739 18.7797 21.9512 16.2109 22.881ZM23.5352 15.4297C23.5352 15.8335 23.2066 16.1621 22.8027 16.1621C22.338 16.1621 2.72852 16.1621 2.19727 16.1621C1.79341 16.1621 1.46484 15.8335 1.46484 15.4297V9.57031C1.46484 9.16646 1.79341 8.83789 2.19727 8.83789C2.75562 8.83789 22.3014 8.83789 22.8027 8.83789C23.2066 8.83789 23.5352 9.16646 23.5352 9.57031V15.4297Z" fill="#66AF5F"/>
</g>
<defs>
<clipPath id="clip0_93_1479">
<rect width="25" height="25" fill="white"/>
</clipPath>
</defs>
</svg>
